<svg width="46.961" height="42.153" version="1.1" viewBox="0 0 46.960934 42.152931" xml:space="preserve" xmlns="http://www.w3.org/2000/svg"><defs><clipPath id="clipPath30"><path d="M 0,31.615 H 35.221 V 0 H 0 Z"/></clipPath></defs><g transform="matrix(1.3333 0 0 -1.3333 0 42.153)"><g transform="translate(3.2852 28.294)"><path d="m0 0h12.45z" fill="none" stroke="#000" stroke-linecap="round" stroke-linejoin="round" stroke-miterlimit="22.926" stroke-width="1.44"/></g><g clip-path="url(#clipPath30)"><g transform="translate(17.809 .7202)"><path d="m0 0v26.128" fill="none" stroke="#000" stroke-linecap="round" stroke-linejoin="round" stroke-miterlimit="22.926" stroke-width="1.44"/></g><g transform="translate(9.627 .7202)"><path d="m0 0h16.363" fill="none" stroke="#000" stroke-linecap="round" stroke-linejoin="round" stroke-miterlimit="22.926" stroke-width="1.44"/></g><g transform="translate(17.809 30.894)"><path d="m0 0c1.118 0 2.023-0.906 2.023-2.023 0-1.118-0.905-2.023-2.023-2.023-1.117 0-2.023 0.905-2.023 2.023 0 1.117 0.906 2.023 2.023 2.023z" fill="none" stroke="#000" stroke-linecap="round" stroke-linejoin="round" stroke-miterlimit="22.926" stroke-width="1.44"/></g><g transform="translate(.7231 11.989)"><path d="m0 0h11.775" fill="none" stroke="#000" stroke-linecap="round" stroke-linejoin="round" stroke-miterlimit="22.926" stroke-width="1.44"/></g><g transform="translate(1.022 10.804)"><path d="m0 0c1.116-2.146 3.159-3.654 5.589-3.654 2.405 0 4.423 1.477 5.551 3.583 0.431 0.807 0.428 1.299 0.12 2.242l-4.822 12.581c-0.058 0.224-0.224 0.415-0.459 0.497-0.374 0.128-0.782-0.07-0.911-0.444l2e-3 -2e-3c-1.72-4.972-3.442-7.745-5.161-12.717-0.295-0.854-0.294-1.346 0.091-2.086z" fill="none" stroke="#000" stroke-linecap="round" stroke-linejoin="round" stroke-miterlimit="22.926" stroke-width="1.44"/></g><g transform="translate(22.723 11.989)"><path d="m0 0h11.775" fill="none" stroke="#000" stroke-linecap="round" stroke-linejoin="round" stroke-miterlimit="22.926" stroke-width="1.44"/></g><g transform="translate(23.022 10.804)"><path d="m0 0c1.116-2.146 3.159-3.654 5.589-3.654 2.405 0 4.423 1.477 5.551 3.583 0.431 0.807 0.428 1.299 0.12 2.242l-4.822 12.581c-0.058 0.224-0.224 0.415-0.459 0.497-0.374 0.128-0.782-0.07-0.911-0.444l2e-3 -2e-3c-1.72-4.972-3.442-7.745-5.161-12.717-0.295-0.854-0.294-1.346 0.091-2.086z" fill="none" stroke="#000" stroke-linecap="round" stroke-linejoin="round" stroke-miterlimit="22.926" stroke-width="1.44"/></g><g transform="translate(20.285 28.294)"><path d="m0 0h12.45z" fill="none" stroke="#000" stroke-linecap="round" stroke-linejoin="round" stroke-miterlimit="22.926" stroke-width="1.44"/></g></g></g></svg>
