<svg version="1.1" viewBox="0 0 20 21.5" xml:space="preserve" xmlns="http://www.w3.org/2000/svg"><style type="text/css">
	.st0{stroke:#42C134;stroke-miterlimit:10;}
	.st1{fill:#92939A;}
</style><g transform="translate(-2,-1)" fill="#92939a"><path class="st1" d="m20 3.4h-5.2v-0.6c0-1-0.9-1.8-2-1.8h-1.6c-1.1 0-2 0.8-2 1.8v0.6h-5.2c-1.1 0-2 0.9-2 2v1.2c0 0.2 0.2 0.4 0.4 0.4h0.8l1.4 13.6c0.1 1.1 1.1 1.9 2.2 1.9h10.4c1.1 0 2.1-0.9 2.2-1.9l1.4-13.6h0.8c0.2 0 0.4-0.2 0.4-0.4v-1.2c0-1.1-0.9-2-2-2zm-10-0.6c0-0.6 0.5-1 1.2-1h1.6c0.7 0 1.2 0.4 1.2 1v0.6h-4zm8.6 17.8c-0.1 0.7-0.7 1.2-1.4 1.2h-10.4c-0.7 0-1.3-0.6-1.4-1.2l-1.4-13.6h16zm2.6-14.4h-18.4v-0.8c0-0.7 0.5-1.2 1.2-1.2h16c0.7 0 1.2 0.5 1.2 1.2z"/><path class="st1" d="m8.4 19.8c0.2 0 0.4-0.2 0.4-0.4v-10c0-0.2-0.2-0.4-0.4-0.4s-0.4 0.2-0.4 0.4v10c0 0.2 0.2 0.4 0.4 0.4z"/><path class="st1" d="m12 19.8c0.2 0 0.4-0.2 0.4-0.4v-10c0-0.2-0.2-0.4-0.4-0.4s-0.4 0.2-0.4 0.4v10c0 0.2 0.2 0.4 0.4 0.4z"/><path class="st1" d="m15.6 19.8c0.2 0 0.4-0.2 0.4-0.4v-10c0-0.2-0.2-0.4-0.4-0.4s-0.4 0.2-0.4 0.4v10c0 0.2 0.2 0.4 0.4 0.4z"/></g></svg>
