<svg width="31.311" height="31.5" version="1.1" viewBox="0 0 31.310944 31.5" xml:space="preserve" xmlns="http://www.w3.org/2000/svg" xmlns:xlink="http://www.w3.org/1999/xlink"><style type="text/css">
	.st0{stroke:#42C134;stroke-miterlimit:10;}
	.st1{fill:#7AB9EF;}
</style><switch transform="translate(-1.1,-1)"><g>
<path class="st1" d="m31.2 1h-28.9c-0.7 0-1.2 0.6-1.2 1.3v28.9c0 0.7 0.6 1.3 1.2 1.3h23.8c0.4 0 0.8-0.2 1-0.5h1.8c0.8 0 1.6-0.3 2.1-0.9 0.6-0.6 0.9-1.3 0.9-2.1v-16.9c0.3-0.2 0.5-0.6 0.5-1v-8.8c0.1-0.7-0.5-1.3-1.2-1.3zm-5.1 10c-0.7 0.7-1.2 1.8-1.2 2.9v16.1h-21.3v-26.5h26.4v6.3h-1.1c-1.1 0-2.1 0.5-2.8 1.2zm4.4 17.9c0 0.4-0.2 0.8-0.5 1.1s-0.7 0.5-1.1 0.5h-1.6v-4.5h1.6c0.6 0 1.1-0.2 1.6-0.4zm0-5.9c0 0.4-0.2 0.8-0.5 1.1s-0.7 0.5-1.1 0.5h-1.6v-4.6h1.6c0.6 0 1.1-0.2 1.6-0.4zm0-6c0 0.4-0.2 0.8-0.5 1.1s-0.7 0.5-1.1 0.5h-1.6v-4.6c0-0.4 0.2-0.8 0.5-1.1s0.7-0.5 1.1-0.5h1.6zm-10.8 1.2c-0.4-0.4-0.8-0.7-1.3-0.9l-0.2-0.1 0.1-0.1c0.8-0.8 1.4-2 1.4-3.3s-0.5-2.5-1.4-3.3c-0.8-0.8-2-1.4-3.3-1.4s-2.5 0.5-3.3 1.4c-0.8 0.8-1.4 2-1.4 3.3s0.5 2.5 1.4 3.3l0.1 0.1c-0.6 0.2-1.1 0.5-1.5 0.9-0.3 0.5-0.6 0.9-0.8 1.4s-0.3 1-0.3 1.5v1.1c0 0.4 0.3 0.8 0.7 0.8h10.2c0.4 0 0.8-0.3 0.8-0.8v-1.1c0-0.5-0.1-1-0.3-1.5s-0.6-0.9-0.9-1.3zm-6.9-6.6c0.6-0.6 1.4-0.9 2.2-0.9s1.7 0.4 2.3 0.9c0.6 0.6 0.9 1.4 0.9 2.3s-0.4 1.7-0.9 2.2c-1.2 1.2-3.3 1.2-4.5 0-0.6-0.6-0.9-1.4-0.9-2.2-0.1-1 0.3-1.8 0.9-2.3zm6.6 9.8h-8.7v-0.4c0-0.3 0.1-0.7 0.2-1s0.3-0.6 0.6-0.8c0.4-0.5 1.1-0.7 1.8-0.7h3.7c0.3 0 0.7 0.1 1 0.2s0.6 0.3 0.8 0.5 0.4 0.5 0.6 0.8c0.1 0.3 0.2 0.6 0.2 1v0.4z" fill="#7ab9ef"/></g></switch></svg>
