<svg width="21.415" height="20.1" version="1.1" viewBox="0 0 21.415001 20.1" xml:space="preserve" xmlns="http://www.w3.org/2000/svg"><style type="text/css">
	.st0{stroke:#42C134;stroke-miterlimit:10;}
	.st1{fill:#92939A;}
</style><path class="st1" d="m4.5 20.1c-1.2 0-2.3-0.5-3.2-1.3-0.8-0.8-1.3-2-1.3-3.2s0.5-2.3 1.3-3.2l10.8-10.7c0.2-0.2 0.4-0.2 0.6 0s0.2 0.4 0 0.6l-10.7 10.8c-0.7 0.7-1.1 1.6-1.1 2.6s0.4 1.9 1.1 2.6 1.6 1.1 2.6 1.1 1.9-0.4 2.6-1.1l12.4-12.5c0.6-0.6 1-1.4 0.9-2.1 0-0.7-0.4-1.3-0.9-1.9-0.6-0.6-1.2-0.9-1.9-0.9-0.8-0.1-1.5 0.3-2.1 0.9l-9.6 9.6c-0.4 0.4-0.7 1-0.6 1.5 0 0.5 0.3 1 0.6 1.4 0.4 0.4 0.9 0.6 1.4 0.6s1.1-0.2 1.5-0.6l7.6-7.6c0.2-0.2 0.4-0.2 0.6 0 0.1 0.1 0.1 0.3-0.1 0.5l-7.6 7.6c-0.6 0.6-1.4 0.9-2.1 0.9s-1.4-0.4-1.9-0.9-0.8-1.2-0.9-1.9c0-0.8 0.3-1.5 0.9-2.1l9.6-9.6c0.8-0.8 1.8-1.2 2.8-1.2 0.9 0.1 1.7 0.5 2.4 1.2s1.1 1.5 1.2 2.4c0.1 1-0.3 1.9-1.2 2.8l-12.5 12.4c-0.8 0.9-2 1.3-3.2 1.3z" fill="#92939a"/></svg>
