<svg version="1.1" viewBox="0 0 15.4 14.8" xml:space="preserve" xmlns="http://www.w3.org/2000/svg"><style type="text/css">
	.st0{stroke:#42C134;stroke-miterlimit:10;}
	.st1{fill:#151827;}
</style><text class="st0" x="678.40002" y="378.79999" font-family="MyriadPro-Regular" font-size="12px" stroke="#42c134" stroke-miterlimit="10">42c134</text>
<g transform="translate(-4.6,-5.2)"><path class="st1" d="m12.3 5.2c-4.2 0-7.6 2.9-7.7 6.4 0 2.2 0.8 3.7 2.7 5.1l0.1 0.1c0.1 0.8-0.4 1.7-1.4 2.7l-0.1 0.1c-0.1 0.1-0.1 0.2-0.1 0.3 0.1 0 0.2 0.1 0.3 0.1 2.2-0.2 4.4-1.8 4.8-2.1h0.2c0.3 0 1 0.1 1.2 0.1 4.2 0 7.7-2.9 7.7-6.4s-3.4-6.4-7.7-6.4z" fill="#151827"/></g></svg>
