<svg version="1.1" viewBox="0 0 32 26.4" xml:space="preserve" xmlns="http://www.w3.org/2000/svg"" xmlns:xlink="http://www.w3.org/1999/xlink"><style type="text/css">
	.st0{stroke:#42C134;stroke-miterlimit:10;}
	.st1{fill:#7AB9EF;}
</style><switch transform="translate(-.6 -3.2)"><g>
<path class="st1" d="m16.9 3.2c-3.5 0-6.6 2.6-7.1 6.1-0.6-0.1-1.1-0.2-1.7-0.2-1.6 0-3 0.6-4 1.7-1 1-1.7 2.5-1.7 4s0.6 2.9 1.5 3.9l-1.4 1.3c-0.6 0.6-1.1 1.3-1.4 2s-0.5 1.5-0.5 2.4v1.7c0 0.4 0.1 0.9 0.4 1.3s0.7 0.7 1.2 0.7h0.1 1.3v0.5c0 0.6 0.5 1 1 1h24c0.6 0 1-0.5 1-1v-0.5h1.3 0.1c0.5-0.1 0.9-0.4 1.2-0.7 0.3-0.4 0.4-0.8 0.4-1.3v-1.7c0-0.8-0.2-1.6-0.5-2.4-0.3-0.7-0.8-1.4-1.4-2l-1.4-1.4c1-1 1.5-2.4 1.5-3.9 0-1.6-0.6-3-1.7-4-1-1-2.5-1.7-4-1.7-0.6 0-1.2 0.1-1.7 0.3 0-3.4-3-6.1-6.5-6.1zm-3.3 24.4v-4.7c0-0.3-0.3-0.6-0.6-0.6s-0.6 0.3-0.6 0.6v2.8h-2.7c0-0.1-0.1-0.2-0.1-0.2v-2.2c0-0.8 0.1-1.5 0.4-2.2 0.2-0.4 0.4-0.8 0.7-1.2l0.6-0.6 2.2-2.2c2.1 1.1 4.6 1.1 6.6 0l2.2 2.2 0.6 0.6c0.3 0.4 0.5 0.8 0.7 1.2 0.3 0.7 0.4 1.4 0.4 2.2v2.2c0 0.1 0 0.2-0.1 0.2h-2.7v-2.8c0-0.3-0.3-0.6-0.6-0.6s-0.6 0.3-0.6 0.6v4.7zm-1.8-17.2c0-2.8 2.3-5.1 5.1-5.1s5.1 2.3 5.1 5.1c-0.1 6.7-10.2 6.7-10.2 0zm16 17.2h-3c0.4-0.1 0.7-0.4 0.9-0.7 0.3-0.4 0.5-1 0.5-1.5v-2.2c0-0.9-0.1-1.8-0.4-2.7 0.8 0 1.6-0.2 2.3-0.6l1.6 1.6c0.4 0.4 0.7 0.9 0.9 1.3 0.2 0.5 0.3 1 0.3 1.6v1.6h-1.8v-1.9c0-0.3-0.3-0.6-0.6-0.6s-0.6 0.3-0.6 0.6v3.5zm-3.9-16c0.2-0.1 0.4-0.2 0.6-0.2 0.3-0.1 0.7-0.2 1.1-0.2 1 0 1.9 0.4 2.6 1.1s1.1 1.6 1.1 2.6-0.4 1.9-1.1 2.6-1.6 1.1-2.6 1.1c-0.3 0-0.5 0-0.7-0.1-0.2 0-0.3-0.1-0.4-0.1l-0.6-0.6-2-2c0.9-0.9 1.6-2.1 1.9-3.4l0.1-0.3v-0.5zm-18 16v-3.4c0-0.3-0.3-0.6-0.6-0.6s-0.6 0.3-0.6 0.6v1.9h-1.9v-1.6c0-0.6 0.1-1.1 0.3-1.6s0.5-0.9 0.9-1.3l1.6-1.6c0.7 0.3 1.5 0.5 2.3 0.6-0.3 0.8-0.4 1.7-0.4 2.7v2.2c0 0.5 0.2 1.1 0.5 1.5 0.2 0.3 0.6 0.6 1 0.7h-3.1zm3.9-16v0.1l0.1 0.3c0.3 1.3 1 2.5 1.9 3.4l-2 2-0.6 0.6c-0.1 0-0.3 0.1-0.4 0.1-0.2 0-0.5 0.1-0.7 0.1-1 0-1.9-0.4-2.6-1.1s-1.1-1.6-1.1-2.6 0.4-1.9 1.1-2.6 1.6-1.1 2.6-1.1c0.4 0 0.8 0.1 1.1 0.2 0.2 0.4 0.4 0.5 0.6 0.6z" fill="#7ab9ef"/></g></switch>
</svg>
