<svg width="648.47" height="598.93" version="1.1" viewBox="0 0 648.46802 598.92932" xml:space="preserve" xmlns="http://www.w3.org/2000/svg"><defs><clipPath id="clipPath48"><path d="m0 449.2h486.35v-449.2h-486.35z"/></clipPath></defs><g transform="matrix(1.3333 0 0 -1.3333 0 598.93)"><g clip-path="url(#clipPath48)"><g transform="translate(472.35 14)"><path d="m0 0h-458.35v21.12h458.35zm-424.37 56.241h390.39v-21.121h-390.39zm78.724 37.491v115.49c8.153 2.226 14.163 9.696 14.163 18.545v5.233h12.851v-5.233c0-8.849 6.01-16.319 14.162-18.545v-115.49c-8.152-2.225-14.162-9.696-14.162-18.544v-4.947h-12.851v4.947c0 8.848-6.01 16.319-14.163 18.544m-54.866-18.544c0 2.878 2.342 5.22 5.22 5.22h1.942c3.867 0 7 3.134 7 7v128.14c0 3.866-3.133 7-7 7h-1.942c-2.878 0-5.22 2.342-5.22 5.22v4.62h55.029v-4.62c0-2.878-2.342-5.22-5.22-5.22h-1.943c-3.866 0-7-3.134-7-7v-128.14c0-3.866 3.134-7 7-7h1.943c2.878 0 5.22-2.342 5.22-5.22v-4.621h-55.029zm-23.858 192.93h390.39v-21.121h-390.39zm-21.505 15.524c-0.298 1.012 2e-3 1.814 0.839 2.352l213.11 134.4c0.823 0.519 1.774 0.794 2.747 0.794 0.974 0 1.923-0.274 2.747-0.793l212.99-134.21c1.17-0.723 1.168-1.745 0.96-2.475-0.207-0.73-0.743-1.6-2.118-1.6h-429.24c-1.055 0-1.739 0.513-2.036 1.524m284.99-203.24h1.943c2.878 0 5.219-2.342 5.219-5.22v-4.621h-55.028v4.621c0 2.878 2.342 5.22 5.22 5.22h1.942c3.866 0 7 3.134 7 7v128.14c0 3.866-3.134 7-7 7h-1.942c-2.878 0-5.22 2.342-5.22 5.22v4.62h55.028v-4.62c0-2.878-2.341-5.22-5.219-5.22h-1.943c-3.866 0-7-3.134-7-7v-128.14c0-3.866 3.134-7 7-7m-88.88 13.324v115.49c8.153 2.226 14.162 9.696 14.162 18.545v5.233h12.852v-5.233c0-8.849 6.01-16.319 14.162-18.545v-115.49c-8.152-2.225-14.162-9.696-14.162-18.544v-4.947h-12.852v4.947c0 8.848-6.009 16.319-14.162 18.544m-47.704 128.82h-1.942c-2.878 0-5.22 2.342-5.22 5.22v4.62h55.028v-4.62c0-2.878-2.341-5.22-5.219-5.22h-1.943c-3.866 0-7-3.134-7-7v-128.14c0-3.866 3.134-7 7-7h1.943c2.878 0 5.219-2.342 5.219-5.22v-4.621h-55.028v4.621c0 2.878 2.342 5.22 5.22 5.22h1.942c3.866 0 7 3.134 7 7v128.14c0 3.866-3.134 7-7 7m184.76-13.325v-115.49c-8.152-2.225-14.162-9.696-14.162-18.544v-4.947h-12.852v4.947c0 8.848-6.009 16.319-14.162 18.544v115.49c8.153 2.226 14.162 9.696 14.162 18.545v5.233h12.852v-5.233c0-8.849 6.01-16.319 14.162-18.545m54.867 18.545c0-2.878-2.342-5.22-5.221-5.22h-1.942c-3.866 0-7-3.134-7-7v-128.14c0-3.866 3.134-7 7-7h1.942c2.879 0 5.221-2.342 5.221-5.22v-4.621h-55.029v4.621c0 2.878 2.342 5.22 5.22 5.22h1.942c3.866 0 7 3.134 7 7v128.14c0 3.866-3.134 7-7 7h-1.942c-2.878 0-5.22 2.342-5.22 5.22v4.62h55.029zm64.841-192.65h-26.982v28.121c0 3.866-3.134 7-7 7h-16.859v4.947c0 8.848-6.011 16.319-14.163 18.544v115.49c8.152 2.226 14.163 9.696 14.163 18.545v5.233h16.859c3.866 0 7 3.134 7 7v28.121h5.388c7.321 0 13.583 4.731 15.585 11.772 2.001 7.041-0.836 14.358-7.012 18.179l-212.94 134.18c-3.061 1.929-6.592 2.949-10.211 2.949-3.621 0-7.154-1.021-10.217-2.953l-213.16-134.44c-6.073-3.903-8.787-11.18-6.754-18.106 2.035-6.927 8.251-11.58 15.47-11.58h5.469v-28.121c0-3.866 3.134-7 7-7h16.858v-5.233c0-8.849 6.01-16.319 14.162-18.545v-115.49c-8.152-2.225-14.162-9.696-14.162-18.544v-4.947h-16.858c-3.866 0-7-3.134-7-7v-28.121h-26.984c-3.866 0-7-3.134-7-7v-35.12c0-3.866 3.134-7 7-7h472.35c3.866 0 7 3.134 7 7v35.12c0 3.866-3.134 7-7 7" /></g><g transform="translate(243.18 372.67)"><path d="m0 0c10.718 0 19.437-8.72 19.437-19.437 0-10.718-8.719-19.438-19.437-19.438s-19.437 8.72-19.437 19.438c0 10.717 8.719 19.437 19.437 19.437m0-52.875c18.437 0 33.437 15 33.437 33.438 0 18.437-15 33.437-33.437 33.437s-33.438-15-33.438-33.437c0-18.438 15.001-33.438 33.438-33.438" /></g></g></g></svg>
