<svg width="18" height="11.575" data-name="Группа 1" version="1.1" viewBox="0 0 17.999616 11.575003" xmlns="http://www.w3.org/2000/svg">
 <path d="m16.709 5.7875q-1.5259-2.3692-3.8249-3.5438 0.61238 1.0441 0.61238 2.2588 0 1.8572-1.3201 3.1774-1.3201 1.3201-3.1774 1.3201-1.8572 0-3.1774-1.3201-1.3201-1.3201-1.3201-3.1774 0-1.2147 0.61238-2.2588-2.2989 1.1746-3.8249 3.5438 1.3352 2.058 3.348 3.2777 2.0128 1.2197 4.362 1.2197 2.3491 0 4.362-1.2197 2.0128-1.2198 3.348-3.2777zm-7.2281-3.855q0-0.20079-0.14055-0.34133-0.14055-0.14054-0.34133-0.14054-1.2549 0-2.1534 0.89849-0.89849 0.89851-0.89849 2.1534 0 0.20079 0.14055 0.34133t0.34133 0.14054q0.20078 0 0.34133-0.14054 0.14055-0.14054 0.14055-0.34133 0-0.86335 0.61238-1.4757 0.61238-0.6124 1.4757-0.6124 0.20078 0 0.34133-0.14054 0.14055-0.14054 0.14055-0.34132zm8.5131 3.855q0 0.34132-0.20078 0.69269-1.4055 2.309-3.7797 3.6994-2.3742 1.3904-5.0145 1.3904-2.6403 0-5.0145-1.3954-2.3742-1.3954-3.7797-3.6944-0.20078-0.35138-0.20078-0.69269 0-0.34133 0.20078-0.69269 1.4055-2.2989 3.7797-3.6944 2.3742-1.3954 5.0145-1.3954 2.6403 0 5.0145 1.3954 2.3742 1.3954 3.7797 3.6944 0.20078 0.35136 0.20078 0.69269z" fill="#555" stroke="#fff" stroke-width=".010039"/>
</svg>
