<svg width="20" height="12.199" version="1.1" viewBox="0 0 20 12.199219" xml:space="preserve" xmlns="http://www.w3.org/2000/svg"><style type="text/css">
	.st0{stroke:#42C134;stroke-miterlimit:10;}
	.st1{fill:#151827;}
	.st2{fill:#FFFFFF;}
</style><text class="st0" x="681" y="378.19922" font-family="MyriadPro-Regular" font-size="12px" stroke="#42c134" stroke-miterlimit="10">42c134</text>
<g transform="translate(-2 -5.8008)"><path d="m12 5.8008c-6.7 0-9.9 5.6992-10 5.6992v0.40039c0 0.1 3.3 6.0996 10 6.0996 7.4 0 9.9-6.0992 10-6.1992v-0.20117c0-0.1-0.69922-1.5004-2.1992-2.9004-1.4-1.3-3.9008-2.8984-7.8008-2.8984zm5.0996 1.6992c2.8 1.3 4.0008 3.4996 4.3008 4.0996-0.6 1-3.1004 5.7012-9.4004 5.7012-5.6 0-8.5992-4.6-9.1992-5.5 0.4-0.7 1.6992-2.6 4.1992-4-0.3 0.7-0.5 1.4988-0.5 2.2988 0 3.1 2.4996 5.5996 5.5996 5.5996 3.1 0 5.5996-2.4996 5.5996-5.5996 0-0.9-0.19961-1.7996-0.59961-2.5996zm-5.0996 0.099609c1.4 0 2.5996 1.1996 2.5996 2.5996 0 1.4-1.1996 2.6016-2.5996 2.6016s-2.5992-1.1016-2.6992-2.6016c0-0.2 0.19844-0.39844 0.39844-0.39844 0.2 0 0.40039 0.19844 0.40039 0.39844 0 1.1 0.90039 1.9004 1.9004 1.9004s1.9004-0.69883 1.9004-1.7988c0-1.1-0.90039-1.9004-1.9004-1.9004-0.4 0-0.7 0.098828-1 0.29883l1 1.1016c0.1 0.1 0.1 0.4 0 0.5s-0.4 0.1-0.5 0l-1.3008-1.4004c-0.1-0.1-0.09961-0.20078-0.09961-0.30078s-3.9e-4 -0.19883 0.09961-0.29883c0.5-0.5 1.1008-0.70117 1.8008-0.70117z"/></g></svg>
