<svg width="31.4" height="32.6" version="1.1" viewBox="0 0 31.4 32.599998" xml:space="preserve" xmlns="http://www.w3.org/2000/svg" xmlns:xlink="http://www.w3.org/1999/xlink"><style type="text/css">
	.st0{stroke:#42C134;stroke-miterlimit:10;}
	.st1{fill:#7AB9EF;}
</style><switch transform="translate(-.7 -.5)"><g>
<path class="st1" d="m12.2 0.5c4.3 0 8 3.2 8.7 7.4 0.7-0.2 1.3-0.3 2.1-0.3 1.9 0 3.7 0.8 5 2.1s2 3 2 5c0 1.9-0.7 3.5-1.9 4.8l1.7 1.7c0.7 0.7 1.3 1.6 1.7 2.5s0.6 1.9 0.6 2.9v2.1c0 0.5-0.2 1.1-0.5 1.6s-0.9 0.8-1.5 0.9h-0.1-1.6v0.6c0 0.7-0.6 1.3-1.3 1.3h-20c-0.7 0-1.3-0.6-1.3-1.3v-1.1h-2.6-0.3c-0.7-0.1-1.2-0.5-1.6-1s-0.6-1.2-0.6-1.8v-2.7c0-1.3 0.2-2.6 0.7-3.7 0.5-1.5 1.2-2.5 2.2-3.4v-0.1l2.4-2.4v-0.1c-1.6-1.6-2.6-3.8-2.6-6.2 0-4.8 4-8.8 8.8-8.8zm13.5 29.9v-4.1c0-0.4 0.4-0.8 0.8-0.8s0.8 0.4 0.8 0.8v2.3h2.2v-2c0-0.7-0.1-1.4-0.4-1.9-0.3-0.6-0.6-1.1-1.1-1.7l-2-2c-0.9 0.4-1.9 0.7-2.9 0.7 0.4 1 0.5 2.1 0.5 3.3v2.7c0 0.6-0.2 1.3-0.6 1.8-0.3 0.4-0.7 0.7-1.2 0.9zm-4.8-19.7v0.1l-0.1 0.4c-0.4 1.6-1.2 3-2.3 4.2l-0.1 0.1 2.5 2.5c0.3 0.2 0.5 0.5 0.7 0.8 0.2 0.1 0.4 0.1 0.5 0.1 0.3 0.1 0.6 0.1 0.9 0.1 1.2 0 2.3-0.5 3.1-1.3s1.3-1.9 1.3-3.1-0.5-2.3-1.3-3.1-1.9-1.3-3.1-1.3c-0.5 0-0.9 0.1-1.3 0.2-0.3 0.1-0.6 0.2-0.8 0.3zm-14.2 17.2v-3.4c0-0.4 0.4-0.8 0.8-0.8s0.8 0.3 0.8 0.8v5.9h7.9v-5.8c0-0.4 0.3-0.8 0.8-0.8s0.8 0.3 0.8 0.8v3.4h3.2c0-0.1 0.1-0.2 0.1-0.3v-2.7c0-1-0.2-1.9-0.5-2.7-0.2-0.5-0.5-1-0.8-1.4-0.2-0.3-0.4-0.5-0.7-0.8l-2.7-2.8c-1.2 0.6-2.6 1-4.1 1s-2.8-0.4-4.1-1l-2.7 2.7-0.1 0.1c-0.7 0.7-1.2 1.5-1.6 2.3-0.3 0.8-0.5 1.7-0.5 2.7v2.7c0 0.1 0 0.2 0.1 0.3h3.3zm5.5-24.8c-3.4 0-6.2 2.8-6.2 6.2 0 3.5 2.8 6.2 6.2 6.2s6.2-2.7 6.2-6.2c0-3.4-2.7-6.2-6.2-6.2z" fill="#7ab9ef"/></g></switch>
</svg>