<svg version="1.1" viewBox="0 0 16 14.1" xml:space="preserve" xmlns="http://www.w3.org/2000/svg" xmlns:xlink="http://www.w3.org/1999/xlink"><style type="text/css">
	.st0{stroke:#42C134;stroke-miterlimit:10;}
	.st1{fill:#9AC9F3;}
</style>
<path class="st1" d="m3.4 3c0 0.4-0.2 0.8-0.6 1v11.7c0 0.1 0 0.1-0.1 0.2s-0.1 0.1-0.2 0.1h-0.6c-0.1 0-0.1 0-0.2-0.1s-0.1-0.1-0.1-0.2v-11.7c-0.4-0.3-0.6-0.6-0.6-1 0-0.3 0.1-0.6 0.3-0.8s0.5-0.3 0.8-0.3 0.7 0 0.9 0.2c0.3 0.3 0.4 0.5 0.4 0.9zm13.6 0.6v7.1c0 0.2 0 0.3-0.1 0.4s-0.2 0.2-0.4 0.3c-1.3 0.7-2.5 1.1-3.4 1.1-0.4 0-0.8-0.1-1.1-0.2-0.4-0.1-0.7-0.3-1-0.4-0.3-0.2-0.6-0.3-1.1-0.4s-0.9-0.5-1.3-0.5c-1.2 0-2.6 0.5-4.3 1.4-0.1 0.1-0.2 0.1-0.3 0.1-0.2 0-0.3-0.1-0.4-0.2s-0.2-0.3-0.2-0.4v-6.9c0-0.2 0.1-0.4 0.3-0.5 0.1-0.1 0.3-0.2 0.7-0.4 1.4-0.8 2.7-1.1 3.9-1.1 0.7 0 1.3 0.1 1.9 0.3s1.2 0.5 2 0.8c0.2 0.1 0.5 0.2 0.8 0.2s0.7-0.1 1.1-0.2 0.7-0.3 1-0.4c0.3-0.2 0.6-0.3 0.8-0.4 0.3-0.3 0.4-0.3 0.5-0.3 0.2 0 0.3 0.1 0.4 0.2s0.2 0.2 0.2 0.4z" fill="#9ac9f3"/>
</svg>
