<svg width="798.84" height="466.9" version="1.1" viewBox="0 0 798.84399 466.90134" xml:space="preserve" xmlns="http://www.w3.org/2000/svg"><defs><clipPath id="clipPath268"><path d="M 0,350.176 H 599.133 V 0 H 0 Z"/></clipPath></defs><g transform="matrix(1.3333 0 0 -1.3333 0 466.9)"><g clip-path="url(#clipPath268)"><g transform="translate(148.46 114.44)"><path d="m0 0c-0.825 0-1.664 0.146-2.481 0.457l-76.956 29.188c-3.253 1.234-5.107 4.671-4.349 8.068l33.875 151.92c0.407 1.825 1.527 3.412 3.111 4.406 1.585 0.994 3.503 1.312 5.321 0.885l43.847-10.301c4.564-1.051 9.356-0.354 13.46 1.965l64.767 36.619c9.172 5.184 20.353 5.642 29.916 1.227l17.484-8.074c2.363-1.091 3.927-3.405 4.057-6.005s-1.194-5.058-3.437-6.38l-40.589-23.925c-2.261-1.333-3.889-3.462-4.585-5.994l-17.362-63.269c-1.835-6.688 1.679-13.565 8.174-15.997l10.206-3.821c3.565-1.336 7.393-1.111 10.778 0.637s5.786 4.737 6.764 8.418l12.659 47.692c1.718 6.472 6.101 11.974 12.023 15.098l25.831 13.62c3.418 1.802 7.652 0.493 9.457-2.928 1.802-3.42 0.492-7.653-2.928-9.457l-25.83-13.619c-2.474-1.304-4.304-3.603-5.022-6.306l-12.659-47.691c-1.975-7.442-7.032-13.736-13.873-17.267-6.842-3.53-14.899-4.007-22.109-1.309l-10.206 3.822c-13.323 4.988-20.53 19.094-16.766 32.813l17.363 63.27c1.663 6.06 5.562 11.156 10.976 14.348l29.079 17.141-5.354 2.472c-5.485 2.533-11.9 2.269-17.158-0.703l-64.766-36.62c-7.156-4.044-15.509-5.255-23.521-3.413l-36.985 8.689-31.014-139.09 71.285-27.037c3.615-1.371 5.434-5.412 4.063-9.027-1.061-2.798-3.722-4.52-6.546-4.52" fill="#222"/></g><g transform="translate(429.91 107.36)"><path d="m0 0c-1.172 0-2.359 0.295-3.451 0.915-3.361 1.91-4.538 6.183-2.628 9.544l17.544 30.876-84.561 48.253c-3.357 1.916-4.526 6.191-2.61 9.55 1.917 3.356 6.191 4.524 9.55 2.61l90.629-51.717c3.353-1.914 4.523-6.181 2.616-9.538l-20.996-36.95c-1.289-2.27-3.656-3.543-6.093-3.543" fill="#222"/></g><g transform="translate(450.77 143.71)"><path d="m0 0c-1.172 0-2.359 0.295-3.451 0.915-3.361 1.91-4.538 6.184-2.628 9.544l13.181 23.194c2.418 4.257 0.939 9.715-3.297 12.168l-153.85 89.09c-3.346 1.938-4.487 6.22-2.55 9.566 1.938 3.345 6.22 4.488 9.566 2.549l153.84-89.089c10.863-6.291 14.655-20.287 8.453-31.2l-13.18-23.194c-1.289-2.27-3.656-3.543-6.093-3.543" fill="#222"/></g><g transform="translate(408.86 70.354)"><path d="m0 0c-1.172 0-2.359 0.295-3.451 0.915-3.361 1.91-4.538 6.183-2.628 9.544l17.544 30.875-84.561 48.254c-3.357 1.916-4.526 6.191-2.61 9.55 1.916 3.356 6.19 4.524 9.55 2.61l90.629-51.717c3.353-1.914 4.523-6.181 2.616-9.538l-20.996-36.95c-1.289-2.27-3.656-3.543-6.093-3.543" fill="#222"/></g><g transform="translate(381.89 39.274)"><path d="m0 0c-3.966 0-7.881 1.038-11.412 3.071l-53.605 30.864c-3.349 1.928-4.502 6.209-2.573 9.559 1.928 3.349 6.208 4.503 9.56 2.573l53.604-30.863c2.08-1.198 4.503-1.511 6.816-0.879 2.316 0.63 4.245 2.127 5.431 4.214l9.619 16.929-84.56 48.253c-3.358 1.916-4.526 6.191-2.61 9.55 1.917 3.357 6.19 4.525 9.549 2.61l90.629-51.717c3.354-1.914 4.524-6.182 2.616-9.538l-13.071-23.003c-3.04-5.352-7.986-9.189-13.925-10.807-2.006-0.545-4.045-0.816-6.068-0.816" fill="#222"/></g><g transform="translate(248.51 24.669)"><path d="m0 0 16.614-9.44c1.436-0.816 2.991-1.229 4.624-1.229 3.379 0 6.513 1.821 8.179 4.753l32.898 57.895-24.778 14.08zm21.238-24.669c-4.03 0-8.02 1.057-11.54 3.057l-22.7 12.898c-1.614 0.917-2.798 2.438-3.291 4.228-0.492 1.79-0.254 3.702 0.663 5.316l44.453 78.231c1.909 3.361 6.183 4.538 9.544 2.627l36.95-20.996c1.615-0.917 2.798-2.437 3.291-4.227s0.254-3.702-0.663-5.317l-36.356-63.98c-4.149-7.302-11.946-11.837-20.351-11.837" fill="#222"/></g><g transform="translate(211.5 45.713)"><path d="m0 0 24.778-14.08 37.537 66.059-17.388 9.88c-1.299 0.738-2.707 1.113-4.185 1.113-3.059 0-5.896-1.649-7.404-4.303zm27.399-30.625c-1.171 0-2.359 0.295-3.451 0.915l-36.95 20.996c-1.614 0.917-2.798 2.438-3.291 4.228-0.492 1.79-0.254 3.702 0.663 5.316l36.796 64.755c3.99 7.023 11.491 11.387 19.576 11.387 3.877 0 7.716-1.017 11.101-2.941l23.474-13.339c1.615-0.917 2.798-2.437 3.291-4.227s0.254-3.702-0.663-5.317l-44.453-78.23c-1.289-2.27-3.656-3.543-6.093-3.543" fill="#222"/></g><g transform="translate(174.35 66.843)"><path d="m0 0 24.778-14.08 28.635 50.393-17.388 9.881c-1.298 0.739-2.707 1.113-4.184 1.113-3.06 0-5.897-1.65-7.405-4.304zm27.406-30.624c-1.202 0-2.394 0.31-3.458 0.914l-36.95 20.996c-3.361 1.91-4.538 6.183-2.628 9.544l27.894 49.09c3.991 7.023 11.492 11.387 19.577 11.387 3.877 0 7.716-1.017 11.1-2.941l23.474-13.339c3.361-1.91 4.538-6.182 2.628-9.544l-35.551-62.565c-0.917-1.614-2.437-2.798-4.227-3.291-0.611-0.168-1.236-0.251-1.859-0.251" fill="#222"/></g><g transform="translate(161.75 121.93)"><path d="m0 0c-3.06 0-5.896-1.648-7.404-4.303l-12.226-21.514c-2.557-4.502-0.976-10.246 3.525-12.803l16.615-9.442 21.063 37.069-17.388 9.881c-1.299 0.737-2.707 1.112-4.185 1.112m3.138-64.605c-1.202 0-2.395 0.309-3.458 0.914l-22.701 12.899c-11.213 6.371-15.152 20.678-8.781 31.891l12.226 21.514c3.99 7.024 11.491 11.387 19.576 11.387 3.877 0 7.716-1.017 11.101-2.94l23.474-13.339c3.362-1.91 4.538-6.183 2.628-9.544l-27.979-49.24c-0.917-1.615-2.438-2.798-4.228-3.291-0.61-0.168-1.235-0.251-1.858-0.251" fill="#222"/></g><g transform="translate(437.06 119.94)"><path d="m0 0c-3.211 0-6.104 2.224-6.827 5.488-0.837 3.775 1.546 7.512 5.32 8.348l84.101 18.631-29.951 139.51-64.228-12.29c-7.827-1.497-15.924-0.098-22.796 3.939l-82.12 48.249c-5.691 3.344-12.82 3.446-18.604 0.267l-25.065-13.778c-3.387-1.86-7.644-0.625-9.507 2.763-1.862 3.389-0.625 7.644 2.763 9.507l25.065 13.777c10.088 5.542 22.517 5.366 32.44-0.466l82.12-48.249c3.94-2.314 8.586-3.116 13.073-2.259l70.95 13.576c3.739 0.718 7.362-1.687 8.16-5.406l32.847-153c0.808-3.762-1.572-7.471-5.33-8.303l-90.89-20.135c-0.51-0.113-1.019-0.168-1.521-0.168" fill="#222"/></g><g transform="translate(497.28 322.37)"><path d="m0 0 42.009-195.67 44.533 9.562-42.009 195.67zm36.634-210.98c-1.338 0-2.659 0.383-3.801 1.121-1.559 1.009-2.653 2.594-3.043 4.409l-44.947 209.36c-0.812 3.781 1.594 7.502 5.374 8.314l58.221 12.5c1.817 0.39 3.71 0.044 5.271-0.965 1.559-1.009 2.653-2.595 3.043-4.409l44.947-209.36c0.812-3.78-1.595-7.502-5.374-8.313l-58.221-12.5c-0.488-0.105-0.98-0.156-1.47-0.156" fill="#222"/></g><g transform="translate(15.314 139.19)"><path d="m0 0 44.533-9.562 42.009 195.67-44.533 9.562zm49.908-24.875c-0.49 0-0.982 0.052-1.47 0.156l-58.221 12.5c-3.78 0.812-6.186 4.533-5.374 8.314l44.947 209.36c0.39 1.815 1.484 3.4 3.043 4.409 1.56 1.007 3.453 1.356 5.271 0.965l58.221-12.5c3.779-0.811 6.186-4.533 5.374-8.313l-44.947-209.36c-0.39-1.814-1.484-3.4-3.043-4.409-1.142-0.737-2.463-1.121-3.801-1.121" fill="#222"/></g></g></g></svg>
