<svg width="519.53" height="677.4" version="1.1" viewBox="0 0 519.53064 677.39734" xml:space="preserve" xmlns="http://www.w3.org/2000/svg"><defs><clipPath id="clipPath26"><path d="M 0,508.048 H 389.648 V 0 H 0 Z"/></clipPath></defs><g transform="matrix(1.3333 0 0 -1.3333 0 677.4)"><g clip-path="url(#clipPath26)"><g transform="translate(375.65 34.429)"><path d="m0 0c0-11.265-9.164-20.429-20.429-20.429h-320.79c-11.264 0-20.428 9.164-20.428 20.429v70.479c0 54.394 35.559 100.64 84.652 116.71 0.01-0.032 0.016-0.065 0.025-0.097 0.115-0.357 11.613-36.114 28.523-74.117 23.177-52.091 45.2-83.562 65.453-93.539 0.056-0.028 0.113-0.046 0.169-0.072 0.104-0.048 0.209-0.09 0.314-0.133 0.183-0.074 0.367-0.139 0.553-0.197 0.096-0.03 0.192-0.059 0.29-0.084 0.212-0.056 0.425-0.099 0.639-0.134 0.08-0.013 0.157-0.03 0.237-0.041 0.296-0.038 0.592-0.062 0.887-0.062 2e-3 0 3e-3 1e-3 5e-3 1e-3s3e-3 -1e-3 5e-3 -1e-3c0.294 0 0.59 0.024 0.886 0.062 0.08 0.011 0.158 0.028 0.238 0.041 0.213 0.035 0.426 0.078 0.638 0.134 0.099 0.025 0.195 0.054 0.29 0.084 0.186 0.058 0.37 0.123 0.553 0.197 0.106 0.043 0.211 0.085 0.314 0.133 0.056 0.026 0.114 0.044 0.169 0.072 20.253 9.977 42.276 41.448 65.454 93.539 15.858 35.639 26.956 69.302 28.37 73.646 48.226-16.565 82.984-62.368 82.984-116.14zm-277.56 247.82c-13.78 0-24.991 8.908-24.991 19.857 0 6.822 4.376 13.098 11.705 16.791 2.22 1.118 3.68 3.329 3.837 5.81 0.156 2.48-1.013 4.857-3.074 6.246-5.652 3.81-8.895 9.33-8.895 15.145 0 6.607 4.171 12.776 11.159 16.503 2.137 1.14 3.534 3.305 3.691 5.723 0.157 2.417-0.947 4.745-2.92 6.152-5.311 3.789-8.357 9.172-8.357 14.77 0 6.408 3.973 12.471 10.629 16.22 2.057 1.158 3.392 3.276 3.549 5.632 0.158 2.356-0.883 4.633-2.768 6.055-5.054 3.812-7.837 8.924-7.837 14.394 0 10.949 11.211 19.858 24.991 19.858 1.308 0 2.629-0.083 3.928-0.248 2.843-0.357 5.637 1.06 7.017 3.583 6.549 11.96 15.507 21.384 26.625 28.012 11.868 7.073 30.215 11.297 49.081 11.297 36.555 0 67.01-14.677 81.468-39.259 1.189-2.02 3.309-3.312 5.649-3.441 13.038-0.718 23.251-9.417 23.251-19.802 0-5.814-3.243-11.334-8.895-15.144-2.061-1.39-3.23-3.767-3.074-6.247 0.157-2.48 1.617-4.691 3.837-5.81 7.329-3.692 11.705-9.969 11.705-16.791 0-5.598-3.046-10.981-8.357-14.771-1.972-1.407-3.077-3.734-2.919-6.152 0.157-2.418 1.552-4.582 3.69-5.723 6.987-3.726 11.158-9.896 11.158-16.502 0-5.471-2.783-10.582-7.836-14.394-1.886-1.422-2.927-3.699-2.769-6.055 0.157-2.356 1.492-4.474 3.55-5.633 6.655-3.748 10.628-9.811 10.628-16.219 0-10.949-11.211-19.857-24.991-19.857s-24.992 8.908-24.992 19.857c0 5.47 2.783 10.582 7.837 14.393 1.886 1.423 2.927 3.7 2.769 6.055-0.157 2.357-1.492 4.475-3.549 5.634-6.656 3.747-10.629 9.81-10.629 16.219 0 5.598 3.046 10.982 8.356 14.771 1.973 1.407 3.077 3.734 2.92 6.152s-1.553 4.582-3.69 5.723c-6.988 3.727-11.159 9.896-11.159 16.502 0 5.814 3.242 11.334 8.894 15.145 2.061 1.389 3.239 3.761 3.083 6.241-0.157 2.48-1.607 4.687-3.827 5.805-0.185 0.097-0.458 0.256-0.817 0.462-13.462 7.691-26.854 11.591-39.803 11.591-3.899 0-7.778-0.36-11.53-1.07-8.274-1.566-15.266-5.254-22.029-8.821-8.206-4.328-15.957-8.417-25.494-8.417-1.504 0-3.05 0.103-4.595 0.304-3.476 0.453-6.493 1.192-9.41 1.905-4.219 1.033-8.204 2.008-12.858 2.008-3.794 0-7.536-0.671-11.443-2.051-2.129-0.753-3.764-2.486-4.392-4.656-0.627-2.169-0.17-4.508 1.229-6.281 2.488-3.152 3.802-6.773 3.802-10.474 0-6.606-4.172-12.775-11.159-16.503-2.138-1.14-3.533-3.305-3.691-5.722-0.157-2.418 0.948-4.745 2.92-6.152 5.311-3.789 8.357-9.172 8.357-14.771 0-6.822-4.376-13.099-11.705-16.792-2.22-1.118-3.68-3.329-3.837-5.809-0.156-2.48 1.013-4.858 3.074-6.247 5.653-3.81 8.896-9.33 8.896-15.144 0-10.949-11.212-19.857-24.993-19.857m166.63-97.488c-0.609 0.424-1.293 0.762-2.046 0.98-25.959 7.521-41.268 17.068-49.656 23.905 20.139 4.304 36.489 14.329 42.011 18.011 8.27-0.143 16.345-1.11 24.143-2.819-3.245-10.055-8.236-24.241-14.452-40.077m-30.88-67.556-15.444 47.638 6.953 20.409c8.853-4.515 19.838-9.021 33.429-12.958 0.283-0.082 0.568-0.137 0.851-0.183-7.512-18.21-16.343-37.625-25.789-54.906m-101.45 55.089c13.591 3.937 24.576 8.443 33.429 12.958l6.683-19.62-14.44-49.175c-9.61 17.488-18.601 37.224-26.23 55.717 0.186 0.038 0.372 0.066 0.558 0.12m2.008 55.359c5.534-4.093 21.31-14.499 43.201-18.454-8.502-6.803-23.713-16.102-49.105-23.458-0.65-0.188-1.249-0.467-1.792-0.811-6.261 15.957-11.276 30.228-14.507 40.269 7.195 1.467 14.615 2.31 22.203 2.454m71.608-55.756h-20.848l-6.975 20.473c8.886 5.808 14.345 11.096 17.398 14.566 3.054-3.469 8.514-8.758 17.4-14.566zm-52.406 93.962c11.915-11.992 25.828-18.065 41.503-18.065 15.672 0 29.387 5.481 40.939 16.273l7.169-27.314c-8.566-5.138-26.075-14.098-45.19-15.03-0.043-2e-3 -0.086-5e-3 -0.13-8e-3 -1.021-0.048-2.045-0.079-3.074-0.079-0.239 0-0.473 0.01-0.711 0.013-0.773 0.144-1.556 0.16-2.319 0.047-21.281 0.81-38.08 9.939-45.839 15.005zm-17.763 63.978c3.097 4.913 4.812 10.491 4.812 16.261 0 7.168-2.571 14.018-7.249 19.696 6.894 6.213 10.822 14.528 10.822 23.452 0 3.21-0.513 6.364-1.513 9.389 2.409-0.202 4.874-0.806 7.848-1.534 3.133-0.766 6.684-1.635 10.927-2.189 2.143-0.279 4.298-0.421 6.405-0.421 13.003 0 23.109 5.331 32.026 10.034 6.117 3.226 11.894 6.274 18.099 7.448 2.898 0.548 5.9 0.826 8.928 0.826 10.224 0 19.21-3.073 25.422-5.895-4.495-5.595-6.952-12.294-6.952-19.349 0-8.925 3.927-17.24 10.822-23.452-4.678-5.678-7.249-12.528-7.249-19.696 0-5.811 1.693-11.386 4.787-16.293-0.142-0.332-0.267-0.674-0.358-1.036-7.515-29.782-23.733-65.284-58.311-65.284-33.2 0-50.543 36.97-59.245 67.984-6e-3 0.02-0.014 0.039-0.021 0.059m59.903-261.67c-9.263 5.839-18.789 17.381-27.994 31.847 0.134 0.295 0.256 0.599 0.35 0.919l16.727 56.961h21.104l18.443-56.886c-9.401-14.931-19.153-26.868-28.63-32.841m60.664 173.46-9.279 35.354c2.82 4.054 5.445 8.508 7.866 13.35 5.52-12.883 19.823-22.086 36.558-22.086 21.5 0 38.991 15.188 38.991 33.857 0 8.712-3.788 16.905-10.435 23.091 4.428 5.591 6.862 12.275 6.862 19.21 0 8.925-3.928 17.24-10.821 23.452 4.678 5.677 7.249 12.528 7.249 19.696 0 8.992-4.149 17.529-11.235 23.788 4.944 5.761 7.662 12.786 7.662 20.204 0 16.713-14.104 30.805-32.738 33.417-17.621 27.048-51.558 43.085-91.63 43.085-21.598 0-42.1-4.838-56.249-13.272-12.04-7.177-21.935-17.049-29.462-29.382-0.314 6e-3 -0.627 0.01-0.94 0.01-21.5 0-38.991-15.189-38.991-33.858 0-6.934 2.434-13.618 6.863-19.21-6.647-6.186-10.436-14.379-10.436-23.091 0-7.168 2.571-14.018 7.249-19.695-6.894-6.213-10.822-14.528-10.822-23.453 0-7.419 2.718-14.443 7.663-20.204-7.087-6.259-11.236-14.797-11.236-23.788 0-18.669 17.491-33.857 38.991-33.857 17.449 0 32.255 10.002 37.217 23.75 2.312-4.542 4.772-8.753 7.37-12.634l-9.908-37.752c-73.572-2.123-132.77-62.629-132.77-136.7v-70.479c0-18.984 15.444-34.429 34.428-34.429h320.79c18.985 0 34.429 15.445 34.429 34.429v70.479c0 74.233-59.448 134.84-133.24 136.72"/></g></g></g></svg>
