<svg width="20.962" height="32.675" version="1.1" viewBox="0 0 20.9625 32.674999" xml:space="preserve" xmlns="http://www.w3.org/2000/svg" xmlns:xlink="http://www.w3.org/1999/xlink"><style type="text/css">
	.st0{stroke:#42C134;stroke-miterlimit:10;}
	.st1{fill:#FFFFFF;}
</style><switch transform="translate(-8.1625 -.5)"><g>
<path class="st1" d="m13.2 8.4h5.6l1.7-4-0.4-1.4h-8l-0.5 1.4zm8.1 1.7l7.6 7.6c0.3 0.3 0.3 0.8 0 1.1l-2.9 2.9c-0.3 0.3-0.8 0.3-1.1 0l-1.9-1.9 1 5.2c0.1 0.4-0.1 0.9-0.4 1.2l-6.6 6.6c-0.5 0.5-1.3 0.5-1.8 0l-6.7-6.7c-0.3-0.3-0.4-0.8-0.3-1.2l2.8-15.7-2-4.3c-0.1-0.3-0.1-0.7 0-1l1-2.6c0.2-0.5 0.7-0.8 1.2-0.8h9.7c0.6 0 1.1 0.4 1.2 0.9l1 2.5c0.1 0.3 0.1 0.7 0 0.9l-1.9 4.4zm-2.5-0.2h-5.4l-2.6 14.9 5.3 5.3 5.3-5.3zm3 2.8l0.8 4.5 2.8 2.9 1.9-1.9z" fill="#fff"/></g></switch>
</svg>
