<svg version="1.1" viewBox="0 0 20.4 23.9" xml:space="preserve" xmlns="http://www.w3.org/2000/svg"><style type="text/css">
	.st0{stroke:#42C134;stroke-miterlimit:10;}
	.st1{fill:#F1F5F8;}
	.st2{fill:#3695EF;}
</style><text class="st0" x="653" y="357" font-family="MyriadPro-Regular" font-size="12px" stroke="#42c134" stroke-miterlimit="10">42c134</text>
<g transform="translate(-16,-13)" fill="#3695ef"><path class="st2" d="m26.2 25.9c-1.2 0-2.2 1-2.2 2.2 0 0.7 0.3 1.4 0.9 1.8v2.2c0 0.7 0.6 1.3 1.3 1.3s1.3-0.6 1.3-1.3v-2.2c0.6-0.4 0.9-1.1 0.9-1.8 0-1.2-1-2.2-2.2-2.2zm0.7 3.4-0.2 0.1v2.7c0 0.2-0.2 0.4-0.4 0.4s-0.4-0.2-0.4-0.4v-2.7l-0.2-0.1c-0.4-0.2-0.7-0.7-0.7-1.1 0-0.7 0.6-1.3 1.3-1.3s1.3 0.6 1.3 1.3c0 0.4-0.3 0.8-0.7 1.1z"/><path class="st2" d="m34.2 22.3h-0.9v-2.4c0-3.8-3.2-6.9-7.1-6.9s-7.1 3.1-7.1 6.9v2.4h-0.9c-1.2 0-2.2 1-2.2 2.2v10.2c0 1.2 1 2.2 2.2 2.2h16c1.2 0 2.2-1 2.2-2.2v-10.1c0-1.3-1-2.3-2.2-2.3zm-14.2-2.4c0-3.3 2.8-6 6.2-6s6.2 2.7 6.2 6v2.4h-12.4zm15.6 14.9c0 0.7-0.6 1.3-1.3 1.3h-16c-0.7 0-1.3-0.6-1.3-1.3v-10.2c0-0.7 0.6-1.3 1.3-1.3h16c0.7 0 1.3 0.6 1.3 1.3z"/></g></svg>
