<svg xmlns="http://www.w3.org/2000/svg" width="18" height="22" viewBox="0 0 18 22"><path fill="#3593ea" d="M3.33 22h11.34c1.84 0 3.33-1.38 3.33-3.12v-6.97c0-1.42-.94-2.63-2.42-3.02v-2.2A5.8 5.8 0 0 0 9.67.99H8.33C5.04 1 2.28 3.57 2.28 6.7v2.2A3.15 3.15 0 0 0 0 11.9v6.97C0 20.62 1.49 22 3.33 22zm5-19.47h1.34c2.41 0 4.3 1.88 4.3 4.16v2.07H3.89V6.7c0-2.28 2.03-4.16 4.44-4.16zm6.34 17.94H3.33c-.95 0-1.72-.72-1.72-1.63v-6.92c0-.9.77-1.63 1.72-1.63h11.34c.95 0 1.72.73 1.72 1.63v6.92c0 .9-.77 1.63-1.72 1.63zm-5.94-1.9c.44 0 .81-.35.81-.77v-2.42c0-.42-.37-.76-.81-.76-.44 0-.81.34-.81.76v2.42c0 .42.37.76.81.76z"/></svg>