<svg version="1.1" viewBox="0 0 27.26 32" xml:space="preserve" xmlns="http://www.w3.org/2000/svg"><defs><clipPath id="clipPath18"><path d="m0 52h52v-52h-52z"/></clipPath></defs><g transform="matrix(1.3333 0 0 -1.3333 -21.333 52)"><g clip-path="url(#clipPath18)"><g transform="translate(26.888 22.742)"><path d="m0 0-0.221-0.128v-2.725c0-0.245-0.199-0.444-0.445-0.444-0.245 0-0.444 0.199-0.444 0.444v2.725l-0.221 0.128c-0.418 0.244-0.668 0.672-0.668 1.147 0 0.735 0.598 1.333 1.333 1.333 0.736 0 1.334-0.598 1.334-1.333 0-0.475-0.25-0.903-0.668-1.147m-0.666 3.37c-1.225 0-2.222-0.997-2.222-2.223 0-0.695 0.335-1.351 0.889-1.769v-2.231c0-0.735 0.598-1.333 1.333-1.333 0.736 0 1.334 0.598 1.334 1.333v2.231c0.554 0.418 0.889 1.074 0.889 1.769 0 1.226-0.997 2.223-2.223 2.223" fill="#0096f2"/></g><g transform="translate(35.556 17.222)"><path d="m0 0c0-0.735-0.598-1.333-1.333-1.333h-16c-0.736 0-1.334 0.598-1.334 1.333v10.222c0 0.736 0.598 1.334 1.334 1.334h16c0.735 0 1.333-0.598 1.333-1.334zm-15.556 14.889c0 3.308 2.791 6 6.223 6 3.431 0 6.222-2.692 6.222-6v-2.445h-12.445zm14.223-2.445h-0.889v2.445c0 3.798-3.191 6.889-7.111 6.889-3.921 0-7.111-3.091-7.111-6.889v-2.445h-0.889c-1.226 0-2.223-0.996-2.223-2.222v-10.222c0-1.225 0.997-2.222 2.223-2.222h16c1.225 0 2.222 0.997 2.222 2.222v10.222c0 1.226-0.997 2.222-2.222 2.222" fill="#0096f2"/></g></g></g></svg>
