<?xml version="1.0" encoding="utf-8"?>
<!-- Generator: Adobe Illustrator 21.0.0, SVG Export Plug-In . SVG Version: 6.00 Build 0)  -->
<svg version="1.1" id="Слой_1" xmlns="http://www.w3.org/2000/svg" xmlns:xlink="http://www.w3.org/1999/xlink" x="0px" y="0px"
	 viewBox="0 0 24 24" style="enable-background:new 0 0 24 24;" xml:space="preserve">
<style type="text/css">
	.st0{stroke:#42C134;stroke-miterlimit:10;}
	.st1{fill:#D72727;}
</style>
<text transform="matrix(1 0 0 1 683 384)" class="st0" style="font-family:'MyriadPro-Regular'; font-size:12px;">42c134</text>
<path class="st1" d="M2.5,11.1c-0.5,0.3-0.8,0.9-0.8,1.5c0,1,0.8,1.9,1.9,1.9h2.3h0.4H8c-0.3,1.5-0.6,4.3-0.6,5.3
	c0,1.9,1,2.3,1.9,2.3c0.6,0,1.5-0.2,1.5-1.9c0-2.3,3.3-7,4-7.9h0.7c0,0.2,0.1,0.3,0.2,0.4c0.2,0.2,0.5,0.3,0.8,0.3h4.5
	c0.6,0,1.1-0.5,1.1-1.1V3.1c0-0.6-0.5-1.1-1.1-1.1h-3.4c-0.6,0-1.1,0.5-1.2,1.1l-0.9,8.3h-0.9c-0.1,0-0.2,0.1-0.3,0.2
	c-0.2,0.2-4.2,5.8-4.2,8.5c0,0.8-0.2,1.1-0.8,1.1c-0.6,0-1.1-0.2-1.1-1.5c0-1.2,0.4-4.5,0.7-5.5c0-0.1,0-0.2-0.1-0.3
	c-0.1-0.1-0.2-0.2-0.3-0.2H6.2H5.8H3.6c-0.6,0-1.1-0.5-1.1-1.1c0-0.6,0.5-1.1,1.1-1.1h0.8c0.2,0,0.4-0.2,0.4-0.4
	c0-0.2-0.2-0.4-0.4-0.4H3.6c-0.6,0-1.1-0.5-1.1-1.1c0-0.6,0.5-1.1,1.1-1.1H4c0,0,0.1,0,0.1,0c0.1,0,0.2,0,0.3,0h0.4
	c0.2,0,0.4-0.2,0.4-0.4c0-0.2-0.2-0.4-0.4-0.4H4.3c-0.6,0-1.1-0.5-1.1-1.1s0.5-1.1,1.1-1.1h0.4c0,0,0.1,0,0.1,0c0,0,0.1,0,0.1,0h0.3
	c0.2,0,0.4-0.2,0.4-0.4S5.5,4.6,5.3,4.6c-0.5,0-0.9-0.4-0.9-0.9s0.5-0.9,1.1-0.9h3h1.1h1.3c1.4,0,2.7,0.2,3,0.3l0.8,0.4
	c0.2,0.1,0.4,0,0.5-0.2c0.1-0.2,0-0.4-0.2-0.5l-0.8-0.4C13.8,2.1,12.2,2,10.9,2H9.6H8.5h-3c-1,0-1.9,0.8-1.9,1.7
	c0,0.4,0.1,0.7,0.3,1C3.1,4.9,2.5,5.6,2.5,6.5c0,0.5,0.2,0.9,0.5,1.3C2.2,8,1.7,8.7,1.7,9.5C1.7,10.2,2,10.7,2.5,11.1z M17.1,3.2
	c0-0.2,0.2-0.4,0.5-0.4h3.4c0.2,0,0.4,0.2,0.4,0.4v8.7c0,0.2-0.2,0.4-0.4,0.4h-4.5c-0.1,0-0.2,0-0.2-0.1c-0.1-0.1-0.1-0.1-0.1-0.2
	L17.1,3.2z"/>
</svg>
