<?xml version="1.0" encoding="utf-8"?>
<!-- Generator: Adobe Illustrator 21.0.0, SVG Export Plug-In . SVG Version: 6.00 Build 0)  -->
<svg version="1.1" id="Слой_1" xmlns="http://www.w3.org/2000/svg" xmlns:xlink="http://www.w3.org/1999/xlink" x="0px" y="0px"
	 viewBox="0 0 64 64" style="enable-background:new 0 0 64 64;" xml:space="preserve">
<style type="text/css">
	.st0{fill:#222222;stroke:#FFFFFF;stroke-miterlimit:10;}
</style>
<g id="_x31_1">
	<g>
		<path class="st0" d="M17.1,41.1c-0.1,0-0.2,0-0.2,0l-7.3-2.8c-0.3-0.1-0.5-0.4-0.4-0.8L12.4,23c0-0.2,0.1-0.3,0.3-0.4
			c0.2-0.1,0.3-0.1,0.5-0.1l4.2,1c0.4,0.1,0.9,0,1.3-0.2l6.2-3.5c0.9-0.5,1.9-0.5,2.8-0.1l1.7,0.8c0.2,0.1,0.4,0.3,0.4,0.6
			c0,0.2-0.1,0.5-0.3,0.6L25.5,24c-0.2,0.1-0.4,0.3-0.4,0.6l-1.7,6c-0.2,0.6,0.2,1.3,0.8,1.5l1,0.4c0.3,0.1,0.7,0.1,1-0.1
			c0.3-0.2,0.6-0.5,0.6-0.8L28,27c0.2-0.6,0.6-1.1,1.1-1.4l2.5-1.3c0.3-0.2,0.7,0,0.9,0.3c0.2,0.3,0,0.7-0.3,0.9l-2.5,1.3
			c-0.2,0.1-0.4,0.3-0.5,0.6l-1.2,4.5c-0.2,0.7-0.7,1.3-1.3,1.6c-0.7,0.3-1.4,0.4-2.1,0.1l-1-0.4c-1.3-0.5-2-1.8-1.6-3.1l1.7-6
			c0.2-0.6,0.5-1.1,1-1.4l2.8-1.6l-0.5-0.2c-0.5-0.2-1.1-0.2-1.6,0.1l-6.2,3.5c-0.7,0.4-1.5,0.5-2.2,0.3L13.5,24l-3,13.2l6.8,2.6
			c0.3,0.1,0.5,0.5,0.4,0.9C17.6,40.9,17.4,41.1,17.1,41.1z"/>
	</g>
	<g>
		<path class="st0" d="M43.9,41.8c-0.1,0-0.2,0-0.3-0.1c-0.3-0.2-0.4-0.6-0.3-0.9l1.7-2.9l-8-4.6c-0.3-0.2-0.4-0.6-0.2-0.9
			c0.2-0.3,0.6-0.4,0.9-0.2l8.6,4.9c0.3,0.2,0.4,0.6,0.2,0.9l-2,3.5C44.4,41.6,44.1,41.8,43.9,41.8z"/>
	</g>
	<g>
		<path class="st0" d="M45.9,38.3c-0.1,0-0.2,0-0.3-0.1c-0.3-0.2-0.4-0.6-0.3-0.9l1.3-2.2c0.2-0.4,0.1-0.9-0.3-1.2l-14.6-8.5
			c-0.3-0.2-0.4-0.6-0.2-0.9c0.2-0.3,0.6-0.4,0.9-0.2l14.6,8.5c1,0.6,1.4,1.9,0.8,3L46.5,38C46.3,38.2,46.1,38.3,45.9,38.3z"/>
	</g>
	<g>
		<path class="st0" d="M41.9,45.3c-0.1,0-0.2,0-0.3-0.1c-0.3-0.2-0.4-0.6-0.3-0.9l1.7-2.9l-8-4.6c-0.3-0.2-0.4-0.6-0.2-0.9
			c0.2-0.3,0.6-0.4,0.9-0.2l8.6,4.9c0.3,0.2,0.4,0.6,0.2,0.9l-2,3.5C42.4,45.2,42.1,45.3,41.9,45.3z"/>
	</g>
	<g>
		<path class="st0" d="M39.3,48.2c-0.4,0-0.7-0.1-1.1-0.3L33.1,45c-0.3-0.2-0.4-0.6-0.2-0.9c0.2-0.3,0.6-0.4,0.9-0.2l5.1,2.9
			c0.2,0.1,0.4,0.1,0.6,0.1c0.2-0.1,0.4-0.2,0.5-0.4l0.9-1.6l-8-4.6c-0.3-0.2-0.4-0.6-0.2-0.9c0.2-0.3,0.6-0.4,0.9-0.2l8.6,4.9
			c0.3,0.2,0.4,0.6,0.2,0.9l-1.2,2.2c-0.3,0.5-0.8,0.9-1.3,1C39.7,48.2,39.5,48.2,39.3,48.2z"/>
	</g>
	<g>
		<path class="st0" d="M28.7,52c-0.4,0-0.8-0.1-1.1-0.3l-2.2-1.2c-0.2-0.1-0.3-0.2-0.3-0.4c0-0.2,0-0.4,0.1-0.5l4.2-7.4
			c0.2-0.3,0.6-0.4,0.9-0.3l3.5,2c0.2,0.1,0.3,0.2,0.3,0.4c0,0.2,0,0.4-0.1,0.5l-3.5,6.1C30.2,51.5,29.5,52,28.7,52z M26.6,49.6
			l1.6,0.9c0.1,0.1,0.3,0.1,0.4,0.1c0.3,0,0.6-0.2,0.8-0.5l3.1-5.5l-2.4-1.3L26.6,49.6z"/>
	</g>
	<g>
		<path class="st0" d="M25.7,50.5c-0.1,0-0.2,0-0.3-0.1l-3.5-2c-0.2-0.1-0.3-0.2-0.3-0.4c0-0.2,0-0.4,0.1-0.5l3.5-6.2
			c0.4-0.7,1.1-1.1,1.9-1.1c0.4,0,0.7,0.1,1.1,0.3l2.2,1.3c0.2,0.1,0.3,0.2,0.3,0.4c0,0.2,0,0.4-0.1,0.5l-4.2,7.4
			C26.2,50.4,26,50.5,25.7,50.5z M23.1,47.6l2.4,1.3l3.6-6.3l-1.7-0.9c-0.1-0.1-0.3-0.1-0.4-0.1c-0.3,0-0.6,0.2-0.7,0.4L23.1,47.6z"
			/>
	</g>
	<g>
		<path class="st0" d="M22.2,48.5c-0.1,0-0.2,0-0.3-0.1l-3.5-2c-0.3-0.2-0.4-0.6-0.3-0.9l2.7-4.7c0.4-0.7,1.1-1.1,1.9-1.1
			c0.4,0,0.7,0.1,1.1,0.3l2.2,1.3c0.3,0.2,0.4,0.6,0.3,0.9l-3.4,6c-0.1,0.2-0.2,0.3-0.4,0.3C22.3,48.5,22.3,48.5,22.2,48.5z
			 M19.6,45.6l2.4,1.3l2.7-4.8L23,41.2c-0.1-0.1-0.3-0.1-0.4-0.1c-0.3,0-0.6,0.2-0.7,0.4L19.6,45.6z"/>
	</g>
	<g>
		<path class="st0" d="M18.7,46.5c-0.1,0-0.2,0-0.3-0.1l-2.2-1.2c-1.1-0.6-1.4-2-0.8-3l1.2-2c0.4-0.7,1.1-1.1,1.9-1.1
			c0.4,0,0.7,0.1,1.1,0.3l2.2,1.3c0.3,0.2,0.4,0.6,0.3,0.9l-2.7,4.7c-0.1,0.2-0.2,0.3-0.4,0.3C18.8,46.5,18.7,46.5,18.7,46.5z
			 M18.4,40.4c-0.3,0-0.6,0.2-0.7,0.4l-1.2,2c-0.2,0.4-0.1,1,0.3,1.2l1.6,0.9l2-3.5l-1.7-0.9C18.7,40.4,18.5,40.4,18.4,40.4z"/>
	</g>
	<g>
		<path class="st0" d="M44.6,40.6c-0.3,0-0.6-0.2-0.6-0.5c-0.1-0.4,0.1-0.7,0.5-0.8l8-1.8l-2.8-13.3l-6.1,1.2
			c-0.7,0.1-1.5,0-2.2-0.4l-7.8-4.6c-0.5-0.3-1.2-0.3-1.8,0l-2.4,1.3c-0.3,0.2-0.7,0.1-0.9-0.3c-0.2-0.3-0.1-0.7,0.3-0.9l2.4-1.3
			c1-0.5,2.1-0.5,3.1,0l7.8,4.6c0.4,0.2,0.8,0.3,1.2,0.2l6.8-1.3c0.4-0.1,0.7,0.2,0.8,0.5l3.1,14.6c0.1,0.4-0.1,0.7-0.5,0.8
			l-8.6,1.9C44.7,40.6,44.6,40.6,44.6,40.6z"/>
	</g>
	<g>
		<path class="st0" d="M53.8,41.4c-0.1,0-0.3,0-0.4-0.1c-0.1-0.1-0.3-0.2-0.3-0.4l-4.3-19.9c-0.1-0.4,0.2-0.7,0.5-0.8l5.5-1.2
			c0.2,0,0.4,0,0.5,0.1c0.1,0.1,0.3,0.2,0.3,0.4L60,39.4c0.1,0.4-0.2,0.7-0.5,0.8l-5.5,1.2C53.9,41.4,53.8,41.4,53.8,41.4z
			 M50.3,21.3l4,18.6l4.2-0.9l-4-18.6L50.3,21.3z"/>
	</g>
	<g>
		<path class="st0" d="M9.2,41.1c0,0-0.1,0-0.1,0l-5.5-1.2c-0.4-0.1-0.6-0.4-0.5-0.8l4.3-19.9c0-0.2,0.1-0.3,0.3-0.4
			c0.1-0.1,0.3-0.1,0.5-0.1l5.5,1.2c0.4,0.1,0.6,0.4,0.5,0.8L9.9,40.6c0,0.2-0.1,0.3-0.3,0.4C9.5,41.1,9.3,41.1,9.2,41.1z M4.5,38.7
			l4.2,0.9l4-18.6l-4.2-0.9L4.5,38.7z"/>
	</g>
</g>
</svg>
