<?xml version="1.0" encoding="utf-8"?>
<!-- Generator: Adobe Illustrator 21.0.0, SVG Export Plug-In . SVG Version: 6.00 Build 0)  -->
<svg version="1.1" id="Слой_1" xmlns="http://www.w3.org/2000/svg" xmlns:xlink="http://www.w3.org/1999/xlink" x="0px" y="0px"
	 viewBox="0 0 64 64" style="enable-background:new 0 0 64 64;" xml:space="preserve">
<style type="text/css">
	.st0{fill:none;stroke:#FFFFFF;stroke-width:1.44;stroke-linecap:round;stroke-linejoin:round;stroke-miterlimit:22.9256;}
</style>
<path class="st0" d="M28.7,14.1"/>
<line class="st0" x1="32" y1="58.4" x2="32" y2="16.5"/>
<line class="st0" x1="18.9" y1="58.4" x2="45.2" y2="58.4"/>
<path class="st0" d="M32,10c1.8,0,3.3,1.5,3.3,3.3c0,1.8-1.5,3.3-3.3,3.3c-1.8,0-3.3-1.5-3.3-3.3C28.8,11.4,30.2,10,32,10L32,10z"/>
<line class="st0" x1="7.2" y1="39.2" x2="26.1" y2="39.2"/>
<path class="st0" d="M7.6,41.1c1.8,3.4,5.1,5.9,9,5.9c3.9,0,7.1-2.4,8.9-5.8c0.7-1.3,0.7-2.1,0.2-3.6L18,17.4
	c-0.1-0.4-0.4-0.7-0.7-0.8c-0.6-0.2-1.3,0.1-1.5,0.7l0,0c-2.8,8-5.5,12.4-8.3,20.4C7,39.1,7,39.9,7.6,41.1L7.6,41.1z"/>
<line class="st0" x1="37.9" y1="39.4" x2="56.9" y2="39.4"/>
<path class="st0" d="M38.4,41.3c1.8,3.4,5.1,5.9,9,5.9c3.9,0,7.1-2.4,8.9-5.8c0.7-1.3,0.7-2.1,0.2-3.6l-7.7-20.2
	c-0.1-0.4-0.4-0.7-0.7-0.8c-0.6-0.2-1.3,0.1-1.5,0.7l0,0c-2.8,8-5.5,12.4-8.3,20.4C37.8,39.3,37.8,40.1,38.4,41.3L38.4,41.3z"/>
<line class="st0" x1="10.5" y1="13.5" x2="28.5" y2="13.5"/>
<line class="st0" x1="35.5" y1="13.5" x2="53.5" y2="13.5"/>
</svg>
