<?xml version="1.0" encoding="utf-8"?>
<!-- Generator: Adobe Illustrator 21.0.0, SVG Export Plug-In . SVG Version: 6.00 Build 0)  -->
<svg version="1.1" id="Слой_1" xmlns="http://www.w3.org/2000/svg" xmlns:xlink="http://www.w3.org/1999/xlink" x="0px" y="0px"
	 viewBox="0 0 32 32" style="enable-background:new 0 0 32 32;" xml:space="preserve">
<style type="text/css">
	.st0{fill:#87878F;}
</style>
<g id="_x36_">
	<g>
		<path class="st0" d="M27.8,25.1H4.4c-1.2,0-2.2-1-2.2-2.2V8.4c0-1.2,1-2.2,2.2-2.2h23.4c1.2,0,2.2,1,2.2,2.2v14.5
			C30,24.1,29,25.1,27.8,25.1z M4.4,7.2c-0.7,0-1.2,0.6-1.2,1.2v14.5c0,0.7,0.6,1.2,1.2,1.2h23.4c0.7,0,1.2-0.6,1.2-1.2V8.4
			c0-0.7-0.6-1.2-1.2-1.2H4.4z"/>
	</g>
	<g>
		<path class="st0" d="M16.1,18.3c-0.1,0-0.2,0-0.3-0.1L2.6,9.4C2.4,9.3,2.4,9,2.5,8.8c0.1-0.2,0.4-0.3,0.7-0.1l12.9,8.6L29,8.6
			c0.2-0.1,0.5-0.1,0.7,0.1c0.1,0.2,0.1,0.5-0.1,0.7l-13.2,8.8C16.3,18.2,16.2,18.3,16.1,18.3z"/>
	</g>
</g>
</svg>
