<?xml version="1.0" encoding="utf-8"?>
<!-- Generator: Adobe Illustrator 21.0.0, SVG Export Plug-In . SVG Version: 6.00 Build 0)  -->
<svg version="1.1" id="Слой_1" xmlns="http://www.w3.org/2000/svg" xmlns:xlink="http://www.w3.org/1999/xlink" x="0px" y="0px"
	 viewBox="0 0 32 32" style="enable-background:new 0 0 32 32;" xml:space="preserve">
<style type="text/css">
	.st0{fill:#424242;}
	.st1{fill:none;stroke:#424242;stroke-width:1.1;stroke-linecap:round;stroke-linejoin:round;stroke-miterlimit:10;}
</style>
<g>
	<path class="st0" d="M15.1,11.8l3.8,3.8H2.5c-0.3,0-0.5,0.2-0.5,0.5c0,0.3,0.2,0.5,0.5,0.5h16.4l-3.8,3.8c-0.2,0.2-0.2,0.5,0,0.7
		c0.2,0.2,0.5,0.2,0.7,0l4.7-4.7c0.1-0.1,0.2-0.2,0.2-0.4c0-0.1-0.1-0.3-0.2-0.4l-4.7-4.7c-0.2-0.2-0.5-0.2-0.7,0
		C14.9,11.3,14.9,11.6,15.1,11.8z"/>
</g>
<path class="st1" d="M8.5,11.1c0,0,0-1,0-4.6c0-0.1,0-0.4,0.3-0.7C9,5.6,9.2,5.5,9.5,5.5h15c0.5,0,1,0.5,1,1v19c0,0.5-0.5,1-1,1h-15
	c-0.5,0-1-0.5-1-1c0-2.1,0-5.1,0-5.1"/>
</svg>
