<?xml version="1.0" encoding="utf-8"?>
<!-- Generator: Adobe Illustrator 21.0.0, SVG Export Plug-In . SVG Version: 6.00 Build 0)  -->
<svg version="1.1" id="Слой_1" xmlns="http://www.w3.org/2000/svg" xmlns:xlink="http://www.w3.org/1999/xlink" x="0px" y="0px"
	 viewBox="0 0 24 24" style="enable-background:new 0 0 24 24;" xml:space="preserve">

<g id="_x37_">
	<g>
		<path fill="#B3B3B3" d="M12,2C8.4,2,5.5,4.9,5.5,8.5c0,3.7,5.3,10.9,6.5,12.5c1.2-1.6,6.5-8.9,6.5-12.5C18.5,4.9,15.6,2,12,2z"/>
	</g>
	<g>
		<path fill="#222222" d="M12.3,12.9c-2,0-3.6-1.6-3.6-3.6s1.6-3.6,3.6-3.6c2,0,3.6,1.6,3.6,3.6S14.3,12.9,12.3,12.9z M12.3,6.3
			c-1.7,0-3,1.4-3,3s1.4,3,3,3s3-1.4,3-3S14,6.3,12.3,6.3z"/>
	</g>
</g>
<circle class="st3" fill="white" cx="12" cy="9" r="4"/>
</svg>
