<?xml version="1.0" encoding="utf-8"?>
<!-- Generator: Adobe Illustrator 21.0.0, SVG Export Plug-In . SVG Version: 6.00 Build 0)  -->
<svg version="1.1" id="Слой_1" xmlns="http://www.w3.org/2000/svg" xmlns:xlink="http://www.w3.org/1999/xlink" x="0px" y="0px"
	 viewBox="0 0 32 32" style="enable-background:new 0 0 32 32;" xml:space="preserve">
<style type="text/css">
	.st0{fill:none;stroke:#FFFFFF;stroke-width:1.44;stroke-linecap:round;stroke-linejoin:round;stroke-miterlimit:22.9256;}
</style>
<line class="st0" x1="4.2" y1="10.6" x2="13.9" y2="7"/>
<line class="st0" x1="17.3" y1="5.8" x2="27.2" y2="2.2"/>
<line class="st0" x1="15.7" y1="30.4" x2="15.7" y2="8.2"/>
<line class="st0" x1="8.7" y1="30.4" x2="22.6" y2="30.4"/>
<path class="st0" d="M15.7,4.8c0.9,0,1.7,0.8,1.7,1.7c0,0.9-0.8,1.7-1.7,1.7c-0.9,0-1.7-0.8-1.7-1.7C14,5.6,14.7,4.8,15.7,4.8
	L15.7,4.8z"/>
<line class="st0" x1="2" y1="23.4" x2="12" y2="23.4"/>
<path class="st0" d="M2.3,24.4c0.9,1.8,2.7,3.1,4.7,3.1c2,0,3.8-1.3,4.7-3c0.4-0.7,0.4-1.1,0.1-1.9L7.7,11.9
	c-0.1-0.2-0.2-0.4-0.4-0.4c-0.3-0.1-0.7,0.1-0.8,0.4l0,0c-1.5,4.2-2.9,6.6-4.4,10.8C1.9,23.4,1.9,23.8,2.3,24.4L2.3,24.4z"/>
<line class="st0" x1="19.3" y1="17.2" x2="29.3" y2="17.2"/>
<path class="st0" d="M19.6,18.2c0.9,1.8,2.7,3.1,4.7,3.1c2,0,3.8-1.3,4.7-3c0.4-0.7,0.4-1.1,0.1-1.9L25.1,5.7
	c-0.1-0.2-0.2-0.4-0.4-0.4c-0.3-0.1-0.7,0.1-0.8,0.4l0,0c-1.5,4.2-2.9,6.6-4.4,10.8C19.3,17.2,19.3,17.6,19.6,18.2L19.6,18.2z"/>
</svg>
