<?xml version="1.0" encoding="utf-8"?>
<!-- Generator: Adobe Illustrator 21.0.0, SVG Export Plug-In . SVG Version: 6.00 Build 0)  -->
<svg version="1.1" id="Слой_1" xmlns="http://www.w3.org/2000/svg" xmlns:xlink="http://www.w3.org/1999/xlink" x="0px" y="0px"
	 viewBox="0 0 32 32" style="enable-background:new 0 0 32 32;" xml:space="preserve">
<style type="text/css">
	.st0{fill:#FFFFFF;}
</style>
<g id="_x31_6_1_">
	<g>
		<path class="st0" d="M5.9,22.7c-0.1,0-0.1,0-0.2,0c-0.2-0.1-0.3-0.2-0.3-0.4v-3.8H2.9c-0.7,0-1.2-0.6-1.2-1.2V7.1
			c0-0.7,0.6-1.2,1.2-1.2h17.3c0.7,0,1.2,0.6,1.2,1.2V13c0,0.2-0.2,0.4-0.4,0.4s-0.4-0.2-0.4-0.4V7.1c0-0.2-0.2-0.4-0.4-0.4H2.9
			c-0.2,0-0.4,0.2-0.4,0.4v10.1c0,0.2,0.2,0.4,0.4,0.4h3c0.2,0,0.4,0.2,0.4,0.4v3.1l3.4-3.4c0.1-0.1,0.2-0.2,0.4-0.2h5.3
			c0.2,0,0.4,0.2,0.4,0.4s-0.2,0.4-0.4,0.4h-5.1l-4.1,4.1C6.1,22.6,6,22.7,5.9,22.7z"/>
	</g>
	<g>
		<path class="st0" d="M27.5,26.2c-0.1,0-0.2,0-0.3-0.1L24,22.8h-7.9c-0.6,0-1.1-0.5-1.1-1.1v-8.1c0-0.6,0.5-1.1,1.1-1.1h13.8
			c0.6,0,1.1,0.5,1.1,1.1v8.1c0,0.6-0.5,1.1-1.1,1.1h-2v2.9c0,0.2-0.1,0.3-0.3,0.4C27.6,26.2,27.6,26.2,27.5,26.2z M24.6,22.2
			l2.5,2.5v-2.3c0-0.2,0.2-0.4,0.4-0.4h2.4c0.1,0,0.2-0.1,0.2-0.2v-8.1c0-0.1-0.1-0.2-0.2-0.2H16.1c-0.1,0-0.2,0.1-0.2,0.2v8.1
			c0,0.1,0.1,0.2,0.2,0.2h8.1C24.4,22,24.5,22.1,24.6,22.2z"/>
	</g>
</g>
</svg>
