<?xml version="1.0" encoding="utf-8"?>
<!-- Generator: Adobe Illustrator 21.0.0, SVG Export Plug-In . SVG Version: 6.00 Build 0)  -->
<svg version="1.1" id="Слой_1" xmlns="http://www.w3.org/2000/svg" xmlns:xlink="http://www.w3.org/1999/xlink" x="0px" y="0px"
	 viewBox="0 0 32 32" style="enable-background:new 0 0 32 32;" xml:space="preserve">
<style type="text/css">
	.st0{fill:#87878F;}
</style>
<g id="_x39_">
	<g>
		<path class="st0" d="M24.1,30c-1.9,0-4.2-0.9-6.8-2.6c-2.6-1.8-4.9-4-6.4-5.6c-2.8-3-5-6.1-6.1-8.8C4.1,11.5,3.7,10,3.7,8.7
			C3.7,7.2,4.2,6,5,4.9l1-1.2C6.4,3.3,7,3,7.6,3c0.6,0,1.1,0.2,1.5,0.7l3.5,3.7c0.7,0.7,0.7,1.8,0.1,2.6l-1.6,2.1
			c0.2,0.5,0.9,2,4.3,5.7c3.4,3.6,4.9,4.5,5.4,4.7l2.2-1.4c0.3-0.2,0.7-0.3,1.1-0.3c0.5,0,1.1,0.2,1.4,0.6L29,25
			c0.4,0.4,0.6,1,0.5,1.6c-0.1,0.6-0.4,1.1-0.9,1.5l-1.2,0.9C26.5,29.7,25.4,30,24.1,30z M7.6,4C7.3,4,7,4.1,6.8,4.4l-1,1.2
			c0,0,0,0,0,0c-3.1,3.6,1,10.5,5.9,15.6c4.6,4.9,9.2,7.8,12.5,7.8c1,0,2-0.3,2.7-0.9c0,0,0,0,0,0l1.3-0.9c0.3-0.2,0.4-0.5,0.4-0.8
			c0-0.3-0.1-0.6-0.3-0.8l-3.5-3.7c-0.2-0.2-0.5-0.3-0.7-0.3c-0.2,0-0.4,0.1-0.6,0.2c0,0,0,0,0,0l-2.4,1.6c-0.1,0.1-0.2,0.1-0.3,0.1
			c-0.3,0-1.8-0.4-6.1-5c-4.4-4.7-4.6-6.2-4.6-6.4c0-0.1,0-0.2,0.1-0.3l1.7-2.3c0,0,0,0,0,0c0.3-0.4,0.3-0.9,0-1.3L8.4,4.3
			C8.2,4.1,7.9,4,7.6,4z"/>
	</g>
</g>
</svg>
