<?xml version="1.0" encoding="utf-8"?>
<!-- Generator: Adobe Illustrator 21.0.0, SVG Export Plug-In . SVG Version: 6.00 Build 0)  -->
<svg version="1.1" id="Слой_1" xmlns="http://www.w3.org/2000/svg" xmlns:xlink="http://www.w3.org/1999/xlink" x="0px" y="0px"
	 viewBox="0 0 32 32" style="enable-background:new 0 0 32 32;" xml:space="preserve">
<style type="text/css">
	.st0{fill:none;stroke:#FFFFFF;stroke-width:1.4;stroke-linecap:round;stroke-linejoin:round;stroke-miterlimit:22.9256;}
</style>
<path class="st0" d="M20.8,12c-0.7,2.6-2.8,4.4-4.7,4.5c-1.9-0.1-3.9-2-4.7-4.6L11,12c-0.4,0.1-0.8-0.2-0.9-0.6L9.8,9.1
	c-0.1-0.4,0.2-0.8,0.6-0.9l0.3,0c-0.1-0.4-0.2-0.7-0.2-1.1V6.2c0-2.1,1.7-3.7,3.7-3.7h0.4c0-0.1,0-0.1,0-0.2c0.2-0.6,1.8-0.6,3.4,0
	c0.4,0.1,0.7,0.3,1,0.4c1.4,0.6,2.3,1.9,2.3,3.5v0.8c0,0.4-0.1,0.8-0.2,1.1l0.3,0c0.4,0.1,0.7,0.5,0.6,0.9l-0.4,2.3
	c-0.1,0.4-0.5,0.7-0.9,0.6L20.8,12L20.8,12z"/>
<line class="st0" x1="24.9" y1="27.4" x2="20.9" y2="27.4"/>
<path class="st0" d="M2.9,29.7l-0.7-6.1v-0.6c0-1.4,1.4-2.3,2.6-2.5c1.1-0.2,5.2-1.1,6.6-2l0.1,0l2.4,11.3l1.4-7.5l-1.2-3.2h4
	l-1.2,3.2l1.4,7.5l2.5-11.3l0.1,0c1.3,0.9,5.5,1.8,6.6,2c1.2,0.2,2.6,1.1,2.6,2.5v0.6l-0.7,6.1"/>
</svg>
