<?xml version="1.0" encoding="utf-8"?>
<!-- Generator: Adobe Illustrator 21.0.0, SVG Export Plug-In . SVG Version: 6.00 Build 0)  -->
<svg version="1.1" id="Слой_1" xmlns="http://www.w3.org/2000/svg" xmlns:xlink="http://www.w3.org/1999/xlink" x="0px" y="0px"
	 viewBox="0 0 24 24" style="enable-background:new 0 0 24 24;" xml:space="preserve">
<style type="text/css">
	.st0{stroke:#42C134;stroke-miterlimit:10;}
	.st1{fill:#42C134;}
</style>
<text transform="matrix(1 0 0 1 683 384)" class="st0" style="font-family:'MyriadPro-Regular'; font-size:12px;">42c134</text>
<path class="st1" d="M21.3,12.9c0.5-0.3,0.8-0.9,0.8-1.5c0-1-0.8-1.9-1.9-1.9h-2.3h-0.4h-1.8c0.3-1.5,0.6-4.3,0.6-5.3
	c0-1.9-1-2.3-1.9-2.3C14,2,13,2.2,13,3.9c0,2.3-3.3,7-4,7.9H8.4c0-0.2-0.1-0.3-0.2-0.4c-0.2-0.2-0.5-0.3-0.8-0.3H2.8
	c-0.6,0-1.1,0.5-1.1,1.1v8.7c0,0.6,0.5,1.1,1.1,1.1h3.4c0.6,0,1.1-0.5,1.2-1.1l0.9-8.3h0.9c0.1,0,0.2-0.1,0.3-0.2
	c0.2-0.2,4.2-5.8,4.2-8.5c0-0.8,0.2-1.1,0.8-1.1c0.6,0,1.1,0.2,1.1,1.5c0,1.2-0.4,4.5-0.7,5.5c0,0.1,0,0.2,0.1,0.3
	c0.1,0.1,0.2,0.2,0.3,0.2h2.3h0.4h2.3c0.6,0,1.1,0.5,1.1,1.1c0,0.6-0.5,1.1-1.1,1.1h-0.8c-0.2,0-0.4,0.2-0.4,0.4
	c0,0.2,0.2,0.4,0.4,0.4h0.8c0.6,0,1.1,0.5,1.1,1.1c0,0.6-0.5,1.1-1.1,1.1h-0.4c0,0-0.1,0-0.1,0c-0.1,0-0.2,0-0.3,0h-0.4
	c-0.2,0-0.4,0.2-0.4,0.4s0.2,0.4,0.4,0.4h0.4c0.6,0,1.1,0.5,1.1,1.1c0,0.6-0.5,1.1-1.1,1.1h-0.4c0,0-0.1,0-0.1,0c0,0-0.1,0-0.1,0
	h-0.3c-0.2,0-0.4,0.2-0.4,0.4s0.2,0.4,0.4,0.4c0.5,0,0.9,0.4,0.9,0.9s-0.5,0.9-1.1,0.9h-3h-1.1h-1.3c-1.4,0-2.7-0.2-3-0.3L9,20.5
	c-0.2-0.1-0.4,0-0.5,0.2c-0.1,0.2,0,0.4,0.2,0.5l0.8,0.4c0.5,0.3,2.1,0.4,3.4,0.4h1.3h1.1h3c1,0,1.9-0.8,1.9-1.7
	c0-0.4-0.1-0.7-0.3-1c0.8-0.2,1.5-0.9,1.5-1.8c0-0.5-0.2-0.9-0.5-1.3c0.7-0.3,1.2-1,1.2-1.8C22.1,13.8,21.8,13.3,21.3,12.9z
	 M6.7,20.8c0,0.2-0.2,0.4-0.5,0.4H2.8c-0.2,0-0.4-0.2-0.4-0.4v-8.7c0-0.2,0.2-0.4,0.4-0.4h4.5c0.1,0,0.2,0,0.2,0.1
	c0.1,0.1,0.1,0.1,0.1,0.2L6.7,20.8z"/>
</svg>
