<?xml version="1.0" encoding="utf-8"?>
<!-- Generator: Adobe Illustrator 21.0.0, SVG Export Plug-In . SVG Version: 6.00 Build 0)  -->
<svg version="1.1" id="Слой_1" xmlns="http://www.w3.org/2000/svg" xmlns:xlink="http://www.w3.org/1999/xlink" x="0px" y="0px"
	 viewBox="0 0 32 32" style="enable-background:new 0 0 32 32;" xml:space="preserve">
<style type="text/css">
	.st0{fill:none;stroke:#FFFFFF;stroke-width:1.44;stroke-linecap:round;stroke-linejoin:round;stroke-miterlimit:22.9256;}
</style>
<path class="st0" d="M26,9.2v20.4c0,0.6-0.5,1.1-1.1,1.1H7.2c-0.6,0-1.1-0.5-1.1-1.1V3.3c0-0.6,0.5-1.1,1.1-1.1H19"/>
<path class="st0" d="M26,9.2h-5.9c-0.6,0-1.1-0.5-1.1-1.1V2.3L26,9.2L26,9.2z"/>
<line class="st0" x1="10.5" y1="8" x2="16.1" y2="8"/>
<line class="st0" x1="10.5" y1="13.3" x2="21.7" y2="13.3"/>
<line class="st0" x1="10.5" y1="16.4" x2="21.7" y2="16.4"/>
<line class="st0" x1="10.5" y1="19.6" x2="21.7" y2="19.6"/>
<line class="st0" x1="10.5" y1="22.7" x2="16.1" y2="22.7"/>
</svg>
