<?xml version="1.0" encoding="utf-8"?>
<!-- Generator: Adobe Illustrator 21.0.0, SVG Export Plug-In . SVG Version: 6.00 Build 0)  -->
<svg version="1.1" id="Слой_1" xmlns="http://www.w3.org/2000/svg" xmlns:xlink="http://www.w3.org/1999/xlink" x="0px" y="0px"
	 viewBox="0 0 32 32" style="enable-background:new 0 0 32 32;" xml:space="preserve">
<style type="text/css">
	.st0{fill:none;stroke:#FFFFFF;stroke-width:1.44;stroke-linecap:round;stroke-linejoin:round;stroke-miterlimit:22.9256;}
</style>
<path class="st0" d="M14.7,6.6c-0.5,3-2.8,5.3-5.8,5.8"/>
<path class="st0" d="M15,18.6c0.5-2.9,2.8-5.3,5.8-5.8"/>
<path class="st0" d="M14.7,18.5L9,12.7c-0.6-0.6-1.5-0.6-2.1,0l-1.5,1.5c-0.6,0.6-0.6,1.5,0,2.1l5.8,5.8c0.6,0.6,1.5,0.6,2.1,0
	l1.5-1.5C15.3,20,15.3,19,14.7,18.5L14.7,18.5z"/>
<path class="st0" d="M24.3,8.8l-5.8-5.8c-0.6-0.6-1.5-0.6-2.1,0L15,4.6c-0.6,0.6-0.6,1.5,0,2.1l5.8,5.8c0.6,0.6,1.5,0.6,2.1,0
	l1.5-1.5C24.9,10.3,24.9,9.4,24.3,8.8L24.3,8.8z"/>
<path class="st0" d="M16.3,16.4l10.4,10.9c1.5,1.5,4.3-1.5,2.8-2.9L18.7,14.1"/>
<line class="st0" x1="3" y1="26.7" x2="17.4" y2="26.7"/>
<line class="st0" x1="1.4" y1="29.7" x2="19.4" y2="29.7"/>
</svg>
