<svg version="1.1" viewBox="0 0 17.1 13.8" xml:space="preserve" xmlns="http://www.w3.org/2000/svg"><style type="text/css">
	.st0{stroke:#42C134;stroke-miterlimit:10;}
	.st1{fill:#ACACAC;}
</style><text class="st0" x="680" y="378.10001" font-family="MyriadPro-Regular" font-size="12px" stroke="#42c134" stroke-miterlimit="10">42c134</text>
<g id="_x38_" transform="translate(-3,-5.9)"><g id="_x36_"><path class="st1" d="m6.6 17.7c-0.2 0-0.4-0.2-0.4-0.4s0.2-0.4 0.4-0.4 0.4 0.2 0.4 0.4-0.2 0.4-0.4 0.4z" fill="#acacac"/></g><path class="st1" d="m15.6 19.7c-1.2 0-2.2-0.3-3.1-0.8-0.9-0.6-1.4-1.3-1.4-2.2v-2c0-0.2 0.2-0.4 0.4-0.4s0.4 0.2 0.4 0.4v2c0 1.2 1.7 2.2 3.7 2.2s3.7-1 3.7-2.2v-2c0-0.2 0.2-0.4 0.4-0.4s0.4 0.2 0.4 0.4v2c0 0.8-0.5 1.6-1.4 2.2-0.9 0.5-2 0.8-3.1 0.8z" fill="#acacac"/><path class="st1" d="m15.6 17.8c-1.1 0-2.1-0.2-2.9-0.7-1-0.6-1.6-1.4-1.6-2.3v-2c0-0.2 0.2-0.4 0.4-0.4s0.4 0.2 0.4 0.4v2c0 0.6 0.4 1.2 1.2 1.6 0.7 0.4 1.6 0.6 2.5 0.6s1.8-0.2 2.5-0.6 1.2-1 1.2-1.6v-2c0-0.2 0.2-0.4 0.4-0.4s0.4 0.2 0.4 0.4v2c0 0.9-0.6 1.7-1.6 2.3-0.9 0.4-1.9 0.7-2.9 0.7z" fill="#acacac"/><path class="st1" d="m15.6 15.8c-1 0-2.1-0.2-2.9-0.7-1-0.6-1.6-1.4-1.6-2.3v-2c0-0.2 0.2-0.4 0.4-0.4s0.4 0.2 0.4 0.4v2c0 0.6 0.4 1.2 1.2 1.6 0.7 0.4 1.6 0.6 2.5 0.6s1.8-0.2 2.5-0.6 1.2-1 1.2-1.6v-2c0-0.2 0.2-0.4 0.4-0.4s0.4 0.2 0.4 0.4v2c0 0.9-0.6 1.7-1.6 2.3-0.9 0.5-1.9 0.7-2.9 0.7z" fill="#acacac"/><path class="st1" d="m15.6 13.9c-1.1 0-2.1-0.2-2.9-0.7-1-0.6-1.6-1.4-1.6-2.3v-2c0-0.2 0.2-0.4 0.4-0.4s0.4 0.2 0.4 0.4v2c0 0.6 0.4 1.2 1.2 1.6 0.7 0.4 1.6 0.6 2.5 0.6s1.8-0.2 2.5-0.6 1.2-1 1.2-1.6v-2c0-0.2 0.2-0.4 0.4-0.4s0.3 0.2 0.3 0.4v2c0 0.9-0.6 1.7-1.6 2.3-0.8 0.4-1.8 0.7-2.8 0.7z" fill="#acacac"/><path class="st1" d="m15.6 11.9c-1.2 0-2.2-0.3-3.1-0.8-0.9-0.6-1.4-1.3-1.4-2.2s0.5-1.6 1.4-2.2c0.8-0.5 1.9-0.8 3.1-0.8s2.2 0.3 3.1 0.8c0.8 0.6 1.3 1.4 1.3 2.2s-0.5 1.6-1.4 2.2c-0.8 0.5-1.9 0.8-3 0.8zm0-5.2c-2 0-3.7 1-3.7 2.2s1.7 2.2 3.7 2.2 3.7-1 3.7-2.2-1.8-2.2-3.7-2.2z" fill="#acacac"/><path class="st1" d="m7.5 19.7c-1.2 0-2.2-0.3-3.1-0.8-0.9-0.6-1.4-1.3-1.4-2.2v-2c0-0.2 0.2-0.4 0.4-0.4s0.4 0.2 0.4 0.4v2c0 1.2 1.7 2.2 3.7 2.2s3.7-1 3.7-2.2v-2c0-0.2 0.2-0.4 0.4-0.4s0.4 0.2 0.4 0.4v2c0 0.8-0.5 1.6-1.4 2.2-0.9 0.5-2 0.8-3.1 0.8z" fill="#acacac"/><path class="st1" d="m7.5 17.8c-1.2 0-2.2-0.3-3.1-0.8-0.9-0.6-1.4-1.4-1.4-2.2v-2c0-0.2 0.2-0.4 0.4-0.4s0.4 0.2 0.4 0.4v2c0 1.2 1.7 2.2 3.7 2.2s3.7-1 3.7-2.2v-2c0-0.2 0.2-0.4 0.4-0.4s0.4 0.2 0.4 0.4v2c0 0.8-0.5 1.6-1.4 2.2-0.9 0.5-2 0.8-3.1 0.8z" fill="#acacac"/><path class="st1" d="m7.5 15.8c-1.2 0-2.2-0.3-3.1-0.8-0.9-0.6-1.4-1.4-1.4-2.2s0.5-1.6 1.4-2.2c0.8-0.5 1.9-0.8 3.1-0.8s2.2 0.3 3.1 0.8c0.9 0.6 1.4 1.3 1.4 2.2 0 0.8-0.5 1.6-1.4 2.2-0.9 0.5-2 0.8-3.1 0.8zm0-5.2c-2 0-3.7 1-3.7 2.2s1.7 2.2 3.7 2.2 3.7-1 3.7-2.2-1.8-2.2-3.7-2.2z" fill="#acacac"/></g></svg>
