<svg xmlns="http://www.w3.org/2000/svg" width="14" height="16" viewBox="0 0 14 16"><path fill="#151827" d="M3.53 1.95l.41.19c-.28.18-.41.36-.38.53.03.18.19.33.45.46.25.11.54.17.89.19.35 0 .89-.1 1.6-.31.17-.06.31-.09.41-.1.09 0 .16 0 .23.04.05.02.2.09-.17.26-.23.1-.48.15-.72.13a.81.81 0 0 0-.5.1l-.22.14c-.1.07-.12.15-.05.22.06.08.2.13.36.14.54.06 1.07-.01 1.58-.2l.55.26c.2.1.51.1.71 0 .2-.09.2-.23 0-.32l-.57-.27c.25-.17.38-.34.39-.5.01-.2-.14-.38-.45-.52-.21-.1-.47-.17-.74-.19a2.79 2.79 0 0 0-.77.04c-.24.05-.59.14-1.06.28-.2.06-.34.09-.41.09a.38.38 0 0 1-.17-.03c-.16-.08-.03-.17.12-.24.17-.08.36-.12.56-.12.2.01.38-.04.47-.12l.13-.11c.08-.07.08-.16-.01-.23a.73.73 0 0 0-.42-.11c-.37 0-.73.05-1.09.16l-.42-.2a.96.96 0 0 0-.71 0c-.2.1-.2.24 0 .34zm8.63 2.35c.03-.15.05-.3.05-.45v-.48c0-.96-.67-1.83-1.89-2.46A9.37 9.37 0 0 0 6.11 0C4.52 0 3.02.32 1.89.9.67 1.55 0 2.42 0 3.38v.48c0 .94.65 1.8 1.84 2.43a2.5 2.5 0 0 0-.05.45v.08C.63 7.44 0 8.3 0 9.22v.48c0 .64.31 1.25.88 1.77-.08.22-.12.45-.12.68v.48c0 .96.67 1.83 1.89 2.46a9.4 9.4 0 0 0 4.22.91c1.58 0 3.08-.32 4.21-.9 1.22-.64 1.89-1.51 1.89-2.47v-.48c0-.64-.3-1.25-.88-1.77.08-.22.12-.45.12-.68v-.09C13.37 9 14 8.13 14 7.21v-.48c0-.94-.65-1.8-1.84-2.43zM.85 2.96c.18-.47.66-.94 1.38-1.31A8.66 8.66 0 0 1 6.11.83c1.46 0 2.84.29 3.87.82.72.37 1.2.84 1.38 1.31-.63 1.16-2.8 2-5.25 2-2.46 0-4.63-.84-5.26-2zm0 5.86a2.4 2.4 0 0 1 1.01-1.1c.19.75.82 1.43 1.82 1.95a9.37 9.37 0 0 0 4.68.9c-.7.15-1.46.24-2.25.24-2.46 0-4.63-.84-5.26-2zm11.27 2.93c-.63 1.15-2.8 2-5.25 2-2.14 0-4.05-.64-4.93-1.57 1.13.58 2.6.89 4.17.89 1.58 0 3.08-.32 4.21-.9.58-.31 1.04-.67 1.36-1.07.21.2.36.43.44.65zM7.89 8.32c-2.14 0-4.07-.64-4.94-1.57.94.3 2.03.47 3.16.47 1.58 0 3.08-.33 4.21-.91.68-.36 1.2-.79 1.51-1.27.69.37 1.15.82 1.32 1.28-.63 1.16-2.8 2-5.26 2z"/></svg>