<svg xmlns="http://www.w3.org/2000/svg" width="22" height="22" viewBox="0 0 22 22"><path fill="#4dc33b" d="M2.37 20.6l.24-.06.23-.06-.34-.35zM21.79 7.1c.23.22.23.59 0 .81L10.06 19.66a.62.62 0 0 1-.29.15l-4.02 1.07-2.84.77H2.9l-.77.21-.42.1v.01a.7.7 0 0 1-.31 0 .57.57 0 0 1-.4-.7l.64-2.36.01-.08.44-1.62 1.07-4.01a.69.69 0 0 1 .12-.25l.02-.03.01-.01h.01v-.01L15.05 1.16a.58.58 0 0 1 .82 0zm-1.22.4l-5.11-5.12L4.54 13.31l2.56 2.56 2.56 2.56zM4.12 20.13l1.34-.35 3.08-.84-2.26-2.26-2.25-2.25-.84 3.08-.35 1.34.64.64z"/></svg>