<svg width="24.417" height="24.4" version="1.1" viewBox="0 0 24.417408 24.4" xml:space="preserve" xmlns="http://www.w3.org/2000/svg"><style type="text/css">
	.st0{stroke:#42C134;stroke-miterlimit:10;}
	.st1{fill:#F1F5F8;}
	.st2{fill:#3695EF;}
</style><path class="st2" d="m0.44142 24.4c-0.1 0-0.2 0-0.3-0.1s-0.2-0.3-0.1-0.5l3-9.1c0-0.1 0.1-0.1 0.1-0.2l13.1-13.1c0.9-0.9 2.2-1.4 3.5-1.4s2.5 0.5 3.3 1.4c1.9 1.9 1.8 4.9-0.1 6.8l-13.1 13c-0.1 0.1-0.1 0.1-0.2 0.1l-9.1 3c0 0.1-0.1 0.1-0.1 0.1zm1.7-4.4l2.1 2.1 4.4-1.4-5-5zm15.1-18.3l5.4 5.4c1.2-1.5 1.1-3.7-0.2-5.1-0.7-0.7-1.7-1.1-2.7-1.1-0.9-0.1-1.8 0.2-2.5 0.8zm1.7 3-2.4-2.4-12.4 12.5 2.4 2.4zm3 3.1-2.4-2.4-12.4 12.4 2.4 2.4z" fill="#3695ef"/></svg>
