<?xml version="1.0" encoding="utf-8"?>
<!-- Generator: Adobe Illustrator 21.0.0, SVG Export Plug-In . SVG Version: 6.00 Build 0)  -->
<svg version="1.1" id="Слой_1" xmlns="http://www.w3.org/2000/svg" xmlns:xlink="http://www.w3.org/1999/xlink" x="0px" y="0px"
	 viewBox="0 0 52 52" style="enable-background:new 0 0 52 52;" xml:space="preserve">
<style type="text/css">
	.st0{stroke:#42C134;stroke-miterlimit:10;}
	.st1{fill:none;stroke:#A4A4A4;stroke-width:1.44;stroke-linecap:round;stroke-linejoin:round;stroke-miterlimit:22.9256;}
</style>
<text transform="matrix(1 0 0 1 669 370)" class="st0" style="font-family:'MyriadPro-Regular'; font-size:12px;">42c134</text>
<path class="st1" d="M33.1,20.2c-1.2,4.1-4.4,7.2-7.5,7.3c-3.1-0.2-6.4-3.2-7.5-7.3l-0.6,0.1c-0.7,0.1-1.3-0.4-1.4-1l-0.6-3.7
	c-0.1-0.7,0.4-1.3,1-1.4l0.4-0.1c-0.2-0.6-0.3-1.2-0.3-1.8v-1.4c0-3.3,2.7-6,6-6h0.7c0-0.1,0-0.2,0-0.3c0.4-1,2.8-0.9,5.5,0.1
	c0.6,0.2,1.1,0.5,1.6,0.7c2.2,0.9,3.7,3.1,3.7,5.6v1.4c0,0.6-0.1,1.3-0.3,1.8l0.4,0.1c0.7,0.1,1.1,0.7,1,1.4l-0.6,3.7
	c-0.1,0.7-0.7,1.1-1.4,1L33.1,20.2L33.1,20.2z"/>
<line class="st1" x1="39.8" y1="45" x2="33.3" y2="45"/>
<path class="st1" d="M4.3,48.6l-1.1-9.8v-1c0-2.3,2.3-3.6,4.3-4c1.8-0.4,8.4-1.8,10.6-3.3l0.1,0l3.9,18.2l2.3-12l-2-5.1h6.4l-2,5.1
	l2.3,12l4-18.2l0.1,0c2.1,1.5,8.8,2.9,10.6,3.3c1.9,0.4,4.3,1.7,4.3,4v1l-1.1,9.8"/>
</svg>
