<?xml version="1.0" encoding="utf-8"?>
<!-- Generator: Adobe Illustrator 21.0.0, SVG Export Plug-In . SVG Version: 6.00 Build 0)  -->
<svg version="1.1" id="Слой_1" xmlns="http://www.w3.org/2000/svg" xmlns:xlink="http://www.w3.org/1999/xlink" x="0px" y="0px"
	 viewBox="0 0 52 52" style="enable-background:new 0 0 52 52;" xml:space="preserve">
<style type="text/css">
	.st0{stroke:#42C134;stroke-miterlimit:10;}
	.st1{fill:#A4A4A4;}
</style>
<text transform="matrix(1 0 0 1 669 370)" class="st0" style="font-family:'MyriadPro-Regular'; font-size:12px;">42c134</text>
<g id="_x33_">
	<g>
		<path class="st1" d="M41.7,49.6H10.3c-1.9,0-3.5-1.6-3.5-3.5v-5c0-3.8,1.3-7.4,3.6-10c2.4-2.7,5.8-4.2,9.5-4.2
			c0.1,0,0.3,0.1,0.4,0.1c0,0,2.4,1.9,5.7,1.9c3,0,5.7-2,5.7-2C31.8,27,31.9,27,32,27c3.7,0,7.1,1.5,9.5,4.2c2.3,2.6,3.6,6.1,3.6,10
			v5C45.1,48.1,43.6,49.6,41.7,49.6z M19.7,28.2c-6.8,0.1-11.7,5.5-11.7,12.9v5c0,1.2,1,2.2,2.2,2.2h31.4c1.2,0,2.2-1,2.2-2.2v-5
			c0-7.4-4.9-12.8-11.7-12.9c-0.7,0.5-3.3,2.1-6.2,2.1C22.8,30.3,20.4,28.7,19.7,28.2z"/>
	</g>
	<g>
		<path class="st1" d="M26.1,44.5c-0.2,0-0.4-0.1-0.5-0.3c-0.2-0.3-0.1-0.7,0.2-0.8c1.6-0.9,3.5-3.7,5.5-8.1
			c1.6-3.4,2.6-6.6,2.6-6.6c0.1-0.3,0.5-0.5,0.8-0.4c0.3,0.1,0.5,0.5,0.4,0.8c-0.2,0.5-4.3,13.1-8.7,15.5
			C26.3,44.5,26.2,44.5,26.1,44.5z"/>
	</g>
	<g>
		<path class="st1" d="M26.1,44.5c-0.1,0-0.2,0-0.3-0.1c-4.4-2.4-8.5-14.9-8.7-15.5c-0.1-0.3,0.1-0.7,0.4-0.8
			c0.3-0.1,0.7,0.1,0.8,0.4c0,0,1.1,3.2,2.6,6.6c2,4.4,3.9,7.3,5.5,8.1c0.3,0.2,0.4,0.5,0.2,0.8C26.5,44.4,26.3,44.5,26.1,44.5z"/>
	</g>
	<g>
		<path class="st1" d="M31.8,28.2c-0.3,0-0.5-0.2-0.6-0.5l-1.2-4.5c-0.1-0.3,0.1-0.7,0.4-0.8c0.3-0.1,0.7,0.1,0.8,0.4l1.2,4.5
			c0.1,0.3-0.1,0.7-0.4,0.8C31.9,28.2,31.9,28.2,31.8,28.2z"/>
	</g>
	<g>
		<path class="st1" d="M20.1,28.2c-0.1,0-0.1,0-0.2,0c-0.3-0.1-0.5-0.4-0.4-0.8l1.2-4.5c0.1-0.3,0.4-0.5,0.8-0.4
			c0.3,0.1,0.5,0.4,0.4,0.8l-1.2,4.5C20.6,28,20.4,28.2,20.1,28.2z"/>
	</g>
	<g>
		<path class="st1" d="M26,26.1c-2.2,0-4.2-1.3-5.6-3.8c-1.4-2.3-2.2-5.4-2.2-8.7c0-0.1,0-0.2,0-0.3c0-0.3,0.3-0.6,0.6-0.6
			c0,0,0,0,0,0c0.3,0,0.6,0.3,0.6,0.6c0,0.1,0,0.2,0,0.3c0,3,0.7,5.9,2,8c1.3,2,2.9,3.2,4.6,3.2c1.7,0,3.3-1.1,4.6-3.2
			c1.3-2.1,2-5,2-8c0-0.2,0-0.5,0-0.7c0-0.3,0.3-0.6,0.6-0.6c0,0,0,0,0,0c0.3,0,0.6,0.3,0.6,0.6c0,0.2,0,0.5,0,0.7
			c0,3.3-0.8,6.3-2.2,8.7C30.2,24.8,28.2,26.1,26,26.1z"/>
	</g>
	<g>
		<path class="st1" d="M33.8,14.7c-0.3,0-0.5-0.2-0.6-0.4c-0.8-2-1.7-2.3-3.4-2.3c-0.5,0-1.1,0-1.9,0.1c-0.5,0-0.9,0.1-1.2,0.1
			c-1.6,0-2.4-0.4-4.5-1.3l-0.1,0c-0.1,0-0.2-0.1-0.3-0.1c-0.9,0-2.2,2.1-2.7,3.6c-0.1,0.2-0.3,0.4-0.6,0.4c-0.3,0-0.5-0.2-0.6-0.4
			c-0.9-3-1-5.5-0.2-7.5c0.6-1.7,1.6-2.5,2-2.8l0,0c1.7-1.5,3.7-1.8,5.5-1.9c0.3,0,0.7,0,1,0c2.6,0,4.6,0.7,6.3,2.2
			c4,3.5,2,9.9,1.9,10.1C34.3,14.5,34.1,14.7,33.8,14.7C33.8,14.7,33.8,14.7,33.8,14.7z M29.8,10.8c1.6,0,2.8,0.3,3.8,1.6
			c0.3-1.9,0.4-5.2-1.9-7.3c-1.4-1.2-3.2-1.9-5.5-1.9c-0.3,0-0.6,0-0.9,0c-1.9,0.1-3.4,0.4-4.8,1.6l0,0c-1.9,1.6-2.5,4-1.8,7.4
			c0.1-0.2,0.2-0.3,0.3-0.5c0.9-1.5,1.9-2.3,2.8-2.3c0.3,0,0.5,0.1,0.8,0.2l0.1,0c2,0.9,2.6,1.2,4,1.2c0.3,0,0.7,0,1.2,0
			C28.4,10.8,29.1,10.8,29.8,10.8z"/>
	</g>
</g>
</svg>
