<svg width="514.01" height="644.49" version="1.1" viewBox="0 0 514.01068 644.48535" xml:space="preserve" xmlns="http://www.w3.org/2000/svg"><defs><clipPath id="clipPath74"><path d="M 0,483.364 H 385.508 V 0 H 0 Z"/></clipPath></defs><g transform="matrix(1.3333 0 0 -1.3333 0 644.49)"><g clip-path="url(#clipPath74)"><g transform="translate(371.49 389.45)"><path d="m0 0-10.444-194.71c-2.366-46.022-25.228-87.784-62.723-114.58l-82.043-58.623c-6.904-4.934-15.038-7.541-23.523-7.541-8.486 0-16.62 2.607-23.524 7.541l-82.042 58.623c-37.495 26.792-60.357 68.554-62.725 114.59l-10.446 194.76c-0.368 6.859 4.245 12.831 10.969 14.2 25.886 5.271 59.98 12.881 75.402 19.205 15.301 6.272 48.762 25.937 74.137 41.33 5.518 3.346 11.843 5.116 18.293 5.116 6.416 0 12.712-1.753 18.207-5.068 25.939-15.654 60.133-35.656 75.734-42.051 15.095-6.189 48.414-13.524 73.708-18.588 6.646-1.329 11.383-7.438 11.02-14.209m-8.272 27.937c-34.904 6.988-60.17 13.314-71.145 17.813-11.528 4.727-37.742 19.316-73.812 41.084-7.678 4.633-16.475 7.082-25.44 7.082-9.01 0-17.847-2.471-25.554-7.145-35.266-21.393-60.902-35.722-72.187-40.348-15.171-6.221-52.176-14.223-72.884-18.44-13.361-2.72-22.886-15.045-22.156-28.668l10.446-194.74c2.587-50.309 27.578-95.961 68.565-125.25l82.043-58.623c9.292-6.64 20.241-10.15 31.663-10.15 11.421 0 22.37 3.51 31.663 10.15l82.042 58.623c40.988 29.287 65.979 74.939 68.565 125.23l10.442 194.69c0.734 13.669-8.832 26.002-22.251 28.687" /></g><g transform="translate(335.09 355.38)"><path d="m0 0-8.053-150.14c-1.894-36.863-20.211-70.316-50.252-91.782l-63.264-45.204c-6.094-4.355-13.275-6.657-20.766-6.657-7.492 0-14.674 2.302-20.768 6.657l-63.263 45.204c-30.04 21.465-48.357 54.923-50.254 91.812l-8.055 150.16c-0.398 7.424 4.791 14.138 12.071 15.621 19.771 4.026 45.767 9.82 57.33 14.561 11.515 4.72 37.101 19.763 56.538 31.553 4.962 3.01 10.65 4.601 16.45 4.601 5.771 0 11.433-1.576 16.375-4.559 19.866-11.988 46.016-27.291 57.778-32.113 11.307-4.637 36.699-10.218 56.009-14.083 7.311-1.462 12.523-8.183 12.124-15.632m-9.376 29.36c-26.062 5.217-45.542 10.068-53.446 13.308-8.409 3.448-28.768 14.801-55.855 31.146-7.124 4.3-15.288 6.573-23.609 6.573-8.361 0-16.561-2.293-23.711-6.631-26.481-16.062-46.377-27.204-54.587-30.569-8.115-3.327-28.094-8.356-54.813-13.796-14.026-2.856-24.025-15.792-23.257-30.09l8.053-150.15c2.117-41.16 22.563-78.507 56.096-102.47l63.262-45.205c8.483-6.062 18.479-9.266 28.908-9.266 10.427 0 20.423 3.204 28.906 9.266l63.263 45.205c33.534 23.961 53.98 61.303 56.094 102.44l8.052 150.13c0.769 14.348-9.272 27.292-23.356 30.11" /></g><g transform="translate(227.26 239.74)"><path d="m0 0c-4.35-3.159-6.152-8.729-4.486-13.856l14.076-43.342-36.841 26.762c-2.121 1.541-4.628 2.356-7.25 2.356-2.625 0-5.135-0.816-7.259-2.359l-36.832-26.76 14.067 43.284c1.657 5.102-0.145 10.647-4.465 13.784l-37.19 27.22h45.867c5.492 0 10.1 3.258 11.736 8.295l14.064 43.179 14.077-43.146c1.619-4.981 6.336-8.328 11.738-8.328h45.853zm41.93 41.089h-49.49l-15.208 46.608c-1.662 5.118-6.395 8.558-11.775 8.558-5.43 0-10.023-3.337-11.699-8.495l-15.2-46.671h-49.499c-5.342 0-10.054-3.456-11.725-8.599-1.683-5.184 0.114-10.793 4.452-13.942l40.003-29.278-15.273-46.997c-1.238-3.809-0.614-7.83 1.712-11.031 2.342-3.224 6.097-5.149 10.043-5.149 2.59 0 5.093 0.824 7.236 2.382l39.991 29.053 39.983-29.046c2.143-1.556 4.643-2.378 7.23-2.378 3.947 0 7.703 1.925 10.047 5.153 2.329 3.205 2.954 7.228 1.717 11.038l-15.289 47.076 39.997 29.161c4.358 3.165 6.155 8.775 4.471 13.958-1.671 5.144-6.382 8.599-11.724 8.599" /></g></g></g></svg>
