<svg width="21.333" height="21.333" version="1.1" viewBox="0 0 21.333332 21.333332" xml:space="preserve" xmlns="http://www.w3.org/2000/svg"><defs><clipPath id="clipPath4518"><path d="m0 18h18v-18h-18z"/></clipPath></defs><g transform="matrix(1.3333 0 0 -1.3333 -1.3333 22.667)"><g clip-path="url(#clipPath4518)"><g transform="translate(9,1)"><path d="m0 0c-0.574 0-2.043 0.47-2.043 1.043v13.914c0 0.573 1.469 1.043 2.043 1.043s2.043-0.47 2.043-1.043v-13.914c0-0.573-1.469-1.043-2.043-1.043" fill="#83caf5"/></g><g transform="translate(1,9)"><path d="m0 0c0 0.574 0.47 2.043 1.043 2.043h13.914c0.573 0 1.043-1.469 1.043-2.043s-0.47-2.043-1.043-2.043h-13.914c-0.573 0-1.043 1.469-1.043 2.043" fill="#83caf5"/></g></g></g></svg>
