<svg width="17.295" height="17.295" version="1.1" viewBox="0 0 17.294849 17.295498" xml:space="preserve" xmlns="http://www.w3.org/2000/svg"><defs><clipPath id="clipPath18"><path d="m0 18h18v-18h-18z"/></clipPath></defs><g transform="matrix(1.3333 0 0 -1.3333 -3.3529 20.648)"><g clip-path="url(#clipPath18)"><g transform="translate(3.3433,3.3433)"><path d="m0 0c-0.406 0.406-1.113 1.777-0.707 2.183l9.838 9.838c0.406 0.406 1.777-0.302 2.182-0.708 0.406-0.405 1.114-1.776 0.708-2.182l-9.838-9.838c-0.406-0.406-1.777 0.301-2.183 0.707" fill="#83caf5"/></g><g transform="translate(3.3433 14.657)"><path d="m0 0c0.406 0.406 1.777 1.113 2.183 0.707l9.838-9.838c0.406-0.406-0.302-1.777-0.708-2.182-0.405-0.406-1.776-1.114-2.182-0.708l-9.838 9.838c-0.406 0.406 0.301 1.777 0.707 2.183" fill="#83caf5"/></g></g></g></svg>
