<svg width="24.816" height="23.5" version="1.1" viewBox="0 0 24.816326 23.5" xml:space="preserve" xmlns="http://www.w3.org/2000/svg"><style type="text/css">
	.st0{stroke:#42C134;stroke-miterlimit:10;}
	.st1{fill:#F1F5F8;}
	.st2{fill:#3C94EB;}
</style><path class="st2" d="m19.608 23.5c-0.2 0-0.4-0.1-0.6-0.2l-6.1-3.7c-0.3-0.2-0.8-0.2-1.1 0l-6.1 3.7c-0.5 0.3-0.9 0.2-1.1-0.1-0.1-0.1-0.2-0.4-0.1-0.8l1.6-6.9c0.1-0.3-0.1-0.8-0.3-1l-5.4-4.7c-0.5-0.4-0.4-0.8-0.4-0.9s0.2-0.5 0.8-0.5l7.1-0.6c0.3 0 0.8-0.3 0.9-0.6l2.8-6.6c0.2-0.6 0.6-0.6 0.8-0.6s0.5 0.1 0.8 0.6l2.8 6.6c0.1 0.3 0.6 0.6 0.9 0.6l7.1 0.6c0.6 0.1 0.8 0.4 0.8 0.5s0.1 0.5-0.4 0.9l-5.4 4.7c-0.3 0.2-0.4 0.7-0.3 1l1.6 6.9c0.1 0.4 0 0.7-0.1 0.8-0.1 0.2-0.3 0.3-0.6 0.3zm-18.5-14.4l5.3 4.5c0.5 0.4 0.8 1.3 0.6 2l-1.6 6.8 5.9-3.6c0.6-0.3 1.5-0.3 2.1 0l5.9 3.6-1.6-6.8c-0.2-0.7 0.1-1.5 0.6-2l5.3-4.5-6.9-0.6c-0.7-0.1-1.4-0.6-1.7-1.2l-2.7-6.4-2.7 6.4c-0.3 0.6-1 1.2-1.7 1.2z" fill="#3c94eb"/></svg>
