<svg xmlns="http://www.w3.org/2000/svg" width="22" height="21" viewBox="0 0 22 21"><path fill="#3593ea" d="M21.87 8.13A1.9 1.9 0 0 0 20.2 6.8l-5.05-.37-1.92-4.73A1.88 1.88 0 0 0 11.47.5c-.78 0-1.47.47-1.76 1.2L7.8 6.44l-5.05.37a1.9 1.9 0 0 0-1.67 1.33c-.24.75-.02 1.55.58 2.06l3.87 3.3-1.21 4.97a1.92 1.92 0 0 0 1.85 2.39c.35 0 .7-.1 1-.3l4.31-2.7 4.3 2.7a1.88 1.88 0 0 0 2.51-.45c.36-.46.48-1.06.34-1.64l-1.21-4.97 3.87-3.3c.59-.51.82-1.32.58-2.07zm-1.54.92l-4.23 3.6a.76.76 0 0 0-.24.75l1.32 5.42c.04.14.01.25-.07.35a.41.41 0 0 1-.55.11l-4.7-2.94a.72.72 0 0 0-.78 0l-4.69 2.94a.42.42 0 0 1-.56-.1.4.4 0 0 1-.07-.36l1.32-5.42a.74.74 0 0 0-.24-.75l-4.23-3.6a.43.43 0 0 1-.13-.45.41.41 0 0 1 .37-.3l5.51-.4c.28-.02.53-.2.64-.46l2.08-5.17c.1-.24.31-.26.39-.26a.4.4 0 0 1 .38.26l2.09 5.17c.11.26.35.44.63.46l5.51.4c.25.03.34.22.37.3a.4.4 0 0 1-.12.45z"/></svg>