<svg version="1.1" viewBox="0 0 15 15" xml:space="preserve" xmlns="http://www.w3.org/2000/svg"><style type="text/css">
	.st0{stroke:#42C134;stroke-miterlimit:10;}
	.st1{fill:#ACACAC;}
</style><text class="st0" x="679" y="379" font-family="MyriadPro-Regular" font-size="12px" stroke="#42c134" stroke-miterlimit="10">42c134</text>
<g transform="matrix(.98667 0 0 .98667 -3.8195 -4.7333)" fill="#acacac"><path class="st1" d="m11.5 5c-4.1 0-7.5 3.4-7.5 7.5s3.4 7.5 7.5 7.5 7.5-3.4 7.5-7.5-3.4-7.5-7.5-7.5zm0 14.4c-3.8 0-6.9-3.1-6.9-6.9s3.1-6.9 6.9-6.9 6.9 3.1 6.9 6.9-3.1 6.9-6.9 6.9z"/><path class="st1" d="m11.8 11.1v-4.4c0-0.2-0.1-0.3-0.3-0.3s-0.3 0.1-0.3 0.3v4.5c-0.5 0.1-1 0.5-1.1 1.1h-2.5c-0.2 0-0.3 0.1-0.3 0.3s0.1 0.3 0.3 0.3h2.5c0.1 0.6 0.7 1.1 1.4 1.1 0.8 0 1.4-0.6 1.4-1.4s-0.5-1.3-1.1-1.5z"/></g></svg>
