<svg width="20.8" height="17.1" version="1.1" viewBox="0 0 20.799999 17.1" xml:space="preserve" xmlns="http://www.w3.org/2000/svg"><style type="text/css">
	.st1{fill:#02ABF0;}
</style><path class="st1" d="m20.8 2.1c-0.8 0.3-1.6 0.6-2.5 0.7 0.9-0.5 1.6-1.4 1.9-2.4-0.8 0.5-1.7 0.8-2.7 1-0.8-0.8-1.9-1.4-3.1-1.4-2.4 0-4.3 1.9-4.3 4.3 0 0.3 0 0.7 0.1 1-3.6-0.2-6.7-1.9-8.8-4.5-0.4 0.6-0.6 1.4-0.6 2.2 0 1.5 0.8 2.8 1.9 3.6-0.7 0-1.4-0.2-1.9-0.5v0.1c0 2.1 1.5 3.8 3.4 4.2-0.4 0.1-0.7 0.2-1.1 0.2-0.3 0-0.5 0-0.8-0.1 0.5 1.7 2.1 2.9 4 3-1.5 1.2-3.3 1.8-5.3 1.8-0.3 0-0.7 0-1-0.1 1.9 1.2 4.2 1.9 6.6 1.9 7.9 0 12.2-6.5 12.2-12.2v-0.6c0.7-0.6 1.4-1.3 2-2.2z" fill="#02abf0"/></svg>
