<svg width="20.228" height="14.3" version="1.1" viewBox="0 0 20.228001 14.3" xml:space="preserve" xmlns="http://www.w3.org/2000/svg"><style type="text/css">
	.st1{fill:#CC201C;}
</style><path class="st1" d="m20.1 3.1s-0.2-1.4-0.8-2c-0.8-0.8-1.6-0.8-2-0.9-2.9-0.2-7.2-0.2-7.2-0.2s-4.3 0-7.1 0.2c-0.4 0-1.3 0.1-2 0.9-0.6 0.6-0.8 2-0.8 2s-0.2 1.6-0.2 3.3v1.5c0 1.6 0.2 3.3 0.2 3.3s0.2 1.4 0.8 2c0.8 0.8 1.8 0.8 2.2 0.9 1.6 0.2 6.9 0.2 6.9 0.2s4.3 0 7.1-0.2c0.4 0 1.3-0.1 2-0.9 0.6-0.6 0.8-2 0.8-2s0.2-1.6 0.2-3.3v-1.5c0.1-1.7-0.1-3.3-0.1-3.3zm-12.1 6.7v-5.7l5.5 2.9z" fill="#cc201c"/></svg>
