<svg width="22.4" height="35.2" viewBox="0 0 22.4 35.200001" xmlns="http://www.w3.org/2000/svg"><style>.st0{stroke:#42c134;stroke-miterlimit:10}.st1{fill:#d35243}.st2{fill:#fff}</style><text class="st0" x="668.4" y="375" font-family="MyriadPro-Regular" font-size="12" stroke="#42c134" stroke-miterlimit="10">42c134</text><path class="st1" d="M11.2 0c2.4 0 3.1 1.7 3.8 3.4.3.7 6.5 17.7 6.7 18.2.1.1 0 .4-.2.5s-3.4 1.3-3.6 1.4-.4 0-.4-.2c-.1-.2-1.4-3.9-1.6-4.3H6.7c-.2.4-1.5 4.1-1.6 4.3s-.3.3-.4.2c-.2-.1-3.4-1.3-3.6-1.4s-.3-.3-.2-.5C1 21 7.1 4.3 7.4 3.4 8 1.7 8.8 0 11.2 0zM.3 30.4c-.2 0-.3.2-.3.4v4c0 .2.2.4.3.4h21.8c.2 0 .3-.2.3-.4v-4c0-.2-.2-.4-.3-.4H.3" fill="#d35243"/><path class="st2" fill="#fff" d="M14.3 14.9l-3.1-9.4-3.1 9.4z"/></svg>