<svg viewBox="0 0 32 21" xmlns="http://www.w3.org/2000/svg"><style>.st0{stroke:#42c134;stroke-miterlimit:10}.st1{fill:#ecf0f1}.st2{fill:#34495e}.st3{fill:#f1c40f}</style><text class="st0" x="673" y="367.5" font-family="MyriadPro-Regular" font-size="12" stroke="#42c134" stroke-miterlimit="10">42c134</text><g id="E-Com" transform="translate(-3 -9.5)"><g id="Visa_6_"><path class="st1" d="M33 9.5H5c-1.1 0-2 .9-2 2v17c0 1.1.9 2 2 2h28c1.1 0 2-.9 2-2v-17c0-1.1-.9-2-2-2z" fill="#ecf0f1" id="Visa"/><path class="st2" d="M33 9.5H5c-1.1 0-2 .9-2 2v2h32v-2c0-1.1-.9-2-2-2z" fill="#34495e" id="Visa_1_"/><path class="st3" d="M3 26.5v2c0 1.1.9 2 2 2h28c1.1 0 2-.9 2-2v-2z" fill="#f1c40f" id="Visa_2_"/><path class="st2" d="M21.5 19.2c-.7-.4-1.1-.6-1.1-1 0-.3.4-.7 1.1-.7.6 0 1.1.1 1.5.3l.2.1.3-1.7c-.4-.2-1-.3-1.7-.3-1.9 0-3.3 1.1-3.3 2.6 0 1.1 1 1.7 1.7 2.1.8.4 1 .6 1 1 0 .5-.6.8-1.2.8-.8 0-1.2-.1-1.8-.4l-.3-.1-.3 1.7c.5.2 1.3.4 2.2.4 2 0 3.4-1 3.4-2.6 0-1-.5-1.7-1.7-2.2zm6.9-3.1h-1.5c-.5 0-.8.1-1 .6L23 23.8h2s.3-1 .4-1.2h2.5c.1.3.2 1.2.2 1.2H30zm-2.4 5c.2-.4.8-2.2.8-2.2s.2-.4.3-.7l.1.7s.4 1.8.4 2.2zm-11.5 2.7h1.9l1.2-7.7h-1.9zm-1.7-7.7l-1.9 5.3-.2-1.1c-.4-1.2-1.5-2.6-2.7-3.3l1.7 6.8h2.1l3.1-7.7h-2.1z" fill="#34495e" id="Visa_3_"/><path class="st3" d="M10 16.7c-.1-.5-.5-.6-.9-.7H6v.2c2.4.6 4.1 2.2 4.7 4.1z" fill="#f1c40f" id="Visa_4_"/></g></g></svg>