<svg width="20" height="26.3" viewBox="0 0 20 26.299999" xmlns="http://www.w3.org/2000/svg"><style>.st0{stroke:#42c134;stroke-miterlimit:10}.st1{fill:#067fcb}.st2{fill:#fff}.st3{fill:#7cc9f9}</style><text class="st0" x="676" y="381.2" font-family="MyriadPro-Regular" font-size="12" stroke="#42c134" stroke-miterlimit="10">42c134</text><path class="st1" d="M20 7v17.2c0 1.1-.9 2.1-2.1 2.1H2.1c-1.2-.1-2.1-1-2.1-2.2v-22C0 1 .9 0 2.1 0h11z" fill="#067fcb"/><path class="st2" d="M15.1 15.6c-.1-.1-.3-.1-.4-.1-.3 0-.6.1-.7.3s-.2.5-.2.9.1.7.2.9.4.3.7.3c.1 0 .3 0 .4-.1.1 0 .2-.1.4-.3l.7.5c-.1.2-.3.4-.6.5-.2.1-.5.2-.9.2-.6 0-1.1-.2-1.4-.5s-.5-.8-.5-1.5.2-1.2.5-1.5c.3-.4.8-.5 1.4-.5.3 0 .6.1.9.2s.5.3.6.5l-.7.5c-.2-.2-.3-.3-.4-.3zm-4.9 3.2c-1.2 0-1.9-.7-1.9-2 0-.7.1-1.2.4-1.5.3-.4.8-.5 1.4-.5s1.1.2 1.4.5c.3.4.4.9.4 1.5s-.1 1.1-.4 1.5c-.2.3-.7.5-1.3.5zm.7-3c-.1-.2-.4-.3-.7-.3s-.5.1-.7.3c-.1.2-.2.5-.2.9s.1.7.2.9.4.3.7.3.5-.1.7-.3c.1-.2.2-.5.2-.9s-.1-.7-.2-.9zm-4.3 2.5c-.2.2-.4.3-.6.4s-.4.1-.7.1c-.5 0-.9-.2-1.1-.5-.3-.4-.4-.8-.4-1.5s.1-1.2.4-1.5c.3-.4.7-.5 1.2-.5.2 0 .4 0 .6.1s.4.2.5.3v-2h1v5.5h-.9zm-.1-2.4c-.1-.1-.2-.2-.4-.2-.1-.1-.3-.1-.5-.1-.3 0-.5.1-.6.3-.2.2-.2.5-.2.9s.1.7.2.9.3.3.6.3c.2 0 .3 0 .5-.1s.3-.2.4-.3z" fill="#fff"/><path class="st3" d="M20 6.6v.9h-5.6c-1.2 0-1.7-.9-1.7-2.1V.1h.9z" fill="#7cc9f9"/></svg>