<svg id="Слой_1" xmlns="http://www.w3.org/2000/svg" viewBox="0 0 28 28"><style>.st0{stroke:#42c134;stroke-miterlimit:10}.st1{fill:#067fcb}.st2{fill:#fff}.st3{fill:#7cc9f9}</style><text transform="translate(681 382)" class="st0" font-family="MyriadPro-Regular" font-size="12">42c134</text><path class="st1" d="M25 7.8V25c0 1.1-.9 2.1-2.1 2.1H7.1C5.9 27 5 26.1 5 24.9v-22C5 1.8 5.9.8 7.1.8h11l6.9 7z"/><path class="st2" d="M20.1 16.4c-.1-.1-.3-.1-.4-.1-.3 0-.6.1-.7.3-.1.2-.2.5-.2.9s.1.7.2.9c.1.2.4.3.7.3.1 0 .3 0 .4-.1.1 0 .2-.1.4-.3l.7.5c-.1.2-.3.4-.6.5-.2.1-.5.2-.9.2-.6 0-1.1-.2-1.4-.5-.3-.3-.5-.8-.5-1.5s.2-1.2.5-1.5c.3-.4.8-.5 1.4-.5.3 0 .6.1.9.2.3.1.5.3.6.5l-.7.5c-.2-.2-.3-.3-.4-.3zm-4.9 3.2c-1.2 0-1.9-.7-1.9-2 0-.7.1-1.2.4-1.5.3-.4.8-.5 1.4-.5.6 0 1.1.2 1.4.5.3.4.4.9.4 1.5s-.1 1.1-.4 1.5c-.2.3-.7.5-1.3.5zm.7-3c-.1-.2-.4-.3-.7-.3-.3 0-.5.1-.7.3-.1.2-.2.5-.2.9s.1.7.2.9c.1.2.4.3.7.3.3 0 .5-.1.7-.3.1-.2.2-.5.2-.9s-.1-.7-.2-.9zm-4.3 2.5c-.2.2-.4.3-.6.4-.2.1-.4.1-.7.1-.5 0-.9-.2-1.1-.5-.3-.4-.4-.8-.4-1.5s.1-1.2.4-1.5c.3-.4.7-.5 1.2-.5.2 0 .4 0 .6.1.2.1.4.2.5.3v-2h1v5.5h-.9v-.4zm-.1-2.4c-.1-.1-.2-.2-.4-.2-.1-.1-.3-.1-.5-.1-.3 0-.5.1-.6.3-.2.2-.2.5-.2.9s.1.7.2.9c.1.2.3.3.6.3.2 0 .3 0 .5-.1s.3-.2.4-.3v-1.7z"/><path class="st3" d="M25 7.4v.9h-5.6c-1.2 0-1.7-.9-1.7-2.1V.9h.9L25 7.4z"/></svg>