<svg xmlns="http://www.w3.org/2000/svg"><symbol id="icon_home" viewBox="0 0 14 11"><path d="M7 2.82L2.72 6.14v3.41c0 .12.04.23.13.32.1.09.2.13.34.13h2.86V7.3h1.9V10h2.86c.13 0 .24-.04.34-.13.1-.1.14-.2.14-.32V6.14zm5.92 2.56l-1.63-1.27V1.24a.21.21 0 0 0-.07-.16.24.24 0 0 0-.17-.06H9.62a.24.24 0 0 0-.17.06.21.21 0 0 0-.07.16v1.37L7.57 1.18A.9.9 0 0 0 7 1a.9.9 0 0 0-.57.18l-5.35 4.2a.2.2 0 0 0-.08.15c0 .07.01.12.05.17l.46.52c.04.04.1.07.16.08.06 0 .12-.01.18-.05L7 2.2l5.15 4.05c.04.03.1.05.16.05h.02c.07-.01.12-.04.16-.08l.46-.52c.04-.05.06-.1.05-.17a.2.2 0 0 0-.08-.15z"/></symbol><symbol id="icon_next" viewBox="0 0 21 48"><path d="M1 0L0 1l19 22.43L0 47l1 1 20-24.71z"/></symbol><symbol id="icon_prev" viewBox="0 0 21 48"><path d="M20 0l1 1L2 23.43 21 47l-1 1L0 23.29z"/></symbol></svg>