<svg xmlns="http://www.w3.org/2000/svg"><defs><clipPath id="clipPath30"><path d="M0 31.615h35.221V0H0z"/></clipPath><filter id="gaussian_blur"><feGaussianBlur in="SourceGraphic" stdDeviation="3"/></filter><clipPath id="clipPath80"><path d="M0 11.183h14.905V0H0z"/></clipPath><clipPath id="clipPath268"><path d="M0 350.176h599.133V0H0z"/></clipPath></defs><symbol id="icon_angle-small" viewBox="0 0 9.69 20"><path id="Фигура_7" class="cls-1" d="M1361.27 1690l1.41.42-7.85 9.34 7.85 9.82-1.41.42-8.27-10.3z" transform="translate(-1353 -1690)"/></symbol><symbol id="icon_balance" viewBox="0 0 46.960934 42.152931"><path d="M4.38 4.429h16.6z" stroke-linecap="round" stroke-linejoin="round" stroke-miterlimit="22.926" stroke-width="1.92"/><g clip-path="url(#clipPath30)" transform="matrix(1.3333 0 0 -1.3333 0 42.153)"><path d="M17.809.72v26.128M9.627.72H25.99m-8.181 30.174a2.023 2.023 0 1 0 0-4.045 2.023 2.023 0 0 0 0 4.045zM.723 11.989h11.775M1.022 10.804C2.138 8.658 4.181 7.15 6.611 7.15c2.405 0 4.423 1.477 5.551 3.583.431.807.428 1.299.12 2.242L7.46 25.556a.716.716 0 0 1-1.37.053l.002-.002C4.372 20.635 2.65 17.862.931 12.89c-.295-.854-.294-1.346.091-2.086zm21.701 1.185h11.775m-11.476-1.185c1.116-2.146 3.159-3.654 5.589-3.654 2.405 0 4.423 1.477 5.551 3.583.431.807.428 1.299.12 2.242L29.46 25.556a.716.716 0 0 1-1.37.053l.002-.002c-1.72-4.972-3.442-7.745-5.161-12.717-.295-.854-.294-1.346.091-2.086zm-2.737 17.49h12.45z" stroke-linecap="round" stroke-linejoin="round" stroke-miterlimit="22.926" stroke-width="1.44"/></g></symbol><symbol id="icon_check" viewBox="0 0 19.873734 14.910133"><g clip-path="url(#clipPath80)" transform="matrix(1.3333 0 0 -1.3333 0 14.91)"><path d="M0 0l-3.399 3.296a1.103 1.103 0 0 0 0 1.562 1.1 1.1 0 0 0 1.562 0l3.334-3.334" transform="translate(3.724 1.496)"/><path d="M0 0l9.336 9.335a1.105 1.105 0 1 0 1.562-1.563L1.604-1.522" transform="translate(3.683 1.522)"/></g></symbol><symbol id="icon_disk" viewBox="0 0 9 9"><path d="M4.5 0a4.5 4.5 0 1 1 0 9 4.5 4.5 0 0 1 0-9z"/></symbol><symbol id="icon_hands" viewBox="0 0 798.84399 466.90134"><g clip-path="url(#clipPath268)" transform="matrix(1.3333 0 0 -1.3333 0 466.9)"><path d="M0 0a6.96 6.96 0 0 0-2.481.457l-76.956 29.188a7 7 0 0 0-4.349 8.068l33.875 151.92a7 7 0 0 0 8.432 5.291l43.847-10.301a18.772 18.772 0 0 1 13.46 1.965l64.767 36.619a32.906 32.906 0 0 0 29.916 1.227l17.484-8.074a7.001 7.001 0 0 0 .62-12.385L88.026 180.05a9.999 9.999 0 0 1-4.585-5.994l-17.362-63.269a13.254 13.254 0 0 1 8.174-15.997l10.206-3.821c3.565-1.336 7.393-1.111 10.778.637s5.786 4.737 6.764 8.418l12.659 47.692a24.112 24.112 0 0 0 12.023 15.098l25.831 13.62a7.001 7.001 0 0 0 6.529-12.385l-25.83-13.619a10.07 10.07 0 0 1-5.022-6.306l-12.659-47.691a27.366 27.366 0 0 0-13.873-17.267 27.378 27.378 0 0 0-22.109-1.309l-10.206 3.822c-13.323 4.988-20.53 19.094-16.766 32.813l17.363 63.27a23.923 23.923 0 0 0 10.976 14.348l29.079 17.141-5.354 2.472a18.874 18.874 0 0 1-17.158-.703L22.718 174.4a32.773 32.773 0 0 0-23.521-3.413l-36.985 8.689-31.014-139.09L2.483 13.549A7.003 7.003 0 1 0 0 .002" transform="translate(148.46 114.44)"/><path d="M0 0a7 7 0 0 0-6.079 10.459l17.544 30.876-84.561 48.253a7.001 7.001 0 0 0 6.94 12.16l90.629-51.717a7 7 0 0 0 2.616-9.538L6.093 3.543A6.996 6.996 0 0 0 0 0" transform="translate(429.91 107.36)"/><path d="M0 0a7 7 0 0 0-6.079 10.459L7.102 33.653c2.418 4.257.939 9.715-3.297 12.168l-153.85 89.09a7 7 0 1 0 7.016 12.115l153.84-89.089c10.863-6.291 14.655-20.287 8.453-31.2L6.084 3.543A6.996 6.996 0 0 0-.009 0" transform="translate(450.77 143.71)"/><path d="M0 0a7 7 0 0 0-6.079 10.459l17.544 30.875-84.561 48.254a7.001 7.001 0 0 0 6.94 12.16l90.629-51.717a7 7 0 0 0 2.616-9.538L6.093 3.543A6.996 6.996 0 0 0 0 0" transform="translate(408.86 70.354)"/><path d="M0 0a22.811 22.811 0 0 0-11.412 3.071l-53.605 30.864a7 7 0 0 0 6.987 12.132l53.604-30.863a8.88 8.88 0 0 1 6.816-.879 8.888 8.888 0 0 1 5.431 4.214l9.619 16.929-84.56 48.253a7 7 0 0 0 6.939 12.16l90.629-51.717a7 7 0 0 0 2.616-9.538L19.993 11.623C16.953 6.271 12.007 2.434 6.068.816A23.138 23.138 0 0 0 0 0" transform="translate(381.89 39.274)"/><path d="M0 0l16.614-9.44a9.25 9.25 0 0 1 4.624-1.229 9.421 9.421 0 0 1 8.179 4.753l32.898 57.895-24.778 14.08zm21.238-24.669c-4.03 0-8.02 1.057-11.54 3.057l-22.7 12.898A7.001 7.001 0 0 0-15.63.83l44.453 78.231a6.998 6.998 0 0 0 9.544 2.627l36.95-20.996a6.996 6.996 0 0 0 2.628-9.544l-36.356-63.98a23.445 23.445 0 0 0-20.351-11.837" transform="translate(248.51 24.669)"/><path d="M0 0l24.778-14.08 37.537 66.059-17.388 9.88a8.376 8.376 0 0 1-4.185 1.113 8.529 8.529 0 0 1-7.404-4.303zm27.399-30.625a6.972 6.972 0 0 0-3.451.915l-36.95 20.996A7.001 7.001 0 0 0-15.63.83l36.796 64.755a22.554 22.554 0 0 0 19.576 11.387 22.51 22.51 0 0 0 11.101-2.941l23.474-13.339a6.996 6.996 0 0 0 2.628-9.544l-44.453-78.23a6.996 6.996 0 0 0-6.093-3.543" transform="translate(211.5 45.713)"/><path d="M0 0l24.778-14.08 28.635 50.393-17.388 9.881a8.362 8.362 0 0 1-4.184 1.113 8.53 8.53 0 0 1-7.405-4.304zm27.406-30.624c-1.202 0-2.394.31-3.458.914l-36.95 20.996A7 7 0 0 0-15.63.83l27.894 49.09a22.556 22.556 0 0 0 19.577 11.387c3.877 0 7.716-1.017 11.1-2.941l23.474-13.339a7 7 0 0 0 2.628-9.544L33.492-27.082a7 7 0 0 0-6.086-3.542" transform="translate(174.35 66.843)"/><path d="M0 0a8.525 8.525 0 0 1-7.404-4.303L-19.63-25.817c-2.557-4.502-.976-10.246 3.525-12.803L.51-48.062l21.063 37.069L4.185-1.112A8.385 8.385 0 0 1 0 0m3.138-64.605a6.99 6.99 0 0 0-3.458.914l-22.701 12.899c-11.213 6.371-15.152 20.678-8.781 31.891l12.226 21.514A22.552 22.552 0 0 0 0 14c3.877 0 7.716-1.017 11.101-2.94L34.575-2.279a6.999 6.999 0 0 0 2.628-9.544L9.224-61.063a6.998 6.998 0 0 0-6.086-3.542" transform="translate(161.75 121.93)"/><path d="M0 0a7.003 7.003 0 0 0-6.827 5.488 6.999 6.999 0 0 0 5.32 8.348l84.101 18.631-29.951 139.51-64.228-12.29a32.819 32.819 0 0 0-22.796 3.939l-82.12 48.249c-5.691 3.344-12.82 3.446-18.604.267l-25.065-13.778a7.001 7.001 0 0 0-6.744 12.27l25.065 13.777c10.088 5.542 22.517 5.366 32.44-.466l82.12-48.249a18.836 18.836 0 0 1 13.073-2.259l70.95 13.576a6.998 6.998 0 0 0 8.16-5.406l32.847-153a6.998 6.998 0 0 0-5.33-8.303L1.521.169A7.025 7.025 0 0 0 0 .001" transform="translate(437.06 119.94)"/><path d="M0 0l42.009-195.67 44.533 9.562L44.533 9.562zm36.634-210.98a7.001 7.001 0 0 0-6.844 5.53L-15.157 3.91a7 7 0 0 0 5.374 8.314l58.221 12.5a6.997 6.997 0 0 0 8.314-5.374l44.947-209.36a7 7 0 0 0-5.374-8.313l-58.221-12.5a6.982 6.982 0 0 0-1.47-.156" transform="translate(497.28 322.37)"/><path d="M0 0l44.533-9.562 42.009 195.67-44.533 9.562zm49.908-24.875c-.49 0-.982.052-1.47.156l-58.221 12.5a7 7 0 0 0-5.374 8.314l44.947 209.36a7 7 0 0 0 8.314 5.374l58.221-12.5a7 7 0 0 0 5.374-8.313L56.752-19.344a7.006 7.006 0 0 0-3.043-4.409 7.01 7.01 0 0 0-3.801-1.121" transform="translate(15.314 139.19)"/></g></symbol><symbol id="icon_home" viewBox="0 0 14 11"><path d="M7 2.82L2.72 6.14v3.41c0 .12.04.23.13.32.1.09.2.13.34.13h2.86V7.3h1.9V10h2.86c.13 0 .24-.04.34-.13.1-.1.14-.2.14-.32V6.14zm5.92 2.56l-1.63-1.27V1.24a.21.21 0 0 0-.07-.16.24.24 0 0 0-.17-.06H9.62a.24.24 0 0 0-.17.06.21.21 0 0 0-.07.16v1.37L7.57 1.18A.9.9 0 0 0 7 1a.9.9 0 0 0-.57.18l-5.35 4.2a.2.2 0 0 0-.08.15c0 .07.01.12.05.17l.46.52c.04.04.1.07.16.08.06 0 .12-.01.18-.05L7 2.2l5.15 4.05c.04.03.1.05.16.05h.02c.07-.01.12-.04.16-.08l.46-.52c.04-.05.06-.1.05-.17a.2.2 0 0 0-.08-.15z"/></symbol><symbol id="icon_lock" viewBox="0 0 18 22"><path d="M3.33 22h11.34c1.84 0 3.33-1.38 3.33-3.12v-6.97c0-1.42-.94-2.63-2.42-3.02v-2.2A5.8 5.8 0 0 0 9.67.99H8.33C5.04 1 2.28 3.57 2.28 6.7v2.2a3.15 3.15 0 0 0-2.28 3v6.97C0 20.62 1.49 22 3.33 22zm5-19.47h1.34c2.41 0 4.3 1.88 4.3 4.16v2.07H3.89V6.7c0-2.28 2.03-4.16 4.44-4.16zm6.34 17.94H3.33c-.95 0-1.72-.72-1.72-1.63v-6.92c0-.9.77-1.63 1.72-1.63h11.34c.95 0 1.72.73 1.72 1.63v6.92c0 .9-.77 1.63-1.72 1.63zm-5.94-1.9c.44 0 .81-.35.81-.77v-2.42c0-.42-.37-.76-.81-.76-.44 0-.81.34-.81.76v2.42c0 .42.37.76.81.76z"/></symbol><symbol id="icon_next" viewBox="0 0 21 48"><path d="M1 0L0 1l19 22.43L0 47l1 1 20-24.71z"/></symbol><symbol id="icon_pencil" viewBox="0 0 22 22"><path d="M2.37 20.6l.24-.06.23-.06-.34-.35zM21.79 7.1c.23.22.23.59 0 .81L10.06 19.66a.62.62 0 0 1-.29.15l-4.02 1.07-2.84.77H2.9l-.77.21-.42.1v.01a.7.7 0 0 1-.31 0 .57.57 0 0 1-.4-.7l.64-2.36.01-.08.44-1.62 1.07-4.01a.69.69 0 0 1 .12-.25l.02-.03.01-.01h.01v-.01L15.05 1.16a.58.58 0 0 1 .82 0zm-1.22.4l-5.11-5.12L4.54 13.31l2.56 2.56 2.56 2.56zM4.12 20.13l1.34-.35 3.08-.84-2.26-2.26-2.25-2.25-.84 3.08-.35 1.34.64.64z"/></symbol><symbol id="icon_popup-close" viewBox="0 0 22 24"><path stroke-linecap="round" stroke-linejoin="round" stroke-miterlimit="50" stroke-width="2" d="M1 1.99L20.99 22m0-20.01L1 22"/></symbol><symbol id="icon_prev" viewBox="0 0 21 48"><path d="M20 0l1 1L2 23.43 21 47l-1 1L0 23.29z"/></symbol><symbol id="icon_star" viewBox="0 0 22 21"><path d="M21.87 8.13A1.9 1.9 0 0 0 20.2 6.8l-5.05-.37-1.92-4.73A1.88 1.88 0 0 0 11.47.5c-.78 0-1.47.47-1.76 1.2L7.8 6.44l-5.05.37a1.9 1.9 0 0 0-1.67 1.33c-.24.75-.02 1.55.58 2.06l3.87 3.3-1.21 4.97a1.92 1.92 0 0 0 1.85 2.39c.35 0 .7-.1 1-.3l4.31-2.7 4.3 2.7a1.88 1.88 0 0 0 2.51-.45c.36-.46.48-1.06.34-1.64l-1.21-4.97 3.87-3.3c.59-.51.82-1.32.58-2.07zm-1.54.92l-4.23 3.6a.76.76 0 0 0-.24.75l1.32 5.42c.04.14.01.25-.07.35a.41.41 0 0 1-.55.11l-4.7-2.94a.72.72 0 0 0-.78 0l-4.69 2.94a.42.42 0 0 1-.56-.1.4.4 0 0 1-.07-.36l1.32-5.42a.74.74 0 0 0-.24-.75l-4.23-3.6a.43.43 0 0 1-.13-.45.41.41 0 0 1 .37-.3l5.51-.4c.28-.02.53-.2.64-.46l2.08-5.17c.1-.24.31-.26.39-.26a.4.4 0 0 1 .38.26l2.09 5.17c.11.26.35.44.63.46l5.51.4c.25.03.34.22.37.3a.4.4 0 0 1-.12.45z"/></symbol></svg>