<svg xmlns="http://www.w3.org/2000/svg"><defs><clipPath id="clipPath30"><path d="M0 31.615h35.221V0H0z"/></clipPath><filter id="gaussian_blur"><feGaussianBlur in="SourceGraphic" stdDeviation="3"/></filter><clipPath id="clipPath80"><path d="M0 11.183h14.905V0H0z"/></clipPath><clipPath id="clipPath48"><path d="M0 449.2h486.35V0H0z"/></clipPath><clipPath id="clipPath268"><path d="M0 350.176h599.133V0H0z"/></clipPath><clipPath id="clipPath26"><path d="M0 508.048h389.648V0H0z"/></clipPath><clipPath id="clipPath74"><path d="M0 483.364h385.508V0H0z"/></clipPath></defs><symbol id="icon_angle-small" viewBox="0 0 9.69 20"><path id="Фигура_7" class="cls-1" d="M1361.27 1690l1.41.42-7.85 9.34 7.85 9.82-1.41.42-8.27-10.3z" transform="translate(-1353 -1690)"/></symbol><symbol id="icon_balance" viewBox="0 0 46.960934 42.152931"><path d="M4.38 4.429h16.6z" stroke-linecap="round" stroke-linejoin="round" stroke-miterlimit="22.926" stroke-width="1.92"/><g clip-path="url(#clipPath30)" transform="matrix(1.3333 0 0 -1.3333 0 42.153)"><path d="M17.809.72v26.128M9.627.72H25.99m-8.181 30.174a2.023 2.023 0 1 0 0-4.045 2.023 2.023 0 0 0 0 4.045zM.723 11.989h11.775M1.022 10.804C2.138 8.658 4.181 7.15 6.611 7.15c2.405 0 4.423 1.477 5.551 3.583.431.807.428 1.299.12 2.242L7.46 25.556a.716.716 0 0 1-1.37.053l.002-.002C4.372 20.635 2.65 17.862.931 12.89c-.295-.854-.294-1.346.091-2.086zm21.701 1.185h11.775m-11.476-1.185c1.116-2.146 3.159-3.654 5.589-3.654 2.405 0 4.423 1.477 5.551 3.583.431.807.428 1.299.12 2.242L29.46 25.556a.716.716 0 0 1-1.37.053l.002-.002c-1.72-4.972-3.442-7.745-5.161-12.717-.295-.854-.294-1.346.091-2.086zm-2.737 17.49h12.45z" stroke-linecap="round" stroke-linejoin="round" stroke-miterlimit="22.926" stroke-width="1.44"/></g></symbol><symbol id="icon_check" viewBox="0 0 19.873734 14.910133"><g clip-path="url(#clipPath80)" transform="matrix(1.3333 0 0 -1.3333 0 14.91)"><path d="M0 0l-3.399 3.296a1.103 1.103 0 0 0 0 1.562 1.1 1.1 0 0 0 1.562 0l3.334-3.334" transform="translate(3.724 1.496)"/><path d="M0 0l9.336 9.335a1.105 1.105 0 1 0 1.562-1.563L1.604-1.522" transform="translate(3.683 1.522)"/></g></symbol><symbol id="icon_comment" viewBox="0 0 18 16.781"><path class="cls-1" d="M4 9s-1.667 5.667-4 7a1.61 1.61 0 0 0 1.518.755A16.037 16.037 0 0 0 10 11c0-3-6-2-6-2z"/><ellipse class="cls-2" cx="9" cy="6.5" rx="9" ry="6.5"/></symbol><symbol id="icon_court" viewBox="0 0 648.46802 598.92932"><g clip-path="url(#clipPath48)" transform="matrix(1.3333 0 0 -1.3333 0 598.93)"><path d="M0 0h-458.35v21.12H0zm-424.37 56.241h390.39V35.12h-390.39zm78.724 37.491v115.49c8.153 2.226 14.163 9.696 14.163 18.545V233h12.851v-5.233c0-8.849 6.01-16.319 14.162-18.545V93.732c-8.152-2.225-14.162-9.696-14.162-18.544v-4.947h-12.851v4.947c0 8.848-6.01 16.319-14.163 18.544m-54.866-18.544a5.226 5.226 0 0 0 5.22 5.22h1.942a7 7 0 0 1 7 7v128.14a7 7 0 0 1-7 7h-1.942a5.226 5.226 0 0 0-5.22 5.22v4.62h55.029v-4.62a5.226 5.226 0 0 0-5.22-5.22h-1.943a7 7 0 0 1-7-7V87.408a7 7 0 0 1 7-7h1.943a5.226 5.226 0 0 0 5.22-5.22v-4.621h-55.029zm-23.858 192.93h390.39v-21.121h-390.39zm-21.505 15.524c-.298 1.012.002 1.814.839 2.352l213.11 134.4a5.146 5.146 0 0 0 5.494.001l212.99-134.21c1.17-.723 1.168-1.745.96-2.475-.207-.73-.743-1.6-2.118-1.6h-429.24c-1.055 0-1.739.513-2.036 1.524m284.99-203.24h1.943a5.225 5.225 0 0 0 5.219-5.22v-4.621h-55.028v4.621a5.226 5.226 0 0 0 5.22 5.22h1.942a7 7 0 0 1 7 7v128.14a7 7 0 0 1-7 7h-1.942a5.226 5.226 0 0 0-5.22 5.22v4.62h55.028v-4.62a5.225 5.225 0 0 0-5.219-5.22h-1.943a7 7 0 0 1-7-7V87.394a7 7 0 0 1 7-7m-88.88 13.324v115.49c8.153 2.226 14.162 9.696 14.162 18.545v5.233h12.852v-5.233c0-8.849 6.01-16.319 14.162-18.545V93.718c-8.152-2.225-14.162-9.696-14.162-18.544v-4.947h-12.852v4.947c0 8.848-6.009 16.319-14.162 18.544m-47.704 128.82h-1.942a5.226 5.226 0 0 0-5.22 5.22v4.62h55.028v-4.62a5.225 5.225 0 0 0-5.219-5.22h-1.943a7 7 0 0 1-7-7V87.398a7 7 0 0 1 7-7h1.943a5.225 5.225 0 0 0 5.219-5.22v-4.621h-55.028v4.621a5.226 5.226 0 0 0 5.22 5.22h1.942a7 7 0 0 1 7 7v128.14a7 7 0 0 1-7 7m184.76-13.325V93.723c-8.152-2.225-14.162-9.696-14.162-18.544v-4.947h-12.852v4.947c0 8.848-6.009 16.319-14.162 18.544v115.49c8.153 2.226 14.162 9.696 14.162 18.545v5.233h12.852v-5.233c0-8.849 6.01-16.319 14.162-18.545m54.867 18.545a5.227 5.227 0 0 0-5.221-5.22h-1.942a7 7 0 0 1-7-7V87.398a7 7 0 0 1 7-7h1.942a5.227 5.227 0 0 0 5.221-5.22v-4.621h-55.029v4.621a5.226 5.226 0 0 0 5.22 5.22h1.942a7 7 0 0 1 7 7v128.14a7 7 0 0 1-7 7h-1.942a5.226 5.226 0 0 0-5.22 5.22v4.62h55.029zM6.998 35.108h-26.982v28.121a7 7 0 0 1-7 7h-16.859v4.947c0 8.848-6.011 16.319-14.163 18.544v115.49c8.152 2.226 14.163 9.696 14.163 18.545v5.233h16.859a7 7 0 0 1 7 7v28.121h5.388c7.321 0 13.583 4.731 15.585 11.772 2.001 7.041-.836 14.358-7.012 18.179l-212.94 134.18a19.128 19.128 0 0 1-10.211 2.949 19.125 19.125 0 0 1-10.217-2.953l-213.16-134.44c-6.073-3.903-8.787-11.18-6.754-18.106 2.035-6.927 8.251-11.58 15.47-11.58h5.469v-28.121a7 7 0 0 1 7-7h16.858v-5.233c0-8.849 6.01-16.319 14.162-18.545V93.721c-8.152-2.225-14.162-9.696-14.162-18.544V70.23h-16.858a7 7 0 0 1-7-7V35.109h-26.984a7 7 0 0 1-7-7v-35.12a7 7 0 0 1 7-7H7a7 7 0 0 1 7 7v35.12a7 7 0 0 1-7 7" transform="translate(472.35 14)"/><path d="M0 0c10.718 0 19.437-8.72 19.437-19.437 0-10.718-8.719-19.438-19.437-19.438s-19.437 8.72-19.437 19.438C-19.437-8.72-10.718 0 0 0m0-52.875c18.437 0 33.437 15 33.437 33.438C33.437-1 18.437 14 0 14S-33.438-1-33.438-19.437c0-18.438 15.001-33.438 33.438-33.438" transform="translate(243.18 372.67)"/></g></symbol><symbol id="icon_cross" viewBox="0 0 10 10"><path d="M1.46 1.46l7.08 7.08"/><path stroke-linecap="round" stroke-linejoin="round" stroke-miterlimit="50" stroke-width="2" d="M1.46 1.46l7.08 7.08"/><path d="M8.53 1.46L1.46 8.54"/><path stroke-linecap="round" stroke-linejoin="round" stroke-miterlimit="50" stroke-width="2" d="M8.53 1.46L1.46 8.54"/></symbol><symbol id="icon_disk" viewBox="0 0 9 9"><path d="M4.5 0a4.5 4.5 0 1 1 0 9 4.5 4.5 0 0 1 0-9z"/></symbol><symbol id="icon_eye" viewBox="0 0 17.999616 11.575003"><path d="M16.709 5.787q-1.526-2.369-3.825-3.543.612 1.044.612 2.258 0 1.858-1.32 3.178Q10.856 9 9 9T5.822 7.68q-1.32-1.32-1.32-3.177 0-1.215.612-2.26-2.299 1.175-3.825 3.544 1.335 2.058 3.348 3.278 2.013 1.22 4.362 1.22 2.35 0 4.362-1.22 2.013-1.22 3.348-3.278zM9.481 1.932q0-.2-.14-.34-.141-.141-.342-.141-1.255 0-2.153.898-.899.899-.899 2.154 0 .2.14.34t.342.141q.2 0 .341-.14.14-.14.14-.341 0-.864.613-1.476.613-.613 1.476-.613.2 0 .341-.14.14-.14.14-.341zm8.513 3.855q0 .342-.2.693-1.406 2.31-3.78 3.7-2.375 1.39-5.015 1.39-2.64 0-5.014-1.395Q1.61 8.779.205 6.48q-.201-.35-.201-.693 0-.34.2-.692 1.406-2.3 3.78-3.695Q6.36.005 9 .005T14.015 1.4q2.374 1.396 3.78 3.695.2.351.2.692z" stroke-width=".01"/></symbol><symbol id="icon_hands" viewBox="0 0 798.84399 466.90134"><g clip-path="url(#clipPath268)" transform="matrix(1.3333 0 0 -1.3333 0 466.9)"><path d="M0 0a6.96 6.96 0 0 0-2.481.457l-76.956 29.188a7 7 0 0 0-4.349 8.068l33.875 151.92a7 7 0 0 0 8.432 5.291l43.847-10.301a18.772 18.772 0 0 1 13.46 1.965l64.767 36.619a32.906 32.906 0 0 0 29.916 1.227l17.484-8.074a7.001 7.001 0 0 0 .62-12.385L88.026 180.05a9.999 9.999 0 0 1-4.585-5.994l-17.362-63.269a13.254 13.254 0 0 1 8.174-15.997l10.206-3.821c3.565-1.336 7.393-1.111 10.778.637s5.786 4.737 6.764 8.418l12.659 47.692a24.112 24.112 0 0 0 12.023 15.098l25.831 13.62a7.001 7.001 0 0 0 6.529-12.385l-25.83-13.619a10.07 10.07 0 0 1-5.022-6.306l-12.659-47.691a27.366 27.366 0 0 0-13.873-17.267 27.378 27.378 0 0 0-22.109-1.309l-10.206 3.822c-13.323 4.988-20.53 19.094-16.766 32.813l17.363 63.27a23.923 23.923 0 0 0 10.976 14.348l29.079 17.141-5.354 2.472a18.874 18.874 0 0 1-17.158-.703L22.718 174.4a32.773 32.773 0 0 0-23.521-3.413l-36.985 8.689-31.014-139.09L2.483 13.549A7.003 7.003 0 1 0 0 .002" transform="translate(148.46 114.44)"/><path d="M0 0a7 7 0 0 0-6.079 10.459l17.544 30.876-84.561 48.253a7.001 7.001 0 0 0 6.94 12.16l90.629-51.717a7 7 0 0 0 2.616-9.538L6.093 3.543A6.996 6.996 0 0 0 0 0" transform="translate(429.91 107.36)"/><path d="M0 0a7 7 0 0 0-6.079 10.459L7.102 33.653c2.418 4.257.939 9.715-3.297 12.168l-153.85 89.09a7 7 0 1 0 7.016 12.115l153.84-89.089c10.863-6.291 14.655-20.287 8.453-31.2L6.084 3.543A6.996 6.996 0 0 0-.009 0" transform="translate(450.77 143.71)"/><path d="M0 0a7 7 0 0 0-6.079 10.459l17.544 30.875-84.561 48.254a7.001 7.001 0 0 0 6.94 12.16l90.629-51.717a7 7 0 0 0 2.616-9.538L6.093 3.543A6.996 6.996 0 0 0 0 0" transform="translate(408.86 70.354)"/><path d="M0 0a22.811 22.811 0 0 0-11.412 3.071l-53.605 30.864a7 7 0 0 0 6.987 12.132l53.604-30.863a8.88 8.88 0 0 1 6.816-.879 8.888 8.888 0 0 1 5.431 4.214l9.619 16.929-84.56 48.253a7 7 0 0 0 6.939 12.16l90.629-51.717a7 7 0 0 0 2.616-9.538L19.993 11.623C16.953 6.271 12.007 2.434 6.068.816A23.138 23.138 0 0 0 0 0" transform="translate(381.89 39.274)"/><path d="M0 0l16.614-9.44a9.25 9.25 0 0 1 4.624-1.229 9.421 9.421 0 0 1 8.179 4.753l32.898 57.895-24.778 14.08zm21.238-24.669c-4.03 0-8.02 1.057-11.54 3.057l-22.7 12.898A7.001 7.001 0 0 0-15.63.83l44.453 78.231a6.998 6.998 0 0 0 9.544 2.627l36.95-20.996a6.996 6.996 0 0 0 2.628-9.544l-36.356-63.98a23.445 23.445 0 0 0-20.351-11.837" transform="translate(248.51 24.669)"/><path d="M0 0l24.778-14.08 37.537 66.059-17.388 9.88a8.376 8.376 0 0 1-4.185 1.113 8.529 8.529 0 0 1-7.404-4.303zm27.399-30.625a6.972 6.972 0 0 0-3.451.915l-36.95 20.996A7.001 7.001 0 0 0-15.63.83l36.796 64.755a22.554 22.554 0 0 0 19.576 11.387 22.51 22.51 0 0 0 11.101-2.941l23.474-13.339a6.996 6.996 0 0 0 2.628-9.544l-44.453-78.23a6.996 6.996 0 0 0-6.093-3.543" transform="translate(211.5 45.713)"/><path d="M0 0l24.778-14.08 28.635 50.393-17.388 9.881a8.362 8.362 0 0 1-4.184 1.113 8.53 8.53 0 0 1-7.405-4.304zm27.406-30.624c-1.202 0-2.394.31-3.458.914l-36.95 20.996A7 7 0 0 0-15.63.83l27.894 49.09a22.556 22.556 0 0 0 19.577 11.387c3.877 0 7.716-1.017 11.1-2.941l23.474-13.339a7 7 0 0 0 2.628-9.544L33.492-27.082a7 7 0 0 0-6.086-3.542" transform="translate(174.35 66.843)"/><path d="M0 0a8.525 8.525 0 0 1-7.404-4.303L-19.63-25.817c-2.557-4.502-.976-10.246 3.525-12.803L.51-48.062l21.063 37.069L4.185-1.112A8.385 8.385 0 0 1 0 0m3.138-64.605a6.99 6.99 0 0 0-3.458.914l-22.701 12.899c-11.213 6.371-15.152 20.678-8.781 31.891l12.226 21.514A22.552 22.552 0 0 0 0 14c3.877 0 7.716-1.017 11.101-2.94L34.575-2.279a6.999 6.999 0 0 0 2.628-9.544L9.224-61.063a6.998 6.998 0 0 0-6.086-3.542" transform="translate(161.75 121.93)"/><path d="M0 0a7.003 7.003 0 0 0-6.827 5.488 6.999 6.999 0 0 0 5.32 8.348l84.101 18.631-29.951 139.51-64.228-12.29a32.819 32.819 0 0 0-22.796 3.939l-82.12 48.249c-5.691 3.344-12.82 3.446-18.604.267l-25.065-13.778a7.001 7.001 0 0 0-6.744 12.27l25.065 13.777c10.088 5.542 22.517 5.366 32.44-.466l82.12-48.249a18.836 18.836 0 0 1 13.073-2.259l70.95 13.576a6.998 6.998 0 0 0 8.16-5.406l32.847-153a6.998 6.998 0 0 0-5.33-8.303L1.521.169A7.025 7.025 0 0 0 0 .001" transform="translate(437.06 119.94)"/><path d="M0 0l42.009-195.67 44.533 9.562L44.533 9.562zm36.634-210.98a7.001 7.001 0 0 0-6.844 5.53L-15.157 3.91a7 7 0 0 0 5.374 8.314l58.221 12.5a6.997 6.997 0 0 0 8.314-5.374l44.947-209.36a7 7 0 0 0-5.374-8.313l-58.221-12.5a6.982 6.982 0 0 0-1.47-.156" transform="translate(497.28 322.37)"/><path d="M0 0l44.533-9.562 42.009 195.67-44.533 9.562zm49.908-24.875c-.49 0-.982.052-1.47.156l-58.221 12.5a7 7 0 0 0-5.374 8.314l44.947 209.36a7 7 0 0 0 8.314 5.374l58.221-12.5a7 7 0 0 0 5.374-8.313L56.752-19.344a7.006 7.006 0 0 0-3.043-4.409 7.01 7.01 0 0 0-3.801-1.121" transform="translate(15.314 139.19)"/></g></symbol><symbol id="icon_home" viewBox="0 0 14 11"><path d="M7 2.82L2.72 6.14v3.41c0 .12.04.23.13.32.1.09.2.13.34.13h2.86V7.3h1.9V10h2.86c.13 0 .24-.04.34-.13.1-.1.14-.2.14-.32V6.14zm5.92 2.56l-1.63-1.27V1.24a.21.21 0 0 0-.07-.16.24.24 0 0 0-.17-.06H9.62a.24.24 0 0 0-.17.06.21.21 0 0 0-.07.16v1.37L7.57 1.18A.9.9 0 0 0 7 1a.9.9 0 0 0-.57.18l-5.35 4.2a.2.2 0 0 0-.08.15c0 .07.01.12.05.17l.46.52c.04.04.1.07.16.08.06 0 .12-.01.18-.05L7 2.2l5.15 4.05c.04.03.1.05.16.05h.02c.07-.01.12-.04.16-.08l.46-.52c.04-.05.06-.1.05-.17a.2.2 0 0 0-.08-.15z"/></symbol><symbol id="icon_jurist" viewBox="0 0 519.53064 677.39734"><g clip-path="url(#clipPath26)" transform="matrix(1.3333 0 0 -1.3333 0 677.4)"><path d="M0 0c0-11.265-9.164-20.429-20.429-20.429h-320.79c-11.264 0-20.428 9.164-20.428 20.429v70.479c0 54.394 35.559 100.64 84.652 116.71.01-.032.016-.065.025-.097.115-.357 11.613-36.114 28.523-74.117 23.177-52.091 45.2-83.562 65.453-93.539.056-.028.113-.046.169-.072.104-.048.209-.09.314-.133a7.147 7.147 0 0 1 .843-.281c.212-.056.425-.099.639-.134.08-.013.157-.03.237-.041.296-.038.592-.062.887-.062l.005.001.005-.001c.294 0 .59.024.886.062.08.011.158.028.238.041a6.829 6.829 0 0 1 1.481.415c.106.043.211.085.314.133.056.026.114.044.169.072 20.253 9.977 42.276 41.448 65.454 93.539 15.858 35.639 26.956 69.302 28.37 73.646C-34.757 170.056.001 124.253.001 70.481zm-277.56 247.82c-13.78 0-24.991 8.908-24.991 19.857 0 6.822 4.376 13.098 11.705 16.791a7 7 0 0 1 .763 12.056c-5.652 3.81-8.895 9.33-8.895 15.145 0 6.607 4.171 12.776 11.159 16.503a7.002 7.002 0 0 1 .771 11.875c-5.311 3.789-8.357 9.172-8.357 14.77 0 6.408 3.973 12.471 10.629 16.22a6.998 6.998 0 0 1 .781 11.687c-5.054 3.812-7.837 8.924-7.837 14.394 0 10.949 11.211 19.858 24.991 19.858a31.28 31.28 0 0 0 3.928-.248 7.011 7.011 0 0 1 7.017 3.583c6.549 11.96 15.507 21.384 26.625 28.012 11.868 7.073 30.215 11.297 49.081 11.297 36.555 0 67.01-14.677 81.468-39.259a7.003 7.003 0 0 1 5.649-3.441c13.038-.718 23.251-9.417 23.251-19.802 0-5.814-3.243-11.334-8.895-15.144a7.002 7.002 0 0 1 .763-12.057c7.329-3.692 11.705-9.969 11.705-16.791 0-5.598-3.046-10.981-8.357-14.771a7 7 0 0 1 .771-11.875c6.987-3.726 11.158-9.896 11.158-16.502 0-5.471-2.783-10.582-7.836-14.394a7 7 0 0 1 .781-11.688c6.655-3.748 10.628-9.811 10.628-16.219 0-10.949-11.211-19.857-24.991-19.857s-24.992 8.908-24.992 19.857c0 5.47 2.783 10.582 7.837 14.393a6.999 6.999 0 0 1-.78 11.689c-6.656 3.747-10.629 9.81-10.629 16.219 0 5.598 3.046 10.982 8.356 14.771a6.998 6.998 0 0 1-.77 11.875c-6.988 3.727-11.159 9.896-11.159 16.502 0 5.814 3.242 11.334 8.894 15.145a7 7 0 0 1 3.083 6.241 6.982 6.982 0 0 1-3.827 5.805c-.185.097-.458.256-.817.462-13.462 7.691-26.854 11.591-39.803 11.591-3.899 0-7.778-.36-11.53-1.07-8.274-1.566-15.266-5.254-22.029-8.821-8.206-4.328-15.957-8.417-25.494-8.417-1.504 0-3.05.103-4.595.304-3.476.453-6.493 1.192-9.41 1.905-4.219 1.033-8.204 2.008-12.858 2.008-3.794 0-7.536-.671-11.443-2.051a7.003 7.003 0 0 1-3.163-10.937c2.488-3.152 3.802-6.773 3.802-10.474 0-6.606-4.172-12.775-11.159-16.503a7.001 7.001 0 0 1-.771-11.874c5.311-3.789 8.357-9.172 8.357-14.771 0-6.822-4.376-13.099-11.705-16.792a6.999 6.999 0 0 1-.763-12.056c5.653-3.81 8.896-9.33 8.896-15.144 0-10.949-11.212-19.857-24.993-19.857m166.63-97.488a6.963 6.963 0 0 1-2.046.98c-25.959 7.521-41.268 17.068-49.656 23.905 20.139 4.304 36.489 14.329 42.011 18.011 8.27-.143 16.345-1.11 24.143-2.819-3.245-10.055-8.236-24.241-14.452-40.077m-30.88-67.556l-15.444 47.638 6.953 20.409c8.853-4.515 19.838-9.021 33.429-12.958.283-.082.568-.137.851-.183-7.512-18.21-16.343-37.625-25.789-54.906m-101.45 55.089c13.591 3.937 24.576 8.443 33.429 12.958l6.683-19.62-14.44-49.175c-9.61 17.488-18.601 37.224-26.23 55.717.186.038.372.066.558.12m2.008 55.359c5.534-4.093 21.31-14.499 43.201-18.454-8.502-6.803-23.713-16.102-49.105-23.458a6.959 6.959 0 0 1-1.792-.811c-6.261 15.957-11.276 30.228-14.507 40.269a122.714 122.714 0 0 0 22.203 2.454m71.608-55.756h-20.848l-6.975 20.473c8.886 5.808 14.345 11.096 17.398 14.566 3.054-3.469 8.514-8.758 17.4-14.566zm-52.406 93.962c11.915-11.992 25.828-18.065 41.503-18.065 15.672 0 29.387 5.481 40.939 16.273l7.169-27.314c-8.566-5.138-26.075-14.098-45.19-15.03l-.13-.008a65.415 65.415 0 0 0-3.074-.079c-.239 0-.473.01-.711.013a7.033 7.033 0 0 1-2.319.047c-21.281.81-38.08 9.939-45.839 15.005zm-17.763 63.978c3.097 4.913 4.812 10.491 4.812 16.261 0 7.168-2.571 14.018-7.249 19.696 6.894 6.213 10.822 14.528 10.822 23.452 0 3.21-.513 6.364-1.513 9.389 2.409-.202 4.874-.806 7.848-1.534 3.133-.766 6.684-1.635 10.927-2.189a49.803 49.803 0 0 1 6.405-.421c13.003 0 23.109 5.331 32.026 10.034 6.117 3.226 11.894 6.274 18.099 7.448 2.898.548 5.9.826 8.928.826 10.224 0 19.21-3.073 25.422-5.895-4.495-5.595-6.952-12.294-6.952-19.349 0-8.925 3.927-17.24 10.822-23.452-4.678-5.678-7.249-12.528-7.249-19.696 0-5.811 1.693-11.386 4.787-16.293a6.915 6.915 0 0 1-.358-1.036c-7.515-29.782-23.733-65.284-58.311-65.284-33.2 0-50.543 36.97-59.245 67.984-.006.02-.014.039-.021.059m59.903-261.67c-9.263 5.839-18.789 17.381-27.994 31.847.134.295.256.599.35.919l16.727 56.961h21.104l18.443-56.886c-9.401-14.931-19.153-26.868-28.63-32.841m60.664 173.46l-9.279 35.354c2.82 4.054 5.445 8.508 7.866 13.35 5.52-12.883 19.823-22.086 36.558-22.086 21.5 0 38.991 15.188 38.991 33.857 0 8.712-3.788 16.905-10.435 23.091 4.428 5.591 6.862 12.275 6.862 19.21 0 8.925-3.928 17.24-10.821 23.452 4.678 5.677 7.249 12.528 7.249 19.696 0 8.992-4.149 17.529-11.235 23.788 4.944 5.761 7.662 12.786 7.662 20.204 0 16.713-14.104 30.805-32.738 33.417-17.621 27.048-51.558 43.085-91.63 43.085-21.598 0-42.1-4.838-56.249-13.272-12.04-7.177-21.935-17.049-29.462-29.382-.314.006-.627.01-.94.01-21.5 0-38.991-15.189-38.991-33.858 0-6.934 2.434-13.618 6.863-19.21-6.647-6.186-10.436-14.379-10.436-23.091 0-7.168 2.571-14.018 7.249-19.695-6.894-6.213-10.822-14.528-10.822-23.453 0-7.419 2.718-14.443 7.663-20.204-7.087-6.259-11.236-14.797-11.236-23.788 0-18.669 17.491-33.857 38.991-33.857 17.449 0 32.255 10.002 37.217 23.75 2.312-4.542 4.772-8.753 7.37-12.634l-9.908-37.752c-73.572-2.123-132.77-62.629-132.77-136.7V.001c0-18.984 15.444-34.429 34.428-34.429h320.79c18.985 0 34.429 15.445 34.429 34.429V70.48c0 74.233-59.448 134.84-133.24 136.72" transform="translate(375.65 34.429)"/></g></symbol><symbol id="icon_lock" viewBox="0 0 18 22"><path d="M3.33 22h11.34c1.84 0 3.33-1.38 3.33-3.12v-6.97c0-1.42-.94-2.63-2.42-3.02v-2.2A5.8 5.8 0 0 0 9.67.99H8.33C5.04 1 2.28 3.57 2.28 6.7v2.2a3.15 3.15 0 0 0-2.28 3v6.97C0 20.62 1.49 22 3.33 22zm5-19.47h1.34c2.41 0 4.3 1.88 4.3 4.16v2.07H3.89V6.7c0-2.28 2.03-4.16 4.44-4.16zm6.34 17.94H3.33c-.95 0-1.72-.72-1.72-1.63v-6.92c0-.9.77-1.63 1.72-1.63h11.34c.95 0 1.72.73 1.72 1.63v6.92c0 .9-.77 1.63-1.72 1.63zm-5.94-1.9c.44 0 .81-.35.81-.77v-2.42c0-.42-.37-.76-.81-.76-.44 0-.81.34-.81.76v2.42c0 .42.37.76.81.76z"/></symbol><symbol id="icon_menu-1" viewBox="0 0 32 32"><path class="st0" d="M20.8 12c-.7 2.6-2.8 4.4-4.7 4.5-1.9-.1-3.9-2-4.7-4.6l-.4.1c-.4.1-.8-.2-.9-.6l-.3-2.3c-.1-.4.2-.8.6-.9h.3c-.1-.4-.2-.7-.2-1.1v-.9c0-2.1 1.7-3.7 3.7-3.7h.4v-.2c.2-.6 1.8-.6 3.4 0 .4.1.7.3 1 .4 1.4.6 2.3 1.9 2.3 3.5V7c0 .4-.1.8-.2 1.1h.3c.4.1.7.5.6.9l-.4 2.3c-.1.4-.5.7-.9.6l.1.1zm4.1 15.4h-4m-18 2.3l-.7-6.1V23c0-1.4 1.4-2.3 2.6-2.5 1.1-.2 5.2-1.1 6.6-2h.1l2.4 11.3 1.4-7.5-1.2-3.2h4l-1.2 3.2 1.4 7.5 2.5-11.3h.1c1.3.9 5.5 1.8 6.6 2 1.2.2 2.6 1.1 2.6 2.5v.6l-.7 6.1"/></symbol><symbol id="icon_menu-10" viewBox="0 0 64 64"><path class="st0" d="M32 58.4V16.5M18.9 58.4h26.3M32 10c1.8 0 3.3 1.5 3.3 3.3 0 1.8-1.5 3.3-3.3 3.3-1.8 0-3.3-1.5-3.3-3.3.1-1.9 1.5-3.3 3.3-3.3zM7.2 39.2h18.9M7.6 41.1c1.8 3.4 5.1 5.9 9 5.9 3.9 0 7.1-2.4 8.9-5.8.7-1.3.7-2.1.2-3.6L18 17.4c-.1-.4-.4-.7-.7-.8-.6-.2-1.3.1-1.5.7-2.8 8-5.5 12.4-8.3 20.4-.5 1.4-.5 2.2.1 3.4zm30.3-1.7h19m-18.5 1.9c1.8 3.4 5.1 5.9 9 5.9 3.9 0 7.1-2.4 8.9-5.8.7-1.3.7-2.1.2-3.6l-7.7-20.2c-.1-.4-.4-.7-.7-.8-.6-.2-1.3.1-1.5.7-2.8 8-5.5 12.4-8.3 20.4-.5 1.4-.5 2.2.1 3.4zM10.5 13.5h18m7 0h18"/></symbol><symbol id="icon_menu-11" viewBox="0 0 64 64"><g id="_x31_1"><path class="st0" d="M17.1 41.1h-.2l-7.3-2.8c-.3-.1-.5-.4-.4-.8L12.4 23c0-.2.1-.3.3-.4.2-.1.3-.1.5-.1l4.2 1c.4.1.9 0 1.3-.2l6.2-3.5c.9-.5 1.9-.5 2.8-.1l1.7.8c.2.1.4.3.4.6 0 .2-.1.5-.3.6l-4 2.3c-.2.1-.4.3-.4.6l-1.7 6c-.2.6.2 1.3.8 1.5l1 .4c.3.1.7.1 1-.1.3-.2.6-.5.6-.8L28 27c.2-.6.6-1.1 1.1-1.4l2.5-1.3c.3-.2.7 0 .9.3.2.3 0 .7-.3.9l-2.5 1.3c-.2.1-.4.3-.5.6L28 31.9c-.2.7-.7 1.3-1.3 1.6-.7.3-1.4.4-2.1.1l-1-.4c-1.3-.5-2-1.8-1.6-3.1l1.7-6c.2-.6.5-1.1 1-1.4l2.8-1.6-.5-.2c-.5-.2-1.1-.2-1.6.1l-6.2 3.5c-.7.4-1.5.5-2.2.3l-3.5-.8-3 13.2 6.8 2.6c.3.1.5.5.4.9-.1.2-.3.4-.6.4zm26.8.7c-.1 0-.2 0-.3-.1-.3-.2-.4-.6-.3-.9l1.7-2.9-8-4.6c-.3-.2-.4-.6-.2-.9.2-.3.6-.4.9-.2l8.6 4.9c.3.2.4.6.2.9l-2 3.5c-.1.1-.4.3-.6.3z"/><path class="st0" d="M45.9 38.3c-.1 0-.2 0-.3-.1-.3-.2-.4-.6-.3-.9l1.3-2.2c.2-.4.1-.9-.3-1.2l-14.6-8.5c-.3-.2-.4-.6-.2-.9.2-.3.6-.4.9-.2L47 32.8c1 .6 1.4 1.9.8 3L46.5 38c-.2.2-.4.3-.6.3zm-4 7c-.1 0-.2 0-.3-.1-.3-.2-.4-.6-.3-.9l1.7-2.9-8-4.6c-.3-.2-.4-.6-.2-.9.2-.3.6-.4.9-.2l8.6 4.9c.3.2.4.6.2.9l-2 3.5c-.1.2-.4.3-.6.3z"/><path class="st0" d="M39.3 48.2c-.4 0-.7-.1-1.1-.3L33.1 45c-.3-.2-.4-.6-.2-.9.2-.3.6-.4.9-.2l5.1 2.9c.2.1.4.1.6.1.2-.1.4-.2.5-.4l.9-1.6-8-4.6c-.3-.2-.4-.6-.2-.9.2-.3.6-.4.9-.2l8.6 4.9c.3.2.4.6.2.9l-1.2 2.2c-.3.5-.8.9-1.3 1h-.6z"/><path class="st0" d="M28.7 52c-.4 0-.8-.1-1.1-.3l-2.2-1.2c-.2-.1-.3-.2-.3-.4s0-.4.1-.5l4.2-7.4c.2-.3.6-.4.9-.3l3.5 2c.2.1.3.2.3.4s0 .4-.1.5l-3.5 6.1c-.3.6-1 1.1-1.8 1.1zm-2.1-2.4l1.6.9c.1.1.3.1.4.1.3 0 .6-.2.8-.5l3.1-5.5-2.4-1.3-3.5 6.3z"/><path class="st0" d="M25.7 50.5c-.1 0-.2 0-.3-.1l-3.5-2c-.2-.1-.3-.2-.3-.4s0-.4.1-.5l3.5-6.2c.4-.7 1.1-1.1 1.9-1.1.4 0 .7.1 1.1.3l2.2 1.3c.2.1.3.2.3.4s0 .4-.1.5l-4.2 7.4c-.2.3-.4.4-.7.4zm-2.6-2.9l2.4 1.3 3.6-6.3-1.7-.9c-.1-.1-.3-.1-.4-.1-.3 0-.6.2-.7.4l-3.2 5.6z"/><path class="st0" d="M22.2 48.5c-.1 0-.2 0-.3-.1l-3.5-2c-.3-.2-.4-.6-.3-.9l2.7-4.7c.4-.7 1.1-1.1 1.9-1.1.4 0 .7.1 1.1.3l2.2 1.3c.3.2.4.6.3.9l-3.4 6c-.1.2-.2.3-.4.3h-.3zm-2.6-2.9l2.4 1.3 2.7-4.8-1.7-.9c-.1-.1-.3-.1-.4-.1-.3 0-.6.2-.7.4l-2.3 4.1z"/><path class="st0" d="M18.7 46.5c-.1 0-.2 0-.3-.1l-2.2-1.2c-1.1-.6-1.4-2-.8-3l1.2-2c.4-.7 1.1-1.1 1.9-1.1.4 0 .7.1 1.1.3l2.2 1.3c.3.2.4.6.3.9l-2.7 4.7c-.1.2-.2.3-.4.3-.2-.1-.3-.1-.3-.1zm-.3-6.1c-.3 0-.6.2-.7.4l-1.2 2c-.2.4-.1 1 .3 1.2l1.6.9 2-3.5-1.7-.9c0-.1-.2-.1-.3-.1zm26.2.2c-.3 0-.6-.2-.6-.5-.1-.4.1-.7.5-.8l8-1.8-2.8-13.3-6.1 1.2c-.7.1-1.5 0-2.2-.4l-7.8-4.6c-.5-.3-1.2-.3-1.8 0l-2.4 1.3c-.3.2-.7.1-.9-.3-.2-.3-.1-.7.3-.9l2.4-1.3c1-.5 2.1-.5 3.1 0l7.8 4.6c.4.2.8.3 1.2.2l6.8-1.3c.4-.1.7.2.8.5L54 37.8c.1.4-.1.7-.5.8l-8.6 1.9c-.2.1-.3.1-.3.1z"/><path class="st0" d="M53.8 41.4c-.1 0-.3 0-.4-.1-.1-.1-.3-.2-.3-.4L48.8 21c-.1-.4.2-.7.5-.8l5.5-1.2c.2 0 .4 0 .5.1.1.1.3.2.3.4L60 39.4c.1.4-.2.7-.5.8L54 41.4h-.2zm-3.5-20.1l4 18.6 4.2-.9-4-18.6-4.2.9zM9.2 41.1h-.1l-5.5-1.2c-.4-.1-.6-.4-.5-.8l4.3-19.9c0-.2.1-.3.3-.4.1-.1.3-.1.5-.1l5.5 1.2c.4.1.6.4.5.8L9.9 40.6c0 .2-.1.3-.3.4-.1.1-.3.1-.4.1zm-4.7-2.4l4.2.9 4-18.6-4.2-.9-4 18.6z"/></g></symbol><symbol id="icon_menu-12" viewBox="0 0 24 24"><text transform="translate(683 384)" class="st0" font-family="MyriadPro-Regular" font-size="12">42c134</text><path class="st1" d="M21.3 12.9c.5-.3.8-.9.8-1.5 0-1-.8-1.9-1.9-1.9h-4.5c.3-1.5.6-4.3.6-5.3 0-1.9-1-2.3-1.9-2.3-.4.1-1.4.3-1.4 2 0 2.3-3.3 7-4 7.9h-.6c0-.2-.1-.3-.2-.4-.2-.2-.5-.3-.8-.3H2.8c-.6 0-1.1.5-1.1 1.1v8.7c0 .6.5 1.1 1.1 1.1h3.4c.6 0 1.1-.5 1.2-1.1l.9-8.3h.9c.1 0 .2-.1.3-.2.2-.2 4.2-5.8 4.2-8.5 0-.8.2-1.1.8-1.1.6 0 1.1.2 1.1 1.5 0 1.2-.4 4.5-.7 5.5 0 .1 0 .2.1.3.1.1.2.2.3.2h5c.6 0 1.1.5 1.1 1.1 0 .6-.5 1.1-1.1 1.1h-.8c-.2 0-.4.2-.4.4s.2.4.4.4h.8c.6 0 1.1.5 1.1 1.1 0 .6-.5 1.1-1.1 1.1h-1.2c-.2 0-.4.2-.4.4s.2.4.4.4h.4c.6 0 1.1.5 1.1 1.1 0 .6-.5 1.1-1.1 1.1h-.9c-.2 0-.4.2-.4.4s.2.4.4.4c.5 0 .9.4.9.9s-.5.9-1.1.9H13c-1.4 0-2.7-.2-3-.3l-1-.3c-.2-.1-.4 0-.5.2-.1.2 0 .4.2.5l.8.4c.5.3 2.1.4 3.4.4h5.4c1 0 1.9-.8 1.9-1.7 0-.4-.1-.7-.3-1 .8-.2 1.5-.9 1.5-1.8 0-.5-.2-.9-.5-1.3.7-.3 1.2-1 1.2-1.8 0-.6-.3-1.1-.8-1.5zM6.7 20.8c0 .2-.2.4-.5.4H2.8c-.2 0-.4-.2-.4-.4v-8.7c0-.2.2-.4.4-.4h4.5c.1 0 .2 0 .2.1.1.1.1.1.1.2l-.9 8.8z"/></symbol><symbol id="icon_menu-13" viewBox="0 0 24 24"><text transform="translate(683 384)" class="st0" font-family="MyriadPro-Regular" font-size="12">42c134</text><path class="st1" d="M2.5 11.1c-.5.3-.8.9-.8 1.5 0 1 .8 1.9 1.9 1.9H8c-.3 1.5-.6 4.3-.6 5.3 0 1.9 1 2.3 1.9 2.3.6 0 1.5-.2 1.5-1.9 0-2.3 3.3-7 4-7.9h.7c0 .2.1.3.2.4.2.2.5.3.8.3H21c.6 0 1.1-.5 1.1-1.1V3.1c0-.6-.5-1.1-1.1-1.1h-3.4c-.6 0-1.1.5-1.2 1.1l-.9 8.3h-.9c-.1 0-.2.1-.3.2-.2.2-4.2 5.8-4.2 8.5 0 .8-.2 1.1-.8 1.1-.6 0-1.1-.2-1.1-1.5 0-1.2.4-4.5.7-5.5 0-.1 0-.2-.1-.3-.1-.1-.2-.2-.3-.2H3.6c-.6 0-1.1-.5-1.1-1.1 0-.6.5-1.1 1.1-1.1h.8c.2 0 .4-.2.4-.4s-.2-.4-.4-.4h-.8c-.6 0-1.1-.5-1.1-1.1 0-.6.5-1.1 1.1-1.1h1.2c.2 0 .4-.2.4-.4s-.2-.4-.4-.4h-.5c-.6 0-1.1-.5-1.1-1.1s.5-1.1 1.1-1.1h.9c.2 0 .4-.2.4-.4s-.1-.5-.3-.5c-.5 0-.9-.4-.9-.9s.5-.9 1.1-.9h5.4c1.4 0 2.7.2 3 .3l.8.4c.2.1.4 0 .5-.2.1-.2 0-.4-.2-.5l-.8-.4c-.4-.3-2-.4-3.3-.4H5.5c-1 0-1.9.8-1.9 1.7 0 .4.1.7.3 1-.8.2-1.4.9-1.4 1.8 0 .5.2.9.5 1.3-.8.2-1.3.9-1.3 1.7 0 .7.3 1.2.8 1.6zm14.6-7.9c0-.2.2-.4.5-.4H21c.2 0 .4.2.4.4v8.7c0 .2-.2.4-.4.4h-4.5c-.1 0-.2 0-.2-.1-.1-.1-.1-.1-.1-.2l.9-8.8z"/></symbol><symbol id="icon_menu-14" viewBox="0 0 24 24"><g id="_x37_"><path d="M12 2C8.4 2 5.5 4.9 5.5 8.5c0 3.7 5.3 10.9 6.5 12.5 1.2-1.6 6.5-8.9 6.5-12.5C18.5 4.9 15.6 2 12 2z"/><path d="M12.3 12.9c-2 0-3.6-1.6-3.6-3.6s1.6-3.6 3.6-3.6 3.6 1.6 3.6 3.6-1.6 3.6-3.6 3.6zm0-6.6c-1.7 0-3 1.4-3 3s1.4 3 3 3 3-1.4 3-3-1.3-3-3-3z"/></g><circle class="st3" cx="12" cy="9" r="4"/></symbol><symbol id="icon_menu-2" viewBox="0 0 32 32"><path class="st0" d="M4.2 10.6L13.9 7m3.4-1.2l9.9-3.6M15.7 30.4V8.2m-7 22.2h13.9M15.7 4.8c.9 0 1.7.8 1.7 1.7 0 .9-.8 1.7-1.7 1.7-.9 0-1.7-.8-1.7-1.7 0-.9.7-1.7 1.7-1.7zM2 23.4h10m-9.7 1c.9 1.8 2.7 3.1 4.7 3.1s3.8-1.3 4.7-3c.4-.7.4-1.1.1-1.9L7.7 11.9c-.1-.2-.2-.4-.4-.4-.3-.1-.7.1-.8.4-1.5 4.2-2.9 6.6-4.4 10.8-.2.7-.2 1.1.2 1.7zm17-7.2h10m-9.7 1c.9 1.8 2.7 3.1 4.7 3.1s3.8-1.3 4.7-3c.4-.7.4-1.1.1-1.9l-4-10.7c-.1-.2-.2-.4-.4-.4-.3-.1-.7.1-.8.4-1.5 4.2-2.9 6.6-4.4 10.8-.2.7-.2 1.1.1 1.7z"/></symbol><symbol id="icon_menu-26" viewBox="0 0 28 28"><text transform="translate(681 382)" class="st0" font-family="MyriadPro-Regular" font-size="12">42c134</text><path class="st1" d="M14 2C7.4 2 2 7.4 2 14s5.4 12 12 12 12-5.4 12-12S20.6 2 14 2zm0 23.1c-6.1 0-11.1-5-11.1-11.1S7.9 2.9 14 2.9s11.1 5 11.1 11.1-5 11.1-11.1 11.1z"/><path class="st2" d="M7.6 14l5 4.6 7.4-9"/></symbol><symbol id="icon_menu-27" viewBox="0 0 28 28"><text transform="translate(681 382)" class="st0" font-family="MyriadPro-Regular" font-size="12">42c134</text><path class="st1" d="M14 2C7.4 2 2 7.4 2 14s5.4 12 12 12 12-5.4 12-12S20.6 2 14 2z"/><path class="st2" d="M7.6 14l5 4.6 7.4-9"/></symbol><symbol id="icon_menu-28" viewBox="0 0 28 28"><text transform="translate(681 382)" class="st0" font-family="MyriadPro-Regular" font-size="12">42c134</text><path class="st1" d="M14 2C7.4 2 2 7.4 2 14s5.4 12 12 12 12-5.4 12-12S20.6 2 14 2z"/><path class="st2" d="M7.6 14l5 4.6 7.4-9"/></symbol><symbol id="icon_menu-3" viewBox="0 0 32 32"><path class="st0" d="M26 9.2v20.4c0 .6-.5 1.1-1.1 1.1H7.2c-.6 0-1.1-.5-1.1-1.1V3.3c0-.6.5-1.1 1.1-1.1H19"/><path class="st0" d="M26 9.2h-5.9c-.6 0-1.1-.5-1.1-1.1V2.3l7 6.9zM10.5 8h5.6m-5.6 5.3h11.2m-11.2 3.1h11.2m-11.2 3.2h11.2m-11.2 3.1h5.6"/></symbol><symbol id="icon_menu-4" viewBox="0 0 32 32"><g id="_x31_6_1_"><path class="st0" d="M5.9 22.7h-.2c-.2-.1-.3-.2-.3-.4v-3.8H2.9c-.7 0-1.2-.6-1.2-1.2V7.1c0-.7.6-1.2 1.2-1.2h17.3c.7 0 1.2.6 1.2 1.2V13c0 .2-.2.4-.4.4s-.4-.2-.4-.4V7.1c0-.2-.2-.4-.4-.4H2.9c-.2 0-.4.2-.4.4v10.1c0 .2.2.4.4.4h3c.2 0 .4.2.4.4v3.1l3.4-3.4c.1-.1.2-.2.4-.2h5.3c.2 0 .4.2.4.4s-.2.4-.4.4h-5.1l-4.1 4.1c-.1.2-.2.3-.3.3z"/><path class="st0" d="M27.5 26.2c-.1 0-.2 0-.3-.1L24 22.8h-7.9c-.6 0-1.1-.5-1.1-1.1v-8.1c0-.6.5-1.1 1.1-1.1h13.8c.6 0 1.1.5 1.1 1.1v8.1c0 .6-.5 1.1-1.1 1.1h-2v2.9c0 .2-.1.3-.3.4 0 .1 0 .1-.1.1zm-2.9-4l2.5 2.5v-2.3c0-.2.2-.4.4-.4h2.4c.1 0 .2-.1.2-.2v-8.1c0-.1-.1-.2-.2-.2H16.1c-.1 0-.2.1-.2.2v8.1c0 .1.1.2.2.2h8.1c.2 0 .3.1.4.2z"/></g></symbol><symbol id="icon_menu-5" viewBox="0 0 32 32"><path class="st0" d="M14.7 6.6c-.5 3-2.8 5.3-5.8 5.8m6.1 6.2c.5-2.9 2.8-5.3 5.8-5.8m-6.1 5.7L9 12.7c-.6-.6-1.5-.6-2.1 0l-1.5 1.5c-.6.6-.6 1.5 0 2.1l5.8 5.8c.6.6 1.5.6 2.1 0l1.5-1.5c.5-.6.5-1.6-.1-2.1zm9.6-9.7L18.5 3c-.6-.6-1.5-.6-2.1 0L15 4.6c-.6.6-.6 1.5 0 2.1l5.8 5.8c.6.6 1.5.6 2.1 0l1.5-1.5c.5-.7.5-1.6-.1-2.2z"/><path class="st0" d="M16.3 16.4l10.4 10.9c1.5 1.5 4.3-1.5 2.8-2.9L18.7 14.1M3 26.7h14.4m-16 3h18"/></symbol><symbol id="icon_menu-6" viewBox="0 0 32 32"><path class="st0" d="M3.9 12.1h24m-.3-1.9L15.9 4 4.2 10.2h23.4zm-23 14.1h22.6m-24 2.2h25.3M1.8 28.7H30M6.2 12.2v12.1m2.9-12.1v12.1m5.1-12.1v12.1m2.9-12.1v12.1m5.1-12.1v12.1m2.9-12.1v12.1"/></symbol><symbol id="icon_menu-7" viewBox="0 0 32 32"><g id="_x36_"><path class="st0" d="M27.8 25.1H4.4c-1.2 0-2.2-1-2.2-2.2V8.4c0-1.2 1-2.2 2.2-2.2h23.4c1.2 0 2.2 1 2.2 2.2v14.5c0 1.2-1 2.2-2.2 2.2zM4.4 7.2c-.7 0-1.2.6-1.2 1.2v14.5c0 .7.6 1.2 1.2 1.2h23.4c.7 0 1.2-.6 1.2-1.2V8.4c0-.7-.6-1.2-1.2-1.2H4.4z"/><path class="st0" d="M16.1 18.3c-.1 0-.2 0-.3-.1L2.6 9.4c-.2-.1-.2-.4-.1-.6.1-.2.4-.3.7-.1l12.9 8.6L29 8.6c.2-.1.5-.1.7.1.1.2.1.5-.1.7l-13.2 8.8c-.1 0-.2.1-.3.1z"/></g></symbol><symbol id="icon_menu-8" viewBox="0 0 32 32"><path class="st0" d="M24.1 30c-1.9 0-4.2-.9-6.8-2.6-2.6-1.8-4.9-4-6.4-5.6-2.8-3-5-6.1-6.1-8.8-.7-1.5-1.1-3-1.1-4.3 0-1.5.5-2.7 1.3-3.8l1-1.2c.4-.4 1-.7 1.6-.7.6 0 1.1.2 1.5.7l3.5 3.7c.7.7.7 1.8.1 2.6l-1.6 2.1c.2.5.9 2 4.3 5.7 3.4 3.6 4.9 4.5 5.4 4.7l2.2-1.4c.3-.2.7-.3 1.1-.3.5 0 1.1.2 1.4.6L29 25c.4.4.6 1 .5 1.6-.1.6-.4 1.1-.9 1.5l-1.2.9c-.9.7-2 1-3.3 1zM7.6 4c-.3 0-.6.1-.8.4l-1 1.2c-3.1 3.6 1 10.5 5.9 15.6 4.6 4.9 9.2 7.8 12.5 7.8 1 0 2-.3 2.7-.9l1.3-.9c.3-.2.4-.5.4-.8 0-.3-.1-.6-.3-.8l-3.5-3.7c-.2-.2-.5-.3-.7-.3-.2 0-.4.1-.6.2l-2.4 1.6c-.1.1-.2.1-.3.1-.3 0-1.8-.4-6.1-5-4.4-4.7-4.6-6.2-4.6-6.4 0-.1 0-.2.1-.3l1.7-2.3c.3-.4.3-.9 0-1.3L8.4 4.3c-.2-.2-.5-.3-.8-.3z" id="_x39_"/></symbol><symbol id="icon_menu-9" viewBox="0 0 32 32"><path class="st0" d="M15.1 11.8l3.8 3.8H2.5c-.3 0-.5.2-.5.5s.2.5.5.5h16.4l-3.8 3.8c-.2.2-.2.5 0 .7.2.2.5.2.7 0l4.7-4.7c.1-.1.2-.2.2-.4 0-.1-.1-.3-.2-.4l-4.7-4.7c-.2-.2-.5-.2-.7 0-.2.4-.2.7 0 .9z"/><path class="st1" d="M8.5 11.1V6.5c0-.1 0-.4.3-.7.2-.2.4-.3.7-.3h15c.5 0 1 .5 1 1v19c0 .5-.5 1-1 1h-15c-.5 0-1-.5-1-1v-5.1"/></symbol><symbol id="icon_money" viewBox="0 0 14 16"><path d="M3.53 1.95l.41.19c-.28.18-.41.36-.38.53.03.18.19.33.45.46.25.11.54.17.89.19.35 0 .89-.1 1.6-.31.17-.06.31-.09.41-.1.09 0 .16 0 .23.04.05.02.2.09-.17.26-.23.1-.48.15-.72.13a.81.81 0 0 0-.5.1l-.22.14c-.1.07-.12.15-.05.22.06.08.2.13.36.14.54.06 1.07-.01 1.58-.2l.55.26c.2.1.51.1.71 0 .2-.09.2-.23 0-.32l-.57-.27c.25-.17.38-.34.39-.5.01-.2-.14-.38-.45-.52-.21-.1-.47-.17-.74-.19a2.79 2.79 0 0 0-.77.04c-.24.05-.59.14-1.06.28-.2.06-.34.09-.41.09a.38.38 0 0 1-.17-.03c-.16-.08-.03-.17.12-.24.17-.08.36-.12.56-.12.2.01.38-.04.47-.12l.13-.11c.08-.07.08-.16-.01-.23a.73.73 0 0 0-.42-.11c-.37 0-.73.05-1.09.16l-.42-.2a.96.96 0 0 0-.71 0c-.2.1-.2.24 0 .34zm8.63 2.35c.03-.15.05-.3.05-.45v-.48c0-.96-.67-1.83-1.89-2.46A9.37 9.37 0 0 0 6.11 0C4.52 0 3.02.32 1.89.9.67 1.55 0 2.42 0 3.38v.48c0 .94.65 1.8 1.84 2.43a2.5 2.5 0 0 0-.05.45v.08C.63 7.44 0 8.3 0 9.22v.48c0 .64.31 1.25.88 1.77-.08.22-.12.45-.12.68v.48c0 .96.67 1.83 1.89 2.46a9.4 9.4 0 0 0 4.22.91c1.58 0 3.08-.32 4.21-.9 1.22-.64 1.89-1.51 1.89-2.47v-.48c0-.64-.3-1.25-.88-1.77.08-.22.12-.45.12-.68v-.09C13.37 9 14 8.13 14 7.21v-.48c0-.94-.65-1.8-1.84-2.43zM.85 2.96c.18-.47.66-.94 1.38-1.31A8.66 8.66 0 0 1 6.11.83c1.46 0 2.84.29 3.87.82.72.37 1.2.84 1.38 1.31-.63 1.16-2.8 2-5.25 2-2.46 0-4.63-.84-5.26-2zm0 5.86a2.4 2.4 0 0 1 1.01-1.1c.19.75.82 1.43 1.82 1.95a9.37 9.37 0 0 0 4.68.9c-.7.15-1.46.24-2.25.24-2.46 0-4.63-.84-5.26-2zm11.27 2.93c-.63 1.15-2.8 2-5.25 2-2.14 0-4.05-.64-4.93-1.57 1.13.58 2.6.89 4.17.89 1.58 0 3.08-.32 4.21-.9.58-.31 1.04-.67 1.36-1.07.21.2.36.43.44.65zM7.89 8.32c-2.14 0-4.07-.64-4.94-1.57.94.3 2.03.47 3.16.47 1.58 0 3.08-.33 4.21-.91.68-.36 1.2-.79 1.51-1.27.69.37 1.15.82 1.32 1.28-.63 1.16-2.8 2-5.26 2z"/></symbol><symbol id="icon_next" viewBox="0 0 21 48"><path d="M1 0L0 1l19 22.43L0 47l1 1 20-24.71z"/></symbol><symbol id="icon_pencil" viewBox="0 0 22 22"><path d="M2.37 20.6l.24-.06.23-.06-.34-.35zM21.79 7.1c.23.22.23.59 0 .81L10.06 19.66a.62.62 0 0 1-.29.15l-4.02 1.07-2.84.77H2.9l-.77.21-.42.1v.01a.7.7 0 0 1-.31 0 .57.57 0 0 1-.4-.7l.64-2.36.01-.08.44-1.62 1.07-4.01a.69.69 0 0 1 .12-.25l.02-.03.01-.01h.01v-.01L15.05 1.16a.58.58 0 0 1 .82 0zm-1.22.4l-5.11-5.12L4.54 13.31l2.56 2.56 2.56 2.56zM4.12 20.13l1.34-.35 3.08-.84-2.26-2.26-2.25-2.25-.84 3.08-.35 1.34.64.64z"/></symbol><symbol id="icon_popup-close" viewBox="0 0 22 24"><path stroke-linecap="round" stroke-linejoin="round" stroke-miterlimit="50" stroke-width="2" d="M1 1.99L20.99 22m0-20.01L1 22"/></symbol><symbol id="icon_prev" viewBox="0 0 21 48"><path d="M20 0l1 1L2 23.43 21 47l-1 1L0 23.29z"/></symbol><symbol id="icon_shield" viewBox="0 0 514.01068 644.48535"><g clip-path="url(#clipPath74)" transform="matrix(1.3333 0 0 -1.3333 0 644.49)"><path d="M0 0l-10.444-194.71c-2.366-46.022-25.228-87.784-62.723-114.58l-82.043-58.623a40.23 40.23 0 0 0-23.523-7.541 40.23 40.23 0 0 0-23.524 7.541l-82.042 58.623c-37.495 26.792-60.357 68.554-62.725 114.59L-357.47.06c-.368 6.859 4.245 12.831 10.969 14.2 25.886 5.271 59.98 12.881 75.402 19.205 15.301 6.272 48.762 25.937 74.137 41.33a35.25 35.25 0 0 0 36.5.048c25.939-15.654 60.133-35.656 75.734-42.051 15.095-6.189 48.414-13.524 73.708-18.588C-4.374 12.875.363 6.766 0-.005m-8.272 27.937c-34.904 6.988-60.17 13.314-71.145 17.813-11.528 4.727-37.742 19.316-73.812 41.084a49.244 49.244 0 0 1-50.994-.063c-35.266-21.393-60.902-35.722-72.187-40.348-15.171-6.221-52.176-14.223-72.884-18.44-13.361-2.72-22.886-15.045-22.156-28.668l10.446-194.74c2.587-50.309 27.578-95.961 68.565-125.25l82.043-58.623c9.292-6.64 20.241-10.15 31.663-10.15 11.421 0 22.37 3.51 31.663 10.15l82.042 58.623C-24.04-291.393.951-245.741 3.537-195.45L13.979-.76c.734 13.669-8.832 26.002-22.251 28.687" transform="translate(371.49 389.45)"/><path d="M0 0l-8.053-150.14c-1.894-36.863-20.211-70.316-50.252-91.782l-63.264-45.204a35.516 35.516 0 0 0-20.766-6.657 35.52 35.52 0 0 0-20.768 6.657l-63.263 45.204c-30.04 21.465-48.357 54.923-50.254 91.812L-284.675.05c-.398 7.424 4.791 14.138 12.071 15.621 19.771 4.026 45.767 9.82 57.33 14.561 11.515 4.72 37.101 19.763 56.538 31.553a31.713 31.713 0 0 0 16.45 4.601 31.687 31.687 0 0 0 16.375-4.559c19.866-11.988 46.016-27.291 57.778-32.113 11.307-4.637 36.699-10.218 56.009-14.083C-4.813 14.169.399 7.448 0-.001m-9.376 29.36c-26.062 5.217-45.542 10.068-53.446 13.308-8.409 3.448-28.768 14.801-55.855 31.146a45.689 45.689 0 0 1-47.32-.058c-26.481-16.062-46.377-27.204-54.587-30.569-8.115-3.327-28.094-8.356-54.813-13.796-14.026-2.856-24.025-15.792-23.257-30.09l8.053-150.15c2.117-41.16 22.563-78.507 56.096-102.47l63.262-45.205c8.483-6.062 18.479-9.266 28.908-9.266 10.427 0 20.423 3.204 28.906 9.266l63.263 45.205c33.534 23.961 53.98 61.303 56.094 102.44L13.98-.75c.769 14.348-9.272 27.292-23.356 30.11" transform="translate(335.09 355.38)"/><path d="M0 0a12.357 12.357 0 0 1-4.486-13.856L9.59-57.198l-36.841 26.762a12.258 12.258 0 0 1-7.25 2.356c-2.625 0-5.135-.816-7.259-2.359l-36.832-26.76 14.067 43.284A12.302 12.302 0 0 1-68.99-.131l-37.19 27.22h45.867c5.492 0 10.1 3.258 11.736 8.295l14.064 43.179 14.077-43.146c1.619-4.981 6.336-8.328 11.738-8.328h45.853zm41.93 41.089H-7.56l-15.208 46.608a12.351 12.351 0 0 1-11.775 8.558c-5.43 0-10.023-3.337-11.699-8.495l-15.2-46.671h-49.499c-5.342 0-10.054-3.456-11.725-8.599-1.683-5.184.114-10.793 4.452-13.942l40.003-29.278-15.273-46.997c-1.238-3.809-.614-7.83 1.712-11.031 2.342-3.224 6.097-5.149 10.043-5.149 2.59 0 5.093.824 7.236 2.382l39.991 29.053L5.481-71.518c2.143-1.556 4.643-2.378 7.23-2.378 3.947 0 7.703 1.925 10.047 5.153 2.329 3.205 2.954 7.228 1.717 11.038L9.186-10.629l39.997 29.161c4.358 3.165 6.155 8.775 4.471 13.958-1.671 5.144-6.382 8.599-11.724 8.599" transform="translate(227.26 239.74)"/></g></symbol><symbol id="icon_star" viewBox="0 0 22 21"><path d="M21.87 8.13A1.9 1.9 0 0 0 20.2 6.8l-5.05-.37-1.92-4.73A1.88 1.88 0 0 0 11.47.5c-.78 0-1.47.47-1.76 1.2L7.8 6.44l-5.05.37a1.9 1.9 0 0 0-1.67 1.33c-.24.75-.02 1.55.58 2.06l3.87 3.3-1.21 4.97a1.92 1.92 0 0 0 1.85 2.39c.35 0 .7-.1 1-.3l4.31-2.7 4.3 2.7a1.88 1.88 0 0 0 2.51-.45c.36-.46.48-1.06.34-1.64l-1.21-4.97 3.87-3.3c.59-.51.82-1.32.58-2.07zm-1.54.92l-4.23 3.6a.76.76 0 0 0-.24.75l1.32 5.42c.04.14.01.25-.07.35a.41.41 0 0 1-.55.11l-4.7-2.94a.72.72 0 0 0-.78 0l-4.69 2.94a.42.42 0 0 1-.56-.1.4.4 0 0 1-.07-.36l1.32-5.42a.74.74 0 0 0-.24-.75l-4.23-3.6a.43.43 0 0 1-.13-.45.41.41 0 0 1 .37-.3l5.51-.4c.28-.02.53-.2.64-.46l2.08-5.17c.1-.24.31-.26.39-.26a.4.4 0 0 1 .38.26l2.09 5.17c.11.26.35.44.63.46l5.51.4c.25.03.34.22.37.3a.4.4 0 0 1-.12.45z"/></symbol><symbol id="icon_time" viewBox="0 0 16.5 16.5"><circle id="circle8" r="7.5" cy="8.25" cx="8.25" class="cls-1" stroke-width="1.5"/><path id="path10" d="M8.068 8.877v-5" class="cls-2" fill-rule="evenodd"/><path id="path12" d="M8.75 8.75h-4" class="cls-2" fill-rule="evenodd"/></symbol></svg>