<svg viewBox="0 0 19.9 26" xmlns="http://www.w3.org/2000/svg"><style>.st0{stroke:#42c134;stroke-miterlimit:10}.st1{fill:#cb0606}.st2{fill:#fb8d8d}.st3{fill:#fff}</style><text class="st0" x="676" y="381" font-family="MyriadPro-Regular" font-size="12" stroke="#42c134" stroke-miterlimit="10">42c134</text><path class="st1" d="M19.9 6.8v17.1c0 1.1-.9 2.1-2.1 2.1H2.1C.9 26 0 25.1 0 23.9V2.1C0 .9.9 0 2.1 0h11z" fill="#cb0606"/><path class="st2" d="M19.9 6.5v.9h-5.6c-1.2 0-1.7-.9-1.7-2.1V0h.8z" fill="#fb8d8d"/><path class="st3" d="M15.3 13.8c-.2-.1-.3-.1-.5-.1s-.3 0-.4.1-.1.2-.1.4v.4h.8v.8h-.8v3.1h-1v-3.1h-.5v-.8h.5v-.4c0-.5.1-.8.4-1 .2-.2.6-.3 1.1-.3.2 0 .5 0 .7.1zm-4 4.3c-.2.1-.4.3-.6.4s-.4.1-.7.1c-.5 0-.9-.2-1.1-.5-.3-.4-.4-.8-.4-1.5s.1-1.2.4-1.5c.3-.4.7-.5 1.2-.5.2 0 .4 0 .6.1s.4.2.5.3v-2h1v5.5h-.9zm-.1-2.4c-.1-.1-.2-.2-.4-.2-.1-.1-.3-.1-.5-.1-.3 0-.5.1-.6.3-.2.2-.2.5-.2.9s.1.7.2.9.3.3.6.3c.2 0 .3 0 .5-.1s.3-.2.4-.3zm-4.1 2.7c-.2.2-.5.2-.8.2-.4 0-.8-.1-1.1-.4V20h-1v-5.3h.9v.3c.2-.2.4-.3.6-.4s.4-.1.7-.1c.5 0 .9.2 1.1.5.3.3.4.8.4 1.5 0 .4-.1.8-.2 1.1-.1.4-.3.6-.6.8zm-.4-2.7c-.1-.2-.3-.3-.6-.3-.2 0-.3 0-.5.1s-.3.2-.4.3v1.7c.1.1.2.2.4.2s.3.1.5.1c.3 0 .5-.1.6-.3.2-.2.2-.5.2-.9s-.1-.7-.2-.9z" fill="#fff"/></svg>