<svg viewBox="0 0 19.9 26" xmlns="http://www.w3.org/2000/svg"><style>.st0{stroke:#42c134;stroke-miterlimit:10}.st1{fill:#b3b3b3}.st2{fill:#fff}.st3{fill:#d6d6d6}</style><text class="st0" x="676" y="381" font-family="MyriadPro-Regular" font-size="12" stroke="#42c134" stroke-miterlimit="10">42c134</text><path class="st1" d="M19.9 6.8v17.1c0 1.1-.9 2.1-2.1 2.1H2.1C.9 26 0 25.1 0 23.9V2.1C0 .9.9 0 2.1 0h11z" fill="#b3b3b3"/><path class="st2" d="M13.3 17.7c.1.1.2.1.3.1.2 0 .3 0 .5-.1l.2.8c-.3.1-.5.1-.8.1-.4 0-.8-.1-1-.3s-.3-.5-.3-1v-1.9h-.5v-.8h.5v-1.1h1v1.1h.9v.8h-.9v1.8c0 .3.1.4.1.5zm-2.7.8l-.8-1.2-.8 1.2H8l1.3-1.9-1.3-2h1.1l.8 1.2.8-1.2h1.1l-1.3 1.9 1.3 2zm-4.4-.2c-.2-.2-.3-.5-.3-1v-1.9h-.5v-.8h.5v-1.1h1v1.1h.9v.8h-.9v1.8c0 .2 0 .4.1.5s.2.1.3.1c.2 0 .3 0 .5-.1l.2.8c-.3.1-.5.1-.8.1-.5 0-.8-.1-1-.3z" fill="#fff"/><path class="st3" d="M19.9 6.5v.9h-5.6c-1.2 0-1.7-.9-1.7-2.1V0h.8z" fill="#d6d6d6"/></svg>