<svg id="Слой_1" xmlns="http://www.w3.org/2000/svg" viewBox="0 0 28 28"><style>.st0{stroke:#42c134;stroke-miterlimit:10}.st1{fill:#b3b3b3}.st2{fill:#fff}.st3{fill:#d6d6d6}</style><text transform="translate(681 382)" class="st0" font-family="MyriadPro-Regular" font-size="12">42c134</text><path class="st1" d="M24.9 7.8v17.1c0 1.1-.9 2.1-2.1 2.1H7.1C5.9 27 5 26.1 5 24.9V3.1C5 1.9 5.9 1 7.1 1h11l6.8 6.8z"/><path class="st2" d="M18.3 18.7c.1.1.2.1.3.1.2 0 .3 0 .5-.1l.2.8c-.3.1-.5.1-.8.1-.4 0-.8-.1-1-.3-.2-.2-.3-.5-.3-1v-1.9h-.5v-.8h.5v-1.1h1v1.1h.9v.8h-.9v1.8c0 .3.1.4.1.5zm-2.7.8l-.8-1.2-.8 1.2h-1l1.3-1.9-1.3-2h1.1l.8 1.2.8-1.2h1.1l-1.3 1.9 1.3 2h-1.2zm-4.4-.2c-.2-.2-.3-.5-.3-1v-1.9h-.5v-.8h.5v-1.1h1v1.1h.9v.8h-.9v1.8c0 .2 0 .4.1.5.1.1.2.1.3.1.2 0 .3 0 .5-.1l.2.8c-.3.1-.5.1-.8.1-.5 0-.8-.1-1-.3z"/><path class="st3" d="M24.9 7.5v.9h-5.6c-1.2 0-1.7-.9-1.7-2.1V1h.8l6.5 6.5z"/></svg>