<svg width="34.6" height="34.5" viewBox="0 0 34.599998 34.5" xmlns="http://www.w3.org/2000/svg"><style>.st0{stroke:#42c134;stroke-miterlimit:10}.st1{fill-rule:evenodd;clip-rule:evenodd;fill:#4e79b8}</style><text class="st0" x="674.6" y="375.2" font-family="MyriadPro-Regular" font-size="12" stroke="#42c134" stroke-miterlimit="10">42c134</text><g clip-rule="evenodd" fill="#4e79b8" fill-rule="evenodd"><path class="st1" d="M17.2 0c2.7 0 5.3.6 7.6 1.8.4.2.7.4 1.1.6l-1.6 1.4-2.4-2.6-4 3.6-2.4-2.6L8 9l4.8 5.3-1.9 1.7 4.7 5.2-1.9 1.7 6.8 7.5 4-3.7 3.5 4c-.7.5-1.4 1-2.3 1.5-2.5 1.4-5.4 2.3-8.5 2.3C7.7 34.5 0 26.7 0 17.2S7.7 0 17.2 0z"/><path class="st1" d="M21.9 16.5l-4.1 3.7-3.7-4.1 4.1-3.7zm2.9 7.1l-4.1 3.7-3.7-4.1 4.1-3.7zM18.9 9.5l-4.1 3.7-3.7-4.1 4.1-3.7zm5.6-2.1l-3.1 2.8-2.7-3.1 3-2.7zM30 20.1l-3.1 2.8-2.8-3.1 3.1-2.8zm2.7 6.2l-3.1 2.8-2.8-3.1 3.1-2.7zM32 12l-2.1 1.8-1.8-2 2-1.9zm-2.6-6.1l-2.1 1.8-1.8-2 2-1.9zm5.2 12.2l-2.1 1.8-1.8-2 2.1-1.9zm-7.2-4.5l-3.1 2.8-2.8-3.1 3.1-2.8z"/></g></svg>