<svg id="Слой_1" xmlns="http://www.w3.org/2000/svg" viewBox="0 0 125 110"><style>.st0{display:none;fill:#151827}.st1{fill:#8d8d8d}.st2{fill:#000}.st3{fill:#fff}.st4{fill:#8c8c8c}</style><path class="st0" d="M0 0h125v110H0z"/><path class="st1" d="M8.5 38.7c.8 2.1 2.5 3.4 3.4 5.4 0 .1.2-.9.2-1.1.1-1.2-.3-2.2-.5-3.4-.2-1.2-.4-2.7-.9-3.8-.9-2.1-2.4-4.1-4-5.4-.2-.1 0 .4 0 .6.9 2.5.9 5.2 1.8 7.7zm7.4 7.2c-.1 1-.5 1.9-.2 3 0 .2.7-.6.9-1.2.2-.6.6-1.1 1-1.6.6-.8 1.4-1.6 1.9-2.6s1-2.3 1-3.6c.1-1.7-.9-3.8-1.2-5.4-.1-.4-.4.2-.6.5-.9 1.9-2.4 3.7-2.7 6.1-.1 1.7.1 3.3-.1 4.8zm-7 4.3c.7 1.1 1.5 1.8 2.3 2.4 1 .7 1.9 1.2 2.8 2.6 0 .1.1-.7-.2-1.6-.4-1.6-1.2-3-1.8-4.4-.6-1.4-1.3-2.7-2.1-3.8C8.4 43.2 6.7 42.1 5 41c-.2-.1-.6-.5-.5-.2.4 1.6 1.4 3.7 2 5.1.8 1.5 1.5 3 2.4 4.3zm7.5 14.9c.1 0-.5-1.4-.6-1.7-.4-1.3-.7-2.1-1.4-3.1s-1.5-1.7-2.2-2.4c-1.7-1.5-3.4-2.2-5.1-3.7-.2-.2-.9-.5-.8-.1 2.3 4.6 7.2 12.5 10.1 11zm4.3-9.2c1.1-2.3 1.9-6.3 2-9.4 0-.4-.7.5-.8.8-1.7 3.4-4.5 4.3-5 9.3-.5 4.8 3.1.8 3.8-.7zm21.3 46c-3.2-1.6-7.2-5.5-11.6-11.8-3.7-5.2-6.9-11.2-9.5-17.7-4.6-11.7-6.8-24.3-6.1-35.7v-.1c.9-.5 1.7-3.3 1.6-4.7-.3-3.4-1.7-8.5-3.4-12.3-.2-.5-.4 1-.3 1.4.3 5-1.1 7.4.6 13.9.2.9.5 1.4.8 1.6-1 11.9 1.2 25.3 6.2 37.8 2.8 6.8 6.3 13.4 10.4 18.9 3.4 4.6 7.4 9.4 11.6 10.2h.2c.2-.1.3-.3.2-.6-.2-.4-.5-.8-.7-.9zM21.4 70.4c.9 2.3 1.6 4.7 2.1 4.9.4.1 1.5-4.8 1.5-7.5 0-3.1-1.2-6.1-1.5-9.2 0-.3-.1-.9-.2-.7-1.2 2.2-2.1 5-2.2 7.7-.1 1.5-.2 3.4.3 4.8zm-2.5 5.8c.6.5 1.4.8 1.3.5-.8-1.6-1.6-2.3-2.5-3.4-1.3-1.6-2.6-3.7-3.9-5.3-2.1-2.5-4.1-3.2-6-4.7-.3-.2-.9-.7-.6-.1 1.2 2.2 2.6 5.6 4 7.5 1.1 1.4 2.3 2.6 3.3 3.3 1 .7 1.8.9 2.8 1.2.5.3 1.1.5 1.6 1zM29.5 87c.6 1.1.9 1.3.9 1.2-.4-1.5 0-2.5.1-3.6.1-.9.1-1.9-.1-3.1-.3-1.4-.8-3-1.3-4.5-.5-1.4-1.2-3.5-2-4.9-.2-.3-.2.2-.2.4-.3 1.8-.3 3.6-.4 6.1 0 1.4.1 2.8.6 4.2.7 1.6 1.7 2.8 2.4 4.2zm6 8.5c2.9 1.1.2-9.7-1.7-14.4-.2-.4-.4.3-.4.6 0 2.2-.5 3.8-.5 6 0 1 .1 2 .4 3.2.3 1.1 1.6 4.3 2.2 4.6zM26 87.9c-.3-.6-.4-.8-.7-1-3.5-4.8-6.2-4.8-9.6-7.6-.3-.2-1.4-.9-1.2-.5 1.9 3 4.8 6.8 7.1 8.8 1.6 1.2 6.3 4 4.4.3zm8.6 12.5c-.8-1.2-1.3-1.8-2.3-2.5-1-.7-1.9-1.1-2.8-1.5-2.1-.8-3.8-.8-5.9-1.6-.3-.1-1-.1-.7.2 3.6 3.7 9.2 8.4 13.4 7.1.4 0-.8-.6-1.7-1.7z"/><path class="st2" d="M27.5 19.5c24 0 33-13 33-13h4s7.2 13 34 13v23.2c0 39.1-35.5 60.8-35.5 60.8S27.5 81.8 27.5 42.7V19.5z"/><path class="st1" d="M118.4 37.7c1-2.5.9-5.2 1.7-7.8.1-.2.2-.7 0-.6-1.6 1.3-3.1 3.3-4 5.4-.5 1.1-.7 2.7-.9 3.8-.2 1.3-.5 2.2-.5 3.4 0 .2.2 1.2.2 1.1 1.1-1.9 2.7-3.2 3.5-5.3zm-9.1 7.5c.4.5.7 1 1 1.6.2.6.9 1.4.9 1.2.3-1.1 0-2-.2-3-.2-1.5.1-3.1-.2-4.6-.3-2.4-1.8-4.2-2.7-6.1-.1-.3-.5-.9-.6-.5-.3 1.6-1.3 3.7-1.2 5.4.1 1.3.5 2.6 1 3.6.7.8 1.4 1.5 2 2.4zM122 40c-1.7 1.1-3.4 2.2-4.9 4.4-.8 1.1-1.4 2.5-2.1 3.8-.6 1.4-1.4 2.8-1.8 4.4-.2.9-.2 1.6-.2 1.6.9-1.4 1.8-1.9 2.8-2.6.8-.6 1.5-1.3 2.3-2.4.9-1.3 1.6-2.8 2.3-4.3.7-1.4 1.7-3.5 2-5.1.2-.3-.2 0-.4.2zm-2 13.1c-1.7 1.5-3.4 2.2-5.1 3.7-.8.7-1.5 1.4-2.2 2.4-.8 1-1 1.8-1.4 3.1-.1.3-.7 1.6-.6 1.7 2.9 1.5 7.8-6.3 10.1-11 .1-.4-.6-.1-.8.1zm-9.9 2.6c-.5-5-3.3-6-5-9.3-.1-.3-.9-1.2-.8-.8.1 3.1.9 7 2 9.4.7 1.4 4.3 5.4 3.8.7zM96.5 92.3c4-5.5 7.6-12.1 10.4-18.9 5-12.4 7.2-25.8 6.2-37.8.3-.2.5-.8.8-1.6 1.7-6.5.3-9 .6-13.9 0-.4-.1-1.9-.3-1.4-1.6 3.8-3.1 8.9-3.4 12.3-.1 1.4.7 4.2 1.6 4.7v.1c.7 11.3-1.5 24-6.1 35.7-2.6 6.5-5.8 12.4-9.5 17.7-4.5 6.3-8.4 10.3-11.6 11.8-.3.1-.5.5-.5.9 0 .3.1.6.2.6h.2c4-.8 8-5.6 11.4-10.2zm7-18.1c.5-.1 1.2-2.5 2.1-4.9.5-1.3.4-3.3.4-4.7-.1-2.7-1-5.6-2.2-7.7-.1-.2-.2.4-.2.7-.3 3.1-1.5 6-1.5 9.2-.1 2.6.9 7.5 1.4 7.4zm15.7-11.9c-1.9 1.4-3.9 2.1-6 4.7-1.3 1.6-2.6 3.7-3.9 5.3-.9 1.1-1.7 1.8-2.5 3.4-.2.3.7 0 1.3-.5.6-.5 1.1-.7 1.6-1 .9-.4 1.8-.6 2.8-1.2 1-.7 2.2-1.8 3.3-3.3 1.4-1.9 2.8-5.3 4-7.5.3-.6-.3-.1-.6.1zm-22.7 25c0 .1.4-.1.9-1.2.7-1.4 1.7-2.6 2.3-4.1.5-1.4.6-2.8.6-4.2 0-2.5 0-4.3-.4-6.1 0-.2-.1-.7-.2-.4-.8 1.4-1.5 3.5-2 4.9-.5 1.5-1 3.1-1.3 4.5-.2 1.2-.2 2.2-.1 3.1.3 1 .6 1.9.2 3.5zm-5 7.2c.7-.3 1.9-3.4 2.2-4.6.3-1.2.4-2.2.4-3.2.1-2.2-.5-3.8-.5-6 0-.3-.2-1-.4-.6-2 4.7-4.6 15.5-1.7 14.4zm19.7-16.2c-3.4 2.8-6.1 2.8-9.6 7.6-.2.3-.4.5-.7 1-1.9 3.6 2.9.9 4.4-.4 2.3-1.9 5.2-5.7 7.1-8.8.2-.3-.9.4-1.2.6zm-7.8 15.6c-2.1.8-3.8.7-5.9 1.6-.9.4-1.8.8-2.8 1.5-1 .7-1.5 1.3-2.3 2.5-.8 1.1-2 1.7-1.6 1.8 4.2 1.3 9.8-3.4 13.4-7.1.2-.4-.5-.4-.8-.3z"/><path class="st3" d="M65.3 43.5l-.2.7.8.9c-1.5 4.3-3.3 9.2-4.3 11.8h-.1c-1.6-3.7-2.6-6-2.9-6.8 1.4-2.8 2.2-4 2.5-4.6.5-.5 1.2-.8 2.3-1.3l.2-.7h-3.7l-.1.1-.1 1.3c-.5 1.2-.9 1.9-1.7 3.7-1.2-2.7-1.4-3.2-1.6-3.8l-.1-1.2v-.1h-5l-.3.7c1.1.4 1.6.7 1.9 1.1.8 1.6 1.9 4 3 6.7-1.1 2.3-1.7 3.7-2.4 5h-.1c-3.7-8.7-4.5-10.7-5-12.1l.6-.7.1-.7h-6.2l-.3.7c1.3.4 1.7.7 2.2 1.2 1.5 3 6.1 14 6.9 15.8h.3c.6-.5 1.3-1.5 1.7-2.3.7-1.5 1.5-3.2 2.7-5.6h.1c1.5 3.2 3 6.8 3.4 7.8h.3c.5-.5 1.3-1.5 1.7-2.3 2.2-5.5 4.8-12 5.5-13.3.6-.6 1.1-.9 2.2-1.4l.2-.7h-3c-.4.1-.9.1-1.5.1zM77 53l.2.8c.3.1.7.1 1.1.1 2.3 0 6.1-1.2 6.1-5.4 0-1.6-.6-3.1-2.2-4.1-1.3-.8-3-1.1-5.5-1.1-1.7 0-3.7.2-6.1.4l-.2.7 2.1.6v6.4c0 5.5 0 7.1-.1 7.6l-1.8 1-.2.7h8.4l.2-.7-3-1c0-.4-.2-1.5-.2-7.6v-7c2.9 0 5.1 1 5.1 4.2.1 2.4-1.3 4.1-3.9 4.4z"/><path class="st4" d="M64.3 10.5h-3.5S50.8 22 29.5 22v21.5c0 34.7 33.5 56.9 33.5 56.9s33.5-22.3 33.5-56.9V22c-23.8 0-32.2-11.5-32.2-11.5zm31.2 33.2C95.5 76.3 63 99.5 63 99.5S30.5 76.4 30.5 43.7V23.3c20 0 30.4-11.8 30.4-11.8h3.3s9 11.8 31.3 11.8v20.4z"/></svg>