<svg id="Слой_1" xmlns="http://www.w3.org/2000/svg" viewBox="0 0 28 28"><style>.st0{stroke:#42c134;stroke-miterlimit:10}.st1{fill:#79ac00}.st2{fill:#fff}.st3{fill:#b4e441}</style><text transform="translate(681 382)" class="st0" font-family="MyriadPro-Regular" font-size="12">42c134</text><path class="st1" d="M25 7.8V25c0 1.1-.9 2.1-2.1 2.1H7.1C5.9 27 5 26.1 5 24.9v-22C5 1.8 5.9.8 7.1.8h11l6.9 7z"/><path class="st2" d="M17.9 16.3c-.2 0-.3 0-.4.1-.1.1-.2.2-.2.3 0 .1 0 .2.1.2.1.1.3.1.5.2.4.1.8.2.9.3.2.1.3.2.4.4.1.2.1.4.1.6 0 .3-.1.5-.2.7-.1.2-.3.3-.6.4-.2.1-.5.1-.8.1-.8 0-1.4-.2-1.7-.7l.7-.5c.1.2.3.3.4.3.2.1.3.1.5.1.5 0 .7-.1.7-.4 0-.1-.1-.2-.2-.3-.1-.1-.3-.1-.6-.2-.5-.1-.9-.3-1.1-.5-.2-.2-.3-.5-.3-.8 0-.3.1-.6.4-.8.3-.2.6-.3 1.2-.3.3 0 .7.1.9.2.3.1.5.3.6.5l-.7.5c.1-.3-.2-.4-.6-.4zM14.5 14h1v5.5h-1V14zm-1.8 5.5l-.7-1.3-.8 1.2h-1.1l1.3-1.9-1.3-2h1.1l.8 1.2.8-1.2h1.1l-1.3 1.9 1.3 2h-1.2z"/><path class="st3" d="M25 7.4v.9h-5.6c-1.2 0-1.7-.9-1.7-2.1V.9h.9L25 7.4z"/></svg>