<svg width="20" height="26.3" viewBox="0 0 20 26.299999" xmlns="http://www.w3.org/2000/svg"><style>.st0{stroke:#42c134;stroke-miterlimit:10}.st1{fill:#79ac00}.st2{fill:#fff}.st3{fill:#b4e441}</style><text class="st0" x="676" y="381.2" font-family="MyriadPro-Regular" font-size="12" stroke="#42c134" stroke-miterlimit="10">42c134</text><path class="st1" d="M20 7v17.2c0 1.1-.9 2.1-2.1 2.1H2.1c-1.2-.1-2.1-1-2.1-2.2v-22C0 1 .9 0 2.1 0h11z" fill="#79ac00"/><path class="st2" d="M12.9 15.5c-.2 0-.3 0-.4.1s-.2.2-.2.3 0 .2.1.2c.1.1.3.1.5.2.4.1.8.2.9.3.2.1.3.2.4.4s.1.4.1.6c0 .3-.1.5-.2.7s-.3.3-.6.4c-.2.1-.5.1-.8.1-.8 0-1.4-.2-1.7-.7l.7-.5c.1.2.3.3.4.3.2.1.3.1.5.1.5 0 .7-.1.7-.4 0-.1-.1-.2-.2-.3s-.3-.1-.6-.2c-.5-.1-.9-.3-1.1-.5s-.3-.5-.3-.8.1-.6.4-.8.6-.3 1.2-.3c.3 0 .7.1.9.2.3.1.5.3.6.5l-.7.5c.1-.3-.2-.4-.6-.4zm-3.4-2.3h1v5.5h-1zm-1.8 5.5L7 17.4l-.8 1.2H5.1l1.3-1.9-1.3-2h1.1l.8 1.2.8-1.2h1.1l-1.3 1.9 1.3 2H7.7z" fill="#fff"/><path class="st3" d="M20 6.6v.9h-5.6c-1.2 0-1.7-.9-1.7-2.1V.1h.9z" fill="#b4e441"/></svg>