<svg width="22.4" height="35.2" version="1.1" viewBox="0 0 22.4 35.200001" xml:space="preserve" xmlns="http://www.w3.org/2000/svg"><style type="text/css">
	.st0{stroke:#42C134;stroke-miterlimit:10;}
	.st1{fill:#D35243;}
	.st2{fill:#FFFFFF;}
</style><text class="st0" x="668.40002" y="375" font-family="MyriadPro-Regular" font-size="12px" stroke="#42c134" stroke-miterlimit="10">42c134</text>
<path class="st1" d="m11.2 0c2.4 0 3.1 1.7 3.8 3.4 0.3 0.7 6.5 17.7 6.7 18.2 0.1 0.1 0 0.4-0.2 0.5s-3.4 1.3-3.6 1.4-0.4 0-0.4-0.2c-0.1-0.2-1.4-3.9-1.6-4.3h-9.2c-0.2 0.4-1.5 4.1-1.6 4.3s-0.3 0.3-0.4 0.2c-0.2-0.1-3.4-1.3-3.6-1.4s-0.3-0.3-0.2-0.5c0.1-0.6 6.2-17.3 6.5-18.2 0.6-1.7 1.4-3.4 3.8-3.4z" fill="#d35243"/><path class="st1" d="m0.3 30.4c-0.2 0-0.3 0.2-0.3 0.4v4c0 0.2 0.2 0.4 0.3 0.4h21.8c0.2 0 0.3-0.2 0.3-0.4v-4c0-0.2-0.2-0.4-0.3-0.4h-21.8" fill="#d35243"/><polygon class="st2" transform="translate(-7.6,-2)" points="21.9 16.9 18.8 7.5 15.7 16.9" fill="#fff"/></svg>
