<svg version="1.1" viewBox="0 0 32 21" xml:space="preserve" xmlns="http://www.w3.org/2000/svg"><style type="text/css">
	.st0{stroke:#42C134;stroke-miterlimit:10;}
	.st1{fill:#ECF0F1;}
	.st2{fill:#34495E;}
	.st3{fill:#F1C40F;}
</style><text class="st0" x="673" y="367.5" font-family="MyriadPro-Regular" font-size="12px" stroke="#42c134" stroke-miterlimit="10">42c134</text>
<g id="E-Com" transform="translate(-3,-9.5)"><g id="Visa_6_"><g id="Visa"><path class="st1" d="m33 9.5h-28c-1.1 0-2 0.9-2 2v17c0 1.1 0.9 2 2 2h28c1.1 0 2-0.9 2-2v-17c0-1.1-0.9-2-2-2z" fill="#ecf0f1"/></g><g id="Visa_1_"><path class="st2" d="m33 9.5h-28c-1.1 0-2 0.9-2 2v2h32v-2c0-1.1-0.9-2-2-2z" fill="#34495e"/></g><g id="Visa_2_"><path class="st3" d="m3 26.5v2c0 1.1 0.9 2 2 2h28c1.1 0 2-0.9 2-2v-2z" fill="#f1c40f"/></g><g id="Visa_3_"><path class="st2" d="m21.5 19.2c-0.7-0.4-1.1-0.6-1.1-1 0-0.3 0.4-0.7 1.1-0.7 0.6 0 1.1 0.1 1.5 0.3l0.2 0.1 0.3-1.7c-0.4-0.2-1-0.3-1.7-0.3-1.9 0-3.3 1.1-3.3 2.6 0 1.1 1 1.7 1.7 2.1 0.8 0.4 1 0.6 1 1 0 0.5-0.6 0.8-1.2 0.8-0.8 0-1.2-0.1-1.8-0.4l-0.3-0.1-0.3 1.7c0.5 0.2 1.3 0.4 2.2 0.4 2 0 3.4-1 3.4-2.6 0-1-0.5-1.7-1.7-2.2zm6.9-3.1h-1.5c-0.5 0-0.8 0.1-1 0.6l-2.9 7.1h2s0.3-1 0.4-1.2h2.5c0.1 0.3 0.2 1.2 0.2 1.2h1.9zm-2.4 5c0.2-0.4 0.8-2.2 0.8-2.2s0.2-0.4 0.3-0.7l0.1 0.7s0.4 1.8 0.4 2.2zm-11.5 2.7h1.9l1.2-7.7h-1.9zm-1.7-7.7-1.9 5.3-0.2-1.1c-0.4-1.2-1.5-2.6-2.7-3.3l1.7 6.8h2.1l3.1-7.7h-2.1z" fill="#34495e"/></g><g id="Visa_4_"><path class="st3" d="m10 16.7c-0.1-0.5-0.5-0.6-0.9-0.7h-3.1v0.2c2.4 0.6 4.1 2.2 4.7 4.1z" fill="#f1c40f"/></g></g></g></svg>
