<svg width="20" height="26.3" version="1.1" viewBox="0 0 20 26.299999" xml:space="preserve" xmlns="http://www.w3.org/2000/svg"><style type="text/css">
	.st0{stroke:#42C134;stroke-miterlimit:10;}
	.st1{fill:#067FCB;}
	.st2{fill:#FFFFFF;}
	.st3{fill:#7CC9F9;}
</style><text class="st0" x="676" y="381.20001" font-family="MyriadPro-Regular" font-size="12px" stroke="#42c134" stroke-miterlimit="10">42c134</text>
<g transform="translate(-5 -.8)"><path class="st1" d="m25 7.8v17.2c0 1.1-0.9 2.1-2.1 2.1h-15.8c-1.2-0.1-2.1-1-2.1-2.2v-22c0-1.1 0.9-2.1 2.1-2.1h11z" fill="#067fcb"/><path class="st2" d="m20.1 16.4c-0.1-0.1-0.3-0.1-0.4-0.1-0.3 0-0.6 0.1-0.7 0.3s-0.2 0.5-0.2 0.9 0.1 0.7 0.2 0.9 0.4 0.3 0.7 0.3c0.1 0 0.3 0 0.4-0.1 0.1 0 0.2-0.1 0.4-0.3l0.7 0.5c-0.1 0.2-0.3 0.4-0.6 0.5-0.2 0.1-0.5 0.2-0.9 0.2-0.6 0-1.1-0.2-1.4-0.5s-0.5-0.8-0.5-1.5 0.2-1.2 0.5-1.5c0.3-0.4 0.8-0.5 1.4-0.5 0.3 0 0.6 0.1 0.9 0.2s0.5 0.3 0.6 0.5l-0.7 0.5c-0.2-0.2-0.3-0.3-0.4-0.3zm-4.9 3.2c-1.2 0-1.9-0.7-1.9-2 0-0.7 0.1-1.2 0.4-1.5 0.3-0.4 0.8-0.5 1.4-0.5s1.1 0.2 1.4 0.5c0.3 0.4 0.4 0.9 0.4 1.5s-0.1 1.1-0.4 1.5c-0.2 0.3-0.7 0.5-1.3 0.5zm0.7-3c-0.1-0.2-0.4-0.3-0.7-0.3s-0.5 0.1-0.7 0.3c-0.1 0.2-0.2 0.5-0.2 0.9s0.1 0.7 0.2 0.9 0.4 0.3 0.7 0.3 0.5-0.1 0.7-0.3c0.1-0.2 0.2-0.5 0.2-0.9s-0.1-0.7-0.2-0.9zm-4.3 2.5c-0.2 0.2-0.4 0.3-0.6 0.4s-0.4 0.1-0.7 0.1c-0.5 0-0.9-0.2-1.1-0.5-0.3-0.4-0.4-0.8-0.4-1.5s0.1-1.2 0.4-1.5c0.3-0.4 0.7-0.5 1.2-0.5 0.2 0 0.4 0 0.6 0.1s0.4 0.2 0.5 0.3v-2h1v5.5h-0.9zm-0.1-2.4c-0.1-0.1-0.2-0.2-0.4-0.2-0.1-0.1-0.3-0.1-0.5-0.1-0.3 0-0.5 0.1-0.6 0.3-0.2 0.2-0.2 0.5-0.2 0.9s0.1 0.7 0.2 0.9 0.3 0.3 0.6 0.3c0.2 0 0.3 0 0.5-0.1s0.3-0.2 0.4-0.3z" fill="#fff"/><path class="st3" d="m25 7.4v0.9h-5.6c-1.2 0-1.7-0.9-1.7-2.1v-5.3h0.9z" fill="#7cc9f9"/></g></svg>
