<?xml version="1.0" encoding="utf-8"?>
<!-- Generator: Adobe Illustrator 21.0.0, SVG Export Plug-In . SVG Version: 6.00 Build 0)  -->
<svg version="1.1" id="Слой_1" xmlns="http://www.w3.org/2000/svg" xmlns:xlink="http://www.w3.org/1999/xlink" x="0px" y="0px"
	 viewBox="0 0 28 28" style="enable-background:new 0 0 28 28;" xml:space="preserve">
<style type="text/css">
	.st0{stroke:#42C134;stroke-miterlimit:10;}
	.st1{fill:#067FCB;}
	.st2{fill:#FFFFFF;}
	.st3{fill:#7CC9F9;}
</style>
<text transform="matrix(1 0 0 1 681 382)" class="st0" style="font-family:'MyriadPro-Regular'; font-size:12px;">42c134</text>
<g id="Lockup">
</g>
<g>
	<path class="st1" d="M25,7.8v17.2c0,1.1-0.9,2.1-2.1,2.1H7.1C5.9,27,5,26.1,5,24.9v-22c0-1.1,0.9-2.1,2.1-2.1h11L25,7.8z"/>
	<path class="st2" d="M20.1,16.4c-0.1-0.1-0.3-0.1-0.4-0.1c-0.3,0-0.6,0.1-0.7,0.3c-0.1,0.2-0.2,0.5-0.2,0.9c0,0.4,0.1,0.7,0.2,0.9
		c0.1,0.2,0.4,0.3,0.7,0.3c0.1,0,0.3,0,0.4-0.1c0.1,0,0.2-0.1,0.4-0.3l0.7,0.5c-0.1,0.2-0.3,0.4-0.6,0.5c-0.2,0.1-0.5,0.2-0.9,0.2
		c-0.6,0-1.1-0.2-1.4-0.5c-0.3-0.3-0.5-0.8-0.5-1.5c0-0.7,0.2-1.2,0.5-1.5c0.3-0.4,0.8-0.5,1.4-0.5c0.3,0,0.6,0.1,0.9,0.2
		c0.3,0.1,0.5,0.3,0.6,0.5l-0.7,0.5C20.3,16.5,20.2,16.4,20.1,16.4z M15.2,19.6c-1.2,0-1.9-0.7-1.9-2c0-0.7,0.1-1.2,0.4-1.5
		c0.3-0.4,0.8-0.5,1.4-0.5c0.6,0,1.1,0.2,1.4,0.5c0.3,0.4,0.4,0.9,0.4,1.5c0,0.6-0.1,1.1-0.4,1.5C16.3,19.4,15.8,19.6,15.2,19.6z
		 M15.9,16.6c-0.1-0.2-0.4-0.3-0.7-0.3c-0.3,0-0.5,0.1-0.7,0.3c-0.1,0.2-0.2,0.5-0.2,0.9c0,0.4,0.1,0.7,0.2,0.9
		c0.1,0.2,0.4,0.3,0.7,0.3c0.3,0,0.5-0.1,0.7-0.3c0.1-0.2,0.2-0.5,0.2-0.9C16.1,17.1,16,16.8,15.9,16.6z M11.6,19.1
		c-0.2,0.2-0.4,0.3-0.6,0.4c-0.2,0.1-0.4,0.1-0.7,0.1c-0.5,0-0.9-0.2-1.1-0.5c-0.3-0.4-0.4-0.8-0.4-1.5c0-0.7,0.1-1.2,0.4-1.5
		c0.3-0.4,0.7-0.5,1.2-0.5c0.2,0,0.4,0,0.6,0.1c0.2,0.1,0.4,0.2,0.5,0.3V14h1v5.5h-0.9V19.1z M11.5,16.7c-0.1-0.1-0.2-0.2-0.4-0.2
		c-0.1-0.1-0.3-0.1-0.5-0.1c-0.3,0-0.5,0.1-0.6,0.3c-0.2,0.2-0.2,0.5-0.2,0.9c0,0.4,0.1,0.7,0.2,0.9c0.1,0.2,0.3,0.3,0.6,0.3
		c0.2,0,0.3,0,0.5-0.1c0.2-0.1,0.3-0.2,0.4-0.3V16.7z"/>
	<path class="st3" d="M25,7.4v0.9h-5.6c-1.2,0-1.7-0.9-1.7-2.1V0.9h0.9L25,7.4z"/>
</g>
</svg>
