<svg version="1.1" xmlns="http://www.w3.org/2000/svg" xmlns:xlink="http://www.w3.org/1999/xlink" x="0px" y="0px" viewBox="0 0 24 24" xml:space="preserve">
	<g id="_x37_">
		<path fill="#B3B3B3" d="M12 2C8.4 2 5.5 4.9 5.5 8.5c0 3.7 5.3 10.9 6.5 12.5 1.2-1.6 6.5-8.9 6.5-12.5C18.5 4.9 15.6 2 12 2z"/>
		<path fill="#222222" d="M12.3 12.9c-2 0-3.6-1.6-3.6-3.6s1.6-3.6 3.6-3.6 3.6 1.6 3.6 3.6-1.6 3.6-3.6 3.6zm0-6.6c-1.7 0-3 1.4-3 3s1.4 3 3 3 3-1.4 3-3-1.3-3-3-3z"/>
	</g>
	<circle class="st3" fill="white" cx="12" cy="9" r="4"/>
</svg>
