<svg version="1.1" viewBox="0 0 38 38" xml:space="preserve" xmlns="http://www.w3.org/2000/svg"><style type="text/css">
	.st0{stroke:#42C134;stroke-miterlimit:10;}
	.st1{fill:#D12C2A;}
	.st2{fill:none;stroke:#D12C2A;stroke-width:3;stroke-linecap:round;stroke-linejoin:round;stroke-miterlimit:22.9256;}
</style><text class="st0" x="666" y="367" font-family="MyriadPro-Regular" font-size="12px" stroke="#42c134" stroke-miterlimit="10">42c134</text>
<g transform="translate(-5,-5)"><path class="st1" d="m24 5c-10.5 0-19 8.5-19 19s8.5 19 19 19 19-8.5 19-19-8.5-19-19-19zm0 36.6c-9.7 0-17.6-7.9-17.6-17.6s7.9-17.6 17.6-17.6 17.6 7.9 17.6 17.6-7.9 17.6-17.6 17.6z" fill="#d12c2a"/></g><path class="st2" d="m12.5 13c4.8 4.6 7.7 7.9 12.5 12.5" fill="none" stroke="#d12c2a" stroke-linecap="round" stroke-linejoin="round" stroke-miterlimit="22.926" stroke-width="3"/><path class="st2" d="m12.5 25.5c4.6-4.8 7.9-7.7 12.5-12.5" fill="none" stroke="#d12c2a" stroke-linecap="round" stroke-linejoin="round" stroke-miterlimit="22.926" stroke-width="3"/></svg>
