<svg version="1.1" viewBox="0 0 19.9 26" xml:space="preserve" xmlns="http://www.w3.org/2000/svg"><style type="text/css">
	.st0{stroke:#42C134;stroke-miterlimit:10;}
	.st1{fill:#CB0606;}
	.st2{fill:#FB8D8D;}
	.st3{fill:#FFFFFF;}
</style><text class="st0" x="676" y="381" font-family="MyriadPro-Regular" font-size="12px" stroke="#42c134" stroke-miterlimit="10">42c134</text>
<g transform="translate(-5,-1)"><path class="st1" d="m24.9 7.8v17.1c0 1.1-0.9 2.1-2.1 2.1h-15.7c-1.2 0-2.1-0.9-2.1-2.1v-21.8c0-1.2 0.9-2.1 2.1-2.1h11z" fill="#cb0606"/><path class="st2" d="m24.9 7.5v0.9h-5.6c-1.2 0-1.7-0.9-1.7-2.1v-5.3h0.8z" fill="#fb8d8d"/><path class="st3" d="m20.3 14.8c-0.2-0.1-0.3-0.1-0.5-0.1s-0.3 0-0.4 0.1-0.1 0.2-0.1 0.4v0.4h0.8v0.8h-0.8v3.1h-1v-3.1h-0.5v-0.8h0.5v-0.4c0-0.5 0.1-0.8 0.4-1 0.2-0.2 0.6-0.3 1.1-0.3 0.2 0 0.5 0 0.7 0.1zm-4 4.3c-0.2 0.1-0.4 0.3-0.6 0.4s-0.4 0.1-0.7 0.1c-0.5 0-0.9-0.2-1.1-0.5-0.3-0.4-0.4-0.8-0.4-1.5s0.1-1.2 0.4-1.5c0.3-0.4 0.7-0.5 1.2-0.5 0.2 0 0.4 0 0.6 0.1s0.4 0.2 0.5 0.3v-2h1v5.5h-0.9zm-0.1-2.4c-0.1-0.1-0.2-0.2-0.4-0.2-0.1-0.1-0.3-0.1-0.5-0.1-0.3 0-0.5 0.1-0.6 0.3-0.2 0.2-0.2 0.5-0.2 0.9s0.1 0.7 0.2 0.9 0.3 0.3 0.6 0.3c0.2 0 0.3 0 0.5-0.1s0.3-0.2 0.4-0.3zm-4.1 2.7c-0.2 0.2-0.5 0.2-0.8 0.2-0.4 0-0.8-0.1-1.1-0.4v1.8h-1v-5.3h0.9v0.3c0.2-0.2 0.4-0.3 0.6-0.4s0.4-0.1 0.7-0.1c0.5 0 0.9 0.2 1.1 0.5 0.3 0.3 0.4 0.8 0.4 1.5 0 0.4-0.1 0.8-0.2 1.1-0.1 0.4-0.3 0.6-0.6 0.8zm-0.4-2.7c-0.1-0.2-0.3-0.3-0.6-0.3-0.2 0-0.3 0-0.5 0.1s-0.3 0.2-0.4 0.3v1.7c0.1 0.1 0.2 0.2 0.4 0.2s0.3 0.1 0.5 0.1c0.3 0 0.5-0.1 0.6-0.3 0.2-0.2 0.2-0.5 0.2-0.9s-0.1-0.7-0.2-0.9z" fill="#fff"/></g></svg>
