<?xml version="1.0" encoding="utf-8"?>
<!-- Generator: Adobe Illustrator 21.0.0, SVG Export Plug-In . SVG Version: 6.00 Build 0)  -->
<svg version="1.1" id="Слой_1" xmlns="http://www.w3.org/2000/svg" xmlns:xlink="http://www.w3.org/1999/xlink" x="0px" y="0px"
	 viewBox="0 0 28 28" style="enable-background:new 0 0 28 28;" xml:space="preserve">
<style type="text/css">
	.st0{stroke:#42C134;stroke-miterlimit:10;}
	.st1{fill:#CB0606;}
	.st2{fill:#FB8D8D;}
	.st3{fill:#FFFFFF;}
</style>
<text transform="matrix(1 0 0 1 681 382)" class="st0" style="font-family:'MyriadPro-Regular'; font-size:12px;">42c134</text>
<g id="Lockup">
</g>
<g>
	<path class="st1" d="M24.9,7.8v17.1c0,1.1-0.9,2.1-2.1,2.1H7.1C5.9,27,5,26.1,5,24.9V3.1C5,1.9,5.9,1,7.1,1h11L24.9,7.8z"/>
	<path class="st2" d="M24.9,7.5v0.9h-5.6c-1.2,0-1.7-0.9-1.7-2.1V1h0.8L24.9,7.5z"/>
	<path class="st3" d="M20.3,14.8c-0.2-0.1-0.3-0.1-0.5-0.1c-0.2,0-0.3,0-0.4,0.1c-0.1,0.1-0.1,0.2-0.1,0.4v0.4h0.8v0.8h-0.8v3.1h-1
		v-3.1h-0.5v-0.8h0.5v-0.4c0-0.5,0.1-0.8,0.4-1c0.2-0.2,0.6-0.3,1.1-0.3c0.2,0,0.5,0,0.7,0.1L20.3,14.8z M16.3,19.1
		c-0.2,0.1-0.4,0.3-0.6,0.4c-0.2,0.1-0.4,0.1-0.7,0.1c-0.5,0-0.9-0.2-1.1-0.5c-0.3-0.4-0.4-0.8-0.4-1.5c0-0.7,0.1-1.2,0.4-1.5
		c0.3-0.4,0.7-0.5,1.2-0.5c0.2,0,0.4,0,0.6,0.1c0.2,0.1,0.4,0.2,0.5,0.3V14h1v5.5h-0.9V19.1z M16.2,16.7c-0.1-0.1-0.2-0.2-0.4-0.2
		c-0.1-0.1-0.3-0.1-0.5-0.1c-0.3,0-0.5,0.1-0.6,0.3c-0.2,0.2-0.2,0.5-0.2,0.9c0,0.4,0.1,0.7,0.2,0.9c0.1,0.2,0.3,0.3,0.6,0.3
		c0.2,0,0.3,0,0.5-0.1c0.2-0.1,0.3-0.2,0.4-0.3V16.7z M12.1,19.4c-0.2,0.2-0.5,0.2-0.8,0.2c-0.4,0-0.8-0.1-1.1-0.4V21h-1v-5.3h0.9
		V16c0.2-0.2,0.4-0.3,0.6-0.4c0.2-0.1,0.4-0.1,0.7-0.1c0.5,0,0.9,0.2,1.1,0.5c0.3,0.3,0.4,0.8,0.4,1.5c0,0.4-0.1,0.8-0.2,1.1
		C12.6,19,12.4,19.2,12.1,19.4z M11.7,16.7c-0.1-0.2-0.3-0.3-0.6-0.3c-0.2,0-0.3,0-0.5,0.1c-0.2,0.1-0.3,0.2-0.4,0.3v1.7
		c0.1,0.1,0.2,0.2,0.4,0.2s0.3,0.1,0.5,0.1c0.3,0,0.5-0.1,0.6-0.3c0.2-0.2,0.2-0.5,0.2-0.9C11.9,17.2,11.8,16.9,11.7,16.7z"/>
</g>
</svg>
