<svg version="1.1" viewBox="0 0 19.9 26" xml:space="preserve" xmlns="http://www.w3.org/2000/svg"><style type="text/css">
	.st0{stroke:#42C134;stroke-miterlimit:10;}
	.st1{fill:#B3B3B3;}
	.st2{fill:#FFFFFF;}
	.st3{fill:#D6D6D6;}
</style><text class="st0" x="676" y="381" font-family="MyriadPro-Regular" font-size="12px" stroke="#42c134" stroke-miterlimit="10">42c134</text>
<g transform="translate(-5,-1)"><path class="st1" d="m24.9 7.8v17.1c0 1.1-0.9 2.1-2.1 2.1h-15.7c-1.2 0-2.1-0.9-2.1-2.1v-21.8c0-1.2 0.9-2.1 2.1-2.1h11z" fill="#b3b3b3"/><path class="st2" d="m18.3 18.7c0.1 0.1 0.2 0.1 0.3 0.1 0.2 0 0.3 0 0.5-0.1l0.2 0.8c-0.3 0.1-0.5 0.1-0.8 0.1-0.4 0-0.8-0.1-1-0.3s-0.3-0.5-0.3-1v-1.9h-0.5v-0.8h0.5v-1.1h1v1.1h0.9v0.8h-0.9v1.8c0 0.3 0.1 0.4 0.1 0.5zm-2.7 0.8-0.8-1.2-0.8 1.2h-1l1.3-1.9-1.3-2h1.1l0.8 1.2 0.8-1.2h1.1l-1.3 1.9 1.3 2zm-4.4-0.2c-0.2-0.2-0.3-0.5-0.3-1v-1.9h-0.5v-0.8h0.5v-1.1h1v1.1h0.9v0.8h-0.9v1.8c0 0.2 0 0.4 0.1 0.5s0.2 0.1 0.3 0.1c0.2 0 0.3 0 0.5-0.1l0.2 0.8c-0.3 0.1-0.5 0.1-0.8 0.1-0.5 0-0.8-0.1-1-0.3z" fill="#fff"/><path class="st3" d="m24.9 7.5v0.9h-5.6c-1.2 0-1.7-0.9-1.7-2.1v-5.3h0.8z" fill="#d6d6d6"/></g></svg>
