<?xml version="1.0" encoding="utf-8"?>
<!-- Generator: Adobe Illustrator 21.0.0, SVG Export Plug-In . SVG Version: 6.00 Build 0)  -->
<svg version="1.1" id="Слой_1" xmlns="http://www.w3.org/2000/svg" xmlns:xlink="http://www.w3.org/1999/xlink" x="0px" y="0px"
	 viewBox="0 0 28 28" style="enable-background:new 0 0 28 28;" xml:space="preserve">
<style type="text/css">
	.st0{stroke:#42C134;stroke-miterlimit:10;}
	.st1{fill:#B3B3B3;}
	.st2{fill:#FFFFFF;}
	.st3{fill:#D6D6D6;}
</style>
<text transform="matrix(1 0 0 1 681 382)" class="st0" style="font-family:'MyriadPro-Regular'; font-size:12px;">42c134</text>
<g id="Lockup">
</g>
<g>
	<path class="st1" d="M24.9,7.8v17.1c0,1.1-0.9,2.1-2.1,2.1H7.1C5.9,27,5,26.1,5,24.9V3.1C5,1.9,5.9,1,7.1,1h11L24.9,7.8z"/>
	<path class="st2" d="M18.3,18.7c0.1,0.1,0.2,0.1,0.3,0.1c0.2,0,0.3,0,0.5-0.1l0.2,0.8c-0.3,0.1-0.5,0.1-0.8,0.1
		c-0.4,0-0.8-0.1-1-0.3c-0.2-0.2-0.3-0.5-0.3-1v-1.9h-0.5v-0.8h0.5v-1.1h1v1.1h0.9v0.8h-0.9v1.8C18.2,18.5,18.3,18.6,18.3,18.7z
		 M15.6,19.5l-0.8-1.2L14,19.5H13l1.3-1.9l-1.3-2h1.1l0.8,1.2l0.8-1.2h1.1l-1.3,1.9l1.3,2H15.6z M11.2,19.3c-0.2-0.2-0.3-0.5-0.3-1
		v-1.9h-0.5v-0.8h0.5v-1.1h1v1.1h0.9v0.8h-0.9v1.8c0,0.2,0,0.4,0.1,0.5c0.1,0.1,0.2,0.1,0.3,0.1c0.2,0,0.3,0,0.5-0.1l0.2,0.8
		c-0.3,0.1-0.5,0.1-0.8,0.1C11.7,19.6,11.4,19.5,11.2,19.3z"/>
	<path class="st3" d="M24.9,7.5v0.9h-5.6c-1.2,0-1.7-0.9-1.7-2.1V1h0.8L24.9,7.5z"/>
</g>
</svg>
