<svg width="34.6" height="34.5" version="1.1" viewBox="0 0 34.599998 34.5" xml:space="preserve" xmlns="http://www.w3.org/2000/svg"><style type="text/css">
	.st0{stroke:#42C134;stroke-miterlimit:10;}
	.st1{fill-rule:evenodd;clip-rule:evenodd;fill:#4E79B8;}
</style><text class="st0" x="674.59998" y="375.20001" font-family="MyriadPro-Regular" font-size="12px" stroke="#42c134" stroke-miterlimit="10">42c134</text>
<g transform="translate(-1.4,-1.8)" clip-rule="evenodd" fill="#4e79b8" fill-rule="evenodd"><path class="st1" d="m18.6 1.8c2.7 0 5.3 0.6 7.6 1.8 0.4 0.2 0.7 0.4 1.1 0.6l-1.6 1.4-2.4-2.6-4 3.6-2.4-2.6-7.5 6.8 4.8 5.3-1.9 1.7 4.7 5.2-1.9 1.7 6.8 7.5 4-3.7 3.5 4c-0.7 0.5-1.4 1-2.3 1.5-2.5 1.4-5.4 2.3-8.5 2.3-9.5 0-17.2-7.8-17.2-17.3s7.7-17.2 17.2-17.2z"/><polygon class="st1" points="23.3 18.3 19.2 22 15.5 17.9 19.6 14.2"/><polygon class="st1" points="26.2 25.4 22.1 29.1 18.4 25 22.5 21.3"/><polygon class="st1" points="20.3 11.3 16.2 15 12.5 10.9 16.6 7.2"/><polygon class="st1" points="25.9 9.2 22.8 12 20.1 8.9 23.1 6.2"/><polygon class="st1" points="31.4 21.9 28.3 24.7 25.5 21.6 28.6 18.8"/><polygon class="st1" points="34.1 28.1 31 30.9 28.2 27.8 31.3 25.1"/><polygon class="st1" points="33.4 13.8 31.3 15.6 29.5 13.6 31.5 11.7"/><polygon class="st1" points="30.8 7.7 28.7 9.5 26.9 7.5 28.9 5.6"/><polygon class="st1" points="36 19.9 33.9 21.7 32.1 19.7 34.2 17.8"/><polygon class="st1" points="28.8 15.4 25.7 18.2 22.9 15.1 26 12.3"/></g></svg>
