<?xml version="1.0" encoding="utf-8"?>
<!-- Generator: Adobe Illustrator 21.0.2, SVG Export Plug-In . SVG Version: 6.00 Build 0)  -->
<svg version="1.1" id="Слой_1" xmlns="http://www.w3.org/2000/svg" xmlns:xlink="http://www.w3.org/1999/xlink" x="0px" y="0px"
	 viewBox="0 0 125 110" style="enable-background:new 0 0 125 110;" xml:space="preserve">
<style type="text/css">
	.st0{display:none;fill:#151827;}
	.st1{fill:#8d8d8d;}
	.st2{fill:#000000;}
	.st3{fill:#FFFFFF;}
	.st4{fill:#8c8c8c;}
</style>
<rect class="st0" width="125" height="110"/>
<g>
	<g>
		<path class="st1" d="M8.5,38.7c0.8,2.1,2.5,3.4,3.4,5.4c0,0.1,0.2-0.9,0.2-1.1c0.1-1.2-0.3-2.2-0.5-3.4c-0.2-1.2-0.4-2.7-0.9-3.8
			c-0.9-2.1-2.4-4.1-4-5.4c-0.2-0.1,0,0.4,0,0.6C7.6,33.5,7.6,36.2,8.5,38.7z M15.9,45.9c-0.1,1-0.5,1.9-0.2,3c0,0,0,0,0,0
			c0,0.2,0.7-0.6,0.9-1.2c0.2-0.6,0.6-1.1,1-1.6c0.6-0.8,1.4-1.6,1.9-2.6c0.5-1,1-2.3,1-3.6c0.1-1.7-0.9-3.8-1.2-5.4
			c-0.1-0.4-0.4,0.2-0.6,0.5c-0.9,1.9-2.4,3.7-2.7,6.1C15.9,42.8,16.1,44.4,15.9,45.9z M8.9,50.2c0.7,1.1,1.5,1.8,2.3,2.4
			c1,0.7,1.9,1.2,2.8,2.6c0,0.1,0.1-0.7-0.2-1.6c-0.4-1.6-1.2-3-1.8-4.4c-0.6-1.4-1.3-2.7-2.1-3.8C8.4,43.2,6.7,42.1,5,41
			c-0.2-0.1-0.6-0.5-0.5-0.2c0.4,1.6,1.4,3.7,2,5.1C7.3,47.4,8,48.9,8.9,50.2z M16.4,65.1c0.1,0-0.5-1.4-0.6-1.7
			c-0.4-1.3-0.7-2.1-1.4-3.1c-0.7-1-1.5-1.7-2.2-2.4c-1.7-1.5-3.4-2.2-5.1-3.7c-0.2-0.2-0.9-0.5-0.8-0.1
			C8.6,58.7,13.5,66.6,16.4,65.1z M20.7,55.9c1.1-2.3,1.9-6.3,2-9.4c0-0.4-0.7,0.5-0.8,0.8c-1.7,3.4-4.5,4.3-5,9.3
			C16.4,61.4,20,57.4,20.7,55.9z M42,101.9c-3.2-1.6-7.2-5.5-11.6-11.8c-3.7-5.2-6.9-11.2-9.5-17.7c-4.6-11.7-6.8-24.3-6.1-35.7
			l0-0.1c0.9-0.5,1.7-3.3,1.6-4.7c-0.3-3.4-1.7-8.5-3.4-12.3c-0.2-0.5-0.4,1-0.3,1.4c0.3,5-1.1,7.4,0.6,13.9
			c0.2,0.9,0.5,1.4,0.8,1.6c-1,11.9,1.2,25.3,6.2,37.8c2.8,6.8,6.3,13.4,10.4,18.9c3.4,4.6,7.4,9.4,11.6,10.2c0.1,0,0.1,0,0.2,0
			c0.2-0.1,0.3-0.3,0.2-0.6C42.5,102.4,42.2,102,42,101.9z M21.4,70.4c0.9,2.3,1.6,4.7,2.1,4.9c0.4,0.1,1.5-4.8,1.5-7.5
			c0-3.1-1.2-6.1-1.5-9.2c0-0.3-0.1-0.9-0.2-0.7c-1.2,2.2-2.1,5-2.2,7.7C21,67.1,20.9,69,21.4,70.4z M18.9,76.2
			c0.6,0.5,1.4,0.8,1.3,0.5c0,0,0,0,0,0c-0.8-1.6-1.6-2.3-2.5-3.4c-1.3-1.6-2.6-3.7-3.9-5.3c-2.1-2.5-4.1-3.2-6-4.7
			c-0.3-0.2-0.9-0.7-0.6-0.1c1.2,2.2,2.6,5.6,4,7.5c1.1,1.4,2.3,2.6,3.3,3.3c1,0.7,1.8,0.9,2.8,1.2C17.8,75.5,18.4,75.7,18.9,76.2z
			 M29.5,87c0.6,1.1,0.9,1.3,0.9,1.2c-0.4-1.5,0-2.5,0.1-3.6c0.1-0.9,0.1-1.9-0.1-3.1c-0.3-1.4-0.8-3-1.3-4.5
			c-0.5-1.4-1.2-3.5-2-4.9c-0.2-0.3-0.2,0.2-0.2,0.4c-0.3,1.8-0.3,3.6-0.4,6.1c0,1.4,0.1,2.8,0.6,4.2C27.8,84.4,28.8,85.6,29.5,87z
			 M35.5,95.5c2.9,1.1,0.2-9.7-1.7-14.4c-0.2-0.4-0.4,0.3-0.4,0.6c0,2.2-0.5,3.8-0.5,6c0,1,0.1,2,0.4,3.2
			C33.6,92,34.9,95.2,35.5,95.5z M26,87.9c-0.3-0.6-0.4-0.8-0.7-1c-3.5-4.8-6.2-4.8-9.6-7.6c-0.3-0.2-1.4-0.9-1.2-0.5
			c1.9,3,4.8,6.8,7.1,8.8C23.2,88.8,27.9,91.6,26,87.9z M34.6,100.4c-0.8-1.2-1.3-1.8-2.3-2.5c-1-0.7-1.9-1.1-2.8-1.5
			c-2.1-0.8-3.8-0.8-5.9-1.6c-0.3-0.1-1-0.1-0.7,0.2c3.6,3.7,9.2,8.4,13.4,7.1C36.7,102.1,35.5,101.5,34.6,100.4z"/>
	</g>
</g>
<path class="st2" d="M27.5,19.5c24,0,33-13,33-13h4c0,0,7.2,13,34,13v23.2c0,39.1-35.5,60.8-35.5,60.8S27.5,81.8,27.5,42.7V19.5z"/>
<g>
	<g>
		<path class="st1" d="M118.4,37.7c1-2.5,0.9-5.2,1.7-7.8c0.1-0.2,0.2-0.7,0-0.6c-1.6,1.3-3.1,3.3-4,5.4c-0.5,1.1-0.7,2.7-0.9,3.8
			c-0.2,1.3-0.5,2.2-0.5,3.4c0,0.2,0.2,1.2,0.2,1.1C116,41.1,117.6,39.8,118.4,37.7z M109.3,45.2c0.4,0.5,0.7,1,1,1.6
			c0.2,0.6,0.9,1.4,0.9,1.2c0,0,0,0,0,0c0.3-1.1,0-2-0.2-3c-0.2-1.5,0.1-3.1-0.2-4.6c-0.3-2.4-1.8-4.2-2.7-6.1
			c-0.1-0.3-0.5-0.9-0.6-0.5c-0.3,1.6-1.3,3.7-1.2,5.4c0.1,1.3,0.5,2.6,1,3.6C108,43.6,108.7,44.3,109.3,45.2z M122,40
			c-1.7,1.1-3.4,2.2-4.9,4.4c-0.8,1.1-1.4,2.5-2.1,3.8c-0.6,1.4-1.4,2.8-1.8,4.4c-0.2,0.9-0.2,1.6-0.2,1.6c0.9-1.4,1.8-1.9,2.8-2.6
			c0.8-0.6,1.5-1.3,2.3-2.4c0.9-1.3,1.6-2.8,2.3-4.3c0.7-1.4,1.7-3.5,2-5.1C122.6,39.5,122.2,39.8,122,40z M120,53.1
			c-1.7,1.5-3.4,2.2-5.1,3.7c-0.8,0.7-1.5,1.4-2.2,2.4c-0.8,1-1,1.8-1.4,3.1c-0.1,0.3-0.7,1.6-0.6,1.7c2.9,1.5,7.8-6.3,10.1-11
			C120.9,52.6,120.2,52.9,120,53.1z M110.1,55.7c-0.5-5-3.3-6-5-9.3c-0.1-0.3-0.9-1.2-0.8-0.8c0.1,3.1,0.9,7,2,9.4
			C107,56.4,110.6,60.4,110.1,55.7z M96.5,92.3c4-5.5,7.6-12.1,10.4-18.9c5-12.4,7.2-25.8,6.2-37.8c0.3-0.2,0.5-0.8,0.8-1.6
			c1.7-6.5,0.3-9,0.6-13.9c0-0.4-0.1-1.9-0.3-1.4c-1.6,3.8-3.1,8.9-3.4,12.3c-0.1,1.4,0.7,4.2,1.6,4.7l0,0.1
			c0.7,11.3-1.5,24-6.1,35.7c-2.6,6.5-5.8,12.4-9.5,17.7c-4.5,6.3-8.4,10.3-11.6,11.8c-0.3,0.1-0.5,0.5-0.5,0.9
			c0,0.3,0.1,0.6,0.2,0.6c0,0,0.1,0,0.2,0C89.1,101.7,93.1,96.9,96.5,92.3z M103.5,74.2c0.5-0.1,1.2-2.5,2.1-4.9
			c0.5-1.3,0.4-3.3,0.4-4.7c-0.1-2.7-1-5.6-2.2-7.7c-0.1-0.2-0.2,0.4-0.2,0.7c-0.3,3.1-1.5,6-1.5,9.2C102,69.4,103,74.3,103.5,74.2z
			 M119.2,62.3c-1.9,1.4-3.9,2.1-6,4.7c-1.3,1.6-2.6,3.7-3.9,5.3c-0.9,1.1-1.7,1.8-2.5,3.4c0,0,0,0,0,0c-0.2,0.3,0.7,0,1.3-0.5
			c0.6-0.5,1.1-0.7,1.6-1c0.9-0.4,1.8-0.6,2.8-1.2c1-0.7,2.2-1.8,3.3-3.3c1.4-1.9,2.8-5.3,4-7.5C120.1,61.6,119.5,62.1,119.2,62.3z
			 M96.5,87.3c0,0.1,0.4-0.1,0.9-1.2c0.7-1.4,1.7-2.6,2.3-4.1c0.5-1.4,0.6-2.8,0.6-4.2c0-2.5,0-4.3-0.4-6.1c0-0.2-0.1-0.7-0.2-0.4
			c-0.8,1.4-1.5,3.5-2,4.9c-0.5,1.5-1,3.1-1.3,4.5c-0.2,1.2-0.2,2.2-0.1,3.1C96.6,84.8,96.9,85.7,96.5,87.3z M91.5,94.5
			c0.7-0.3,1.9-3.4,2.2-4.6c0.3-1.2,0.4-2.2,0.4-3.2c0.1-2.2-0.5-3.8-0.5-6c0-0.3-0.2-1-0.4-0.6C91.2,84.8,88.6,95.6,91.5,94.5z
			 M111.2,78.3c-3.4,2.8-6.1,2.8-9.6,7.6c-0.2,0.3-0.4,0.5-0.7,1c-1.9,3.6,2.9,0.9,4.4-0.4c2.3-1.9,5.2-5.7,7.1-8.8
			C112.6,77.4,111.5,78.1,111.2,78.3z M103.4,93.9c-2.1,0.8-3.8,0.7-5.9,1.6c-0.9,0.4-1.8,0.8-2.8,1.5c-1,0.7-1.5,1.3-2.3,2.5
			c-0.8,1.1-2,1.7-1.6,1.8c4.2,1.3,9.8-3.4,13.4-7.1C104.4,93.8,103.7,93.8,103.4,93.9z"/>
	</g>
</g>
<g>
	<g>
		<path class="st3" d="M65.3,43.5l-0.2,0.7l0.8,0.9c-1.5,4.3-3.3,9.2-4.3,11.8h-0.1c-1.6-3.7-2.6-6-2.9-6.8c1.4-2.8,2.2-4,2.5-4.6
			c0.5-0.5,1.2-0.8,2.3-1.3l0.2-0.7c-0.8,0-1.7,0-2.6,0c-0.4,0-0.8,0-1.1,0l-0.1,0.1l-0.1,1.3c-0.5,1.2-0.9,1.9-1.7,3.7H58
			c-1.2-2.7-1.4-3.2-1.6-3.8l-0.1-1.2l0-0.1c-0.6,0-1.3,0-2,0c-1,0-2.1,0-3,0L51,44.2c1.1,0.4,1.6,0.7,1.9,1.1c0.8,1.6,1.9,4,3,6.7
			c-1.1,2.3-1.7,3.7-2.4,5h-0.1c-3.7-8.7-4.5-10.7-5-12.1l0.6-0.7l0.1-0.7c-0.9,0-1.8,0-2.7,0c-1.2,0-2.3,0-3.5,0l-0.3,0.7
			c1.3,0.4,1.7,0.7,2.2,1.2c1.5,3,6.1,14,6.9,15.8H52c0.6-0.5,1.3-1.5,1.7-2.3c0.7-1.5,1.5-3.2,2.7-5.6h0.1c1.5,3.2,3,6.8,3.4,7.8
			h0.3c0.5-0.5,1.3-1.5,1.7-2.3c2.2-5.5,4.8-12,5.5-13.3c0.6-0.6,1.1-0.9,2.2-1.4l0.2-0.7c-1,0-1.9,0-3,0
			C66.4,43.5,65.9,43.5,65.3,43.5z M77,53l0.2,0.8c0.3,0.1,0.7,0.1,1.1,0.1c2.3,0,6.1-1.2,6.1-5.4c0-1.6-0.6-3.1-2.2-4.1
			c-1.3-0.8-3-1.1-5.5-1.1c-1.7,0-3.7,0.2-6.1,0.4l-0.2,0.7l2.1,0.6v6.4c0,5.5,0,7.1-0.1,7.6l-1.8,1l-0.2,0.7c1.2,0,2.5,0,3.8,0
			c1.5,0,3.1,0,4.6,0l0.2-0.7l-3-1c0-0.4-0.2-1.5-0.2-7.6v-7c2.9,0,5.1,1,5.1,4.2C81,51,79.6,52.7,77,53z"/>
	</g>
</g>
<g>
	<g>
		<path class="st4" d="M64.3,10.5h-3.5c0,0-10,11.5-31.3,11.5v21.5c0,34.7,33.5,56.9,33.5,56.9s33.5-22.3,33.5-56.9V22
			C72.7,22,64.3,10.5,64.3,10.5z M95.5,43.7C95.5,76.3,63,99.5,63,99.5S30.5,76.4,30.5,43.7V23.3c20,0,30.4-11.8,30.4-11.8h3.3
			c0,0,9,11.8,31.3,11.8V43.7z"/>
	</g>
</g>
</svg>
