<svg width="20" height="26.3" version="1.1" viewBox="0 0 20 26.299999" xml:space="preserve" xmlns="http://www.w3.org/2000/svg"><style type="text/css">
	.st0{stroke:#42C134;stroke-miterlimit:10;}
	.st1{fill:#79AC00;}
	.st2{fill:#FFFFFF;}
	.st3{fill:#B4E441;}
</style><text class="st0" x="676" y="381.20001" font-family="MyriadPro-Regular" font-size="12px" stroke="#42c134" stroke-miterlimit="10">42c134</text>
<g transform="translate(-5 -.8)"><path class="st1" d="m25 7.8v17.2c0 1.1-0.9 2.1-2.1 2.1h-15.8c-1.2-0.1-2.1-1-2.1-2.2v-22c0-1.1 0.9-2.1 2.1-2.1h11z" fill="#79ac00"/><path class="st2" d="m17.9 16.3c-0.2 0-0.3 0-0.4 0.1s-0.2 0.2-0.2 0.3 0 0.2 0.1 0.2c0.1 0.1 0.3 0.1 0.5 0.2 0.4 0.1 0.8 0.2 0.9 0.3 0.2 0.1 0.3 0.2 0.4 0.4s0.1 0.4 0.1 0.6c0 0.3-0.1 0.5-0.2 0.7s-0.3 0.3-0.6 0.4c-0.2 0.1-0.5 0.1-0.8 0.1-0.8 0-1.4-0.2-1.7-0.7l0.7-0.5c0.1 0.2 0.3 0.3 0.4 0.3 0.2 0.1 0.3 0.1 0.5 0.1 0.5 0 0.7-0.1 0.7-0.4 0-0.1-0.1-0.2-0.2-0.3s-0.3-0.1-0.6-0.2c-0.5-0.1-0.9-0.3-1.1-0.5s-0.3-0.5-0.3-0.8 0.1-0.6 0.4-0.8 0.6-0.3 1.2-0.3c0.3 0 0.7 0.1 0.9 0.2 0.3 0.1 0.5 0.3 0.6 0.5l-0.7 0.5c0.1-0.3-0.2-0.4-0.6-0.4zm-3.4-2.3h1v5.5h-1zm-1.8 5.5-0.7-1.3-0.8 1.2h-1.1l1.3-1.9-1.3-2h1.1l0.8 1.2 0.8-1.2h1.1l-1.3 1.9 1.3 2h-1.2z" fill="#fff"/><path class="st3" d="m25 7.4v0.9h-5.6c-1.2 0-1.7-0.9-1.7-2.1v-5.3h0.9z" fill="#b4e441"/></g></svg>
