<?xml version="1.0" encoding="utf-8"?>
<!-- Generator: Adobe Illustrator 21.0.0, SVG Export Plug-In . SVG Version: 6.00 Build 0)  -->
<svg version="1.1" id="Слой_1" xmlns="http://www.w3.org/2000/svg" xmlns:xlink="http://www.w3.org/1999/xlink" x="0px" y="0px"
	 viewBox="0 0 28 28" style="enable-background:new 0 0 28 28;" xml:space="preserve">
<style type="text/css">
	.st0{stroke:#42C134;stroke-miterlimit:10;}
	.st1{fill:#79AC00;}
	.st2{fill:#FFFFFF;}
	.st3{fill:#B4E441;}
</style>
<text transform="matrix(1 0 0 1 681 382)" class="st0" style="font-family:'MyriadPro-Regular'; font-size:12px;">42c134</text>
<g id="Lockup">
</g>
<g>
	<path class="st1" d="M25,7.8v17.2c0,1.1-0.9,2.1-2.1,2.1H7.1C5.9,27,5,26.1,5,24.9v-22c0-1.1,0.9-2.1,2.1-2.1h11L25,7.8z"/>
	<path class="st2" d="M17.9,16.3c-0.2,0-0.3,0-0.4,0.1c-0.1,0.1-0.2,0.2-0.2,0.3c0,0.1,0,0.2,0.1,0.2c0.1,0.1,0.3,0.1,0.5,0.2
		c0.4,0.1,0.8,0.2,0.9,0.3c0.2,0.1,0.3,0.2,0.4,0.4c0.1,0.2,0.1,0.4,0.1,0.6c0,0.3-0.1,0.5-0.2,0.7c-0.1,0.2-0.3,0.3-0.6,0.4
		c-0.2,0.1-0.5,0.1-0.8,0.1c-0.8,0-1.4-0.2-1.7-0.7l0.7-0.5c0.1,0.2,0.3,0.3,0.4,0.3c0.2,0.1,0.3,0.1,0.5,0.1c0.5,0,0.7-0.1,0.7-0.4
		c0-0.1-0.1-0.2-0.2-0.3c-0.1-0.1-0.3-0.1-0.6-0.2c-0.5-0.1-0.9-0.3-1.1-0.5c-0.2-0.2-0.3-0.5-0.3-0.8c0-0.3,0.1-0.6,0.4-0.8
		c0.3-0.2,0.6-0.3,1.2-0.3c0.3,0,0.7,0.1,0.9,0.2c0.3,0.1,0.5,0.3,0.6,0.5l-0.7,0.5C18.6,16.4,18.3,16.3,17.9,16.3z M14.5,14h1v5.5
		h-1V14z M12.7,19.5L12,18.2l-0.8,1.2h-1.1l1.3-1.9l-1.3-2h1.1l0.8,1.2l0.8-1.2h1.1l-1.3,1.9l1.3,2H12.7z"/>
	<path class="st3" d="M25,7.4v0.9h-5.6c-1.2,0-1.7-0.9-1.7-2.1V0.9h0.9L25,7.4z"/>
</g>
</svg>
