<svg width="26.8" height="35.3" version="1.1" viewBox="0 0 26.799999 35.299999" xml:space="preserve" xmlns="http://www.w3.org/2000/svg"><style type="text/css">
	.st0{stroke:#42C134;stroke-miterlimit:10;}
	.st1{fill:#F4C944;}
	.st2{fill:#BD9D34;}
	.st3{fill:#201600;}
</style><text class="st0" x="670.79999" y="375.60001" font-family="MyriadPro-Regular" font-size="12px" stroke="#42c134" stroke-miterlimit="10">42c134</text>
<g transform="translate(-5.2,-1.4)"><path class="st1" d="m5.2 18.9c0-2 0.2-3.2 4.3-6.3 3.4-2.5 14.3-11.2 14.3-11.2v14.5h8.2v20.8h-24.2c-1.4 0-2.6-1.2-2.6-2.6z" fill="#f4c944"/><polygon class="st2" points="8.5 34.6 27.7 28.4 27.7 15.9 23.7 15.9 23.7 24.3" fill="#bd9d34"/><path class="st3" d="m16.8 15.5c0.9-1.1 2.2-1.4 2.9-0.8s0.6 1.9-0.3 3-2.2 1.4-2.9 0.8c-0.8-0.6-0.6-2 0.3-3" fill="#201600"/></g></svg>
